<svg xmlns="http://www.w3.org/2000/svg" xml:space="preserve" width="1575" height="2278" style="shape-rendering:geometricPrecision;text-rendering:geometricPrecision;image-rendering:optimizeQuality;fill-rule:evenodd;clip-rule:evenodd"><defs><style>.fil3{fill:#000}.fil4{fill:gray}.fil1{fill:#f29120}.fil0{fill:#ffce05}</style></defs><g id="Layer_x0020_1"><g id="Layer_1-2" data-name="Layer 1"><path class="fil0" d="M1574.71 1264.56v308.16l-235.32-154.07v-.12z"/><path class="fil1" d="m1574.49 1264.69-235.1 153.84v-307.5l.16-.13zM1124.08 1726.65l-109.78 71.85v-143.63l.09-.03z"/><path style="fill:#184899" d="m771.45 1997.72-109.78 71.81v-143.56l.1-.06z"/><path class="fil1" d="m1177.02 826.44-75 49.06v-98.1l.06-.03zM1574.71 956.62v.44l-235.16 153.84-.16-.12V802.65z"/><path class="fil3" d="M1339.39 1726.44v308.15l-235.34-154.06v-.12zM1574.49 2188.47l-.1.09h-235v-153.75l.16-.12zM1104.05 2188.47l-.13.09H868.95v-153.75l.19-.12z"/><path class="fil1" d="M1574.71 1880.84v307.5l-.22.13-234.94-153.78z"/><path class="fil0" d="M1574.71 1572.94v307.47l-235-153.76z"/><path class="fil4" d="M590.74 2248.13 564.36 2278l-46.16-52.28-46.12 52.28-26.38-29.87 46.19-52.29-46.19-52.31 26.38-29.87 46.12 52.31 46.16-52.31 26.38 29.87-46.16 52.31zM860.52 1823.62c-17.32 0-26.53 8.16-33.94 14.79-6.72 6-12.06 10.71-23.5 10.71-11.41 0-16.75-4.71-23.5-10.71-6.72-6.03-16.59-14.79-33.91-14.79-17.28 0-26.47 8.16-33.87 14.79-6.75 6-12.1 10.71-23.5 10.71-11.41 0-16.75-4.71-23.5-10.71-6.72-6.03-16.63-14.79-33.88-14.79-17.25 0-26.5 8.16-33.9 14.79-6.75 6-12.04 10.71-23.47 10.71-11.41 0-16.75-4.71-23.44-10.71-7.41-6.6-16.69-14.79-33.94-14.79-17.25 0-26.5 8.16-33.91 14.79-7.4 6.59-12.03 10.71-23.43 10.71-11.44 0-16.78-4.71-23.5-10.71-7.44-6.6-16.63-14.79-33.88-14.79-17.25 0-26.53 8.16-33.94 14.79-7.4 6.59-12.03 10.71-23.5 10.71-11.43 0-16.72-4.71-23.43-10.71-7.41-6.6-16.63-14.79-33.94-14.79-17.28 0-26.44 8.16-33.88 14.79-6.72 6-12.03 10.71-23.5 10.71-11.44 0-16.69-4.71-23.44-10.71-7.4-6.6-16.62-14.79-33.9-14.79-17.31 0-26.47 8.16-33.88 14.79-6.75 6-12.09 10.71-23.5 10.71-11.44 0-16.72-4.71-23.47-10.71-6.72-6.03-16.62-14.79-33.9-14.79-17.31 0-26.47 8.16-33.88 14.79-6.71 5.97-12.01 10.67-23.29 10.71v19.16c17.14-.06 26.32-8.24 33.7-14.84 7.44-6.6 12.06-10.69 23.47-10.69 11.4 0 16.75 4.72 23.44 10.69 7.46 6.62 16.68 14.84 33.93 14.84s26.5-8.22 33.91-14.84c6.75-5.97 12.03-10.69 23.47-10.69 11.4 0 16.75 4.72 23.47 10.69 7.43 6.62 16.62 14.84 33.87 14.84 17.28 0 26.53-8.22 33.94-14.84 6.75-5.97 12.03-10.69 23.44-10.69 11.44 0 16.78 4.72 23.5 10.69 6.75 6 16.62 14.84 33.87 14.84 17.25 0 26.53-8.22 33.94-14.84 6.72-5.97 12.03-10.69 23.5-10.69 11.44 0 16.69 4.72 23.44 10.69 6.75 6 16.62 14.84 33.94 14.84 17.28 0 26.43-8.22 33.87-14.84 6.72-5.97 12.06-10.69 23.47-10.69 11.44 0 16.72 4.72 23.47 10.69 6.75 6 16.66 14.84 33.91 14.84 17.25 0 26.46-8.22 33.93-14.84 6.69-5.97 12.03-10.69 23.44-10.69 11.41 0 16.72 4.72 23.47 10.69 7.41 6.62 16.66 14.84 33.91 14.84 17.25 0 26.5-8.22 33.93-14.84 7.41-6.6 12.03-10.69 23.44-10.69 11.41 0 16.75 4.72 23.5 10.69 7.41 6.62 16.66 14.84 33.91 14.84 17.25 0 26.53-8.22 33.94-14.84 6.71-5.97 12.09-10.69 23.5-10.69 11.4 0 16.75 4.72 23.5 10.69 7.4 6.62 16.65 14.84 33.9 14.84v-19.16c-11.47 0-16.75-4.71-23.5-10.71-7.4-6.6-16.62-14.79-33.9-14.79zM1488.39 637.84l-4.03 4.56 46.06 52.22 4.04-4.59z"/><path class="fil4" d="m1530.42 637.84-46.06 52.19 4.03 4.59 46.07-52.22zM1259.67 637.84l-4.03 4.56 46.1 52.22 4-4.59z"/><path class="fil4" d="m1301.74 637.84-46.1 52.19 4.03 4.59 46.07-52.22zM1374.02 637.84l-4 4.56 46.06 52.22 4.03-4.59z"/><path class="fil4" d="m1416.08 637.84-46.06 52.19 4 4.59 46.09-52.22zM1488.39 508.22l-4.03 4.59 46.06 52.19 4.04-4.6z"/><path class="fil4" d="m1530.42 508.22-46.06 52.18 4.03 4.6 46.07-52.19zM1259.67 508.22l-4.03 4.59 46.1 52.19 4-4.6z"/><path class="fil4" d="m1301.74 508.22-46.1 52.18 4.03 4.6 46.07-52.19zM1374.02 508.22l-4 4.59 46.06 52.19 4.03-4.6z"/><path class="fil4" d="m1416.08 508.22-46.06 52.18 4 4.6 46.09-52.19zM1488.39 378.65l-4.03 4.57 46.06 52.22 4.04-4.6z"/><path class="fil4" d="m1530.42 378.65-46.06 52.19 4.03 4.6 46.07-52.22zM1259.67 378.65l-4.03 4.57 46.1 52.22 4-4.6z"/><path class="fil4" d="m1301.74 378.65-46.1 52.19 4.03 4.6 46.07-52.22zM1374.02 378.65l-4 4.57 46.06 52.22 4.03-4.6z"/><path class="fil4" d="m1416.08 378.65-46.06 52.19 4 4.6 46.09-52.22zM1488.39 249.09l-4.03 4.56 46.06 52.22 4.04-4.59z"/><path class="fil4" d="m1530.42 249.09-46.06 52.19 4.03 4.59 46.07-52.22zM1259.67 249.09l-4.03 4.56 46.1 52.22 4-4.59z"/><path class="fil4" d="m1301.74 249.09-46.1 52.19 4.03 4.59 46.07-52.22zM1374.02 249.09l-4 4.56 46.06 52.22 4.03-4.59z"/><path class="fil4" d="m1416.08 249.09-46.06 52.19 4 4.59 46.09-52.22zM1574.71 4.9a37.532 37.532 0 0 0-11.9-5.11h-17.4a37.746 37.746 0 0 0-18.95 11.02c-5.5 4.9-9.85 9-19.16 9-9.28 0-13.47-3.88-19.13-9a37.944 37.944 0 0 0-18.96-11.02h-17.38a38.015 38.015 0 0 0-18.97 11.02c-5.47 4.9-9.78 9-19.09 9-9.28 0-13.47-3.88-19.13-9a38.015 38.015 0 0 0-18.97-11.02h-17.38a37.944 37.944 0 0 0-18.96 11.02c-5.47 4.9-9.85 9-19.13 9-9.31 0-13.5-3.88-19.15-9a37.814 37.814 0 0 0-18.93-11.02h-17.38a37.76 37.76 0 0 0-18.94 11.02c-5.47 4.87-9.85 8.72-19.13 8.72v15.65a38.09 38.09 0 0 0 27.62-12.09c5.47-4.91 9.82-9 19.13-9 9.28 0 13.47 3.88 19.13 9a37.734 37.734 0 0 0 27.65 12.06c10.5 0 20.53-4.37 27.66-12.06 5.5-4.91 9.81-9 19.16-9 9.34 0 13.47 3.88 19.09 9a37.723 37.723 0 0 0 27.66 12.06c10.47 0 20.5-4.37 27.62-12.06 5.5-4.91 9.81-9 19.16-9 9.34 0 13.47 3.88 19.12 9a37.707 37.707 0 0 0 27.63 12.06c10.5 0 20.5-4.37 27.62-12.06 5.5-4.91 9.85-9 19.16-9 9.28 0 13.47 3.88 19.12 9 .5.53 1.01 1.03 1.5 1.53V4.9h.01z"/></g></g></svg>