<svg xmlns="http://www.w3.org/2000/svg" xml:space="preserve" width="1146" height="2664" style="shape-rendering:geometricPrecision;text-rendering:geometricPrecision;image-rendering:optimizeQuality;fill-rule:evenodd;clip-rule:evenodd"><defs><style>.fil6{fill:#000}.fil2{fill:#184899}.fil5{fill:gray}.fil3{fill:#f29120}.fil0{fill:#ffce05}</style></defs><g id="Layer_x0020_1"><g id="Layer_1-2" data-name="Layer 1"><path class="fil0" d="m-.13 2551.72 508.94-878.76v860.97l-75.19 129.85H-.13z"/><path style="fill:#002a38" d="M612.18 2429.06h85.13l-135.88 234.72h-85.09z"/><path class="fil2" d="M925.46 2663.78 991 2550.53h85.12l-65.53 113.25z"/><path class="fil3" d="m723.09 2663.78 256.59-453.1h165.85l-262.38 453.1z"/><path class="fil2" d="m613.87 2663.78 439.75-774.22v190.59l-73.94 130.53-256.59 453.1z"/><path style="fill:#f64523" d="m-.13 2315.37 79.47-137.25v485.66H-.13z"/><path class="fil0" d="M162.96 1058.53v656.68L-.13 1996.81v-656.69z"/><path class="fil3" d="M-.13 1671.9h755.75l-574.47 991.88H-.13z"/><path class="fil5" d="M166.68 654.34c-.15-1.1-.75-2.13-1.65-2.82-.63-.5-1.44-.78-2.25-.78-1.35 0-2.6.78-3.22 2L-.13 924.24v16.13l166.22-282.66c.47-.72.72-1.56.72-2.4 0-.32-.07-.66-.13-.97z"/><path class="fil6" d="M683.53 2035.18c.62-1.25 1.9-2 3.28-2 .78 0 1.56.25 2.18.72.91.72 1.5 1.72 1.69 2.85.06.31.1.62.1.97 0 .84-.26 1.68-.69 2.4l-366.88 623.66h-9.47l369.78-628.6h.01zM687.87 2227.71l-12.19 20.22 106.81-22.81 12.16-20.16-106.78 22.75zm88.56-147.06-12.19 20.16 106.79-22.78 12.18-20.16-106.78 22.78zm-147.78 245.1-12.16 20.22 106.79-22.82 12.18-20.18-106.81 22.78zm177.34-294.16-12.18 20.16 106.78-22.78 12.19-20.22-106.79 22.84zm-58.93 97.94-12.19 20.15 106.78-22.78 12.19-20.15-106.78 22.78zm-88.69 147.09-12.19 20.19L752.96 2274l12.19-20.16-106.78 22.78zm59.06-98.03-12.12 20.19 106.78-22.82 12.19-20.15-106.85 22.78z"/><path class="fil5" d="M214.09 522.09h-97.22l48.59-76zM214.09 432.77h-97.22l48.59-76.03zM214.09 343.46h-97.22l48.59-76.03zM214.09 254.18h-97.22l48.59-76.06zM214.09 164.87h-97.22l48.59-76.07zM214.09 75.55h-97.22L165.46-.51z"/><path class="fil6" d="M40.31 2423.03h32.66V2460H40.31zM119.15 2423.03h32.66V2460h-32.66zM197.96 2423.03h32.66V2460h-32.66zM276.74 2423.03h32.66V2460h-32.66zM355.56 2423.03h32.66V2460h-32.66zM434.4 2423.03h32.66V2460H434.4zM40.31 2333.72h32.66v36.97H40.31zM119.15 2333.72h32.66v36.97h-32.66zM197.96 2333.72h32.66v36.97h-32.66zM276.74 2333.72h32.66v36.97h-32.66zM355.56 2333.72h32.66v36.97h-32.66zM434.4 2333.72h32.66v36.97H434.4zM40.31 2244.4h32.66v36.97H40.31zM119.15 2244.4h32.66v36.97h-32.66zM197.96 2244.4h32.66v36.97h-32.66zM276.74 2244.4h32.66v36.97h-32.66zM355.56 2244.4h32.66v36.97h-32.66zM434.4 2244.4h32.66v36.97H434.4zM40.31 2155.09h32.66v36.97H40.31zM119.15 2155.09h32.66v36.97h-32.66zM197.96 2155.09h32.66v36.97h-32.66zM276.74 2155.09h32.66v36.97h-32.66zM355.56 2155.09h32.66v36.97h-32.66zM434.4 2155.09h32.66v36.97H434.4z"/></g></g></svg>