<svg xmlns="http://www.w3.org/2000/svg" xml:space="preserve" width="913" height="3563" style="shape-rendering:geometricPrecision;text-rendering:geometricPrecision;image-rendering:optimizeQuality;fill-rule:evenodd;clip-rule:evenodd"><defs><style>.fil3{fill:#000}.fil2{fill:#184899}.fil4{fill:gray}.fil1{fill:#f29120}.fil0{fill:#ffce05}</style></defs><g id="Layer_x0020_1"><g id="Layer_1-2" data-name="Layer 1"><path class="fil0" d="M.01 429.31v271.91l235.31-135.97v-.09z"/><path class="fil1" d="m.23 429.41 235.09 135.75V293.81l-.16-.09zM450.63 837.06l109.78 63.41V773.72l-.09-.06z"/><path class="fil2" d="m803.26 1076.25 109.78 63.41v-126.72l-.09-.03z"/><path class="fil1" d="m397.7 42.69 75 43.28V-.59l-.07-.03zM.01 157.56v.41l235.15 135.75.16-.13V21.69z"/><path class="fil3" d="M235.32 836.88v271.9l235.34-135.9v-.13z"/><path class="fil2" d="m.23 1244.59.09.1h235V1109l-.16-.09zM470.66 1244.59l.13.1h234.97V1109l-.13-.09z"/><path class="fil1" d="M.01 973.16v271.31l.22.12 234.93-135.68z"/><path class="fil0" d="M.01 701.38v271.37l235-135.69z"/><path class="fil4" d="M840.01 49.37 826.6 36.03l-23.34 23.35-23.38-23.35-13.37 13.34 23.4 23.41-23.4 23.35 13.37 13.34 23.38-23.35 23.34 23.35 13.41-13.34-23.41-23.35z"/><path class="fil0" d="M.01 2167.84v-308.15l235.31 154.03v.16z"/><path class="fil1" d="m.23 2167.69 235.09-153.81v307.46l-.16.1zM450.63 1705.72l109.78-71.84v143.62l-.09.06z"/><path class="fil2" d="m803.26 1434.69 109.78-71.91v143.66l-.09.03z"/><path class="fil1" d="m397.7 2605.97 75-49.06v98.06l-.07.03zM.01 2475.75v-.5l235.15-153.81.16.12v308.16z"/><path class="fil3" d="M235.32 1705.94v-308.16l235.34 154.06v.13z"/><path class="fil2" d="m.23 1243.91.09-.1h235v153.75l-.16.1zM470.66 1243.91l.13-.1h234.97v153.75l-.13.1z"/><path class="fil1" d="M.01 1551.5v-307.44l.22-.15 234.93 153.75z"/><path class="fil0" d="M.01 1859.47v-307.5l235 153.75z"/><path class="fil4" d="m179.54 3506.5-4 4.53 45.5 51.6 4-4.53z"/><path class="fil4" d="m221.04 3506.5-45.5 51.6 4 4.53 45.5-51.6zM292.54 3506.5l-4 4.53 45.5 51.6 4-4.53z"/><path class="fil4" d="m334.04 3506.5-45.5 51.6 4 4.53 45.5-51.6zM405.57 3506.5l-4 4.53 45.5 51.6 4-4.53z"/><path class="fil4" d="m447.07 3506.5-45.5 51.6 4 4.53 45.5-51.6zM518.54 3506.5l-4 4.53 45.53 51.6 4-4.53z"/><path class="fil4" d="m560.07 3506.5-45.53 51.6 4 4.53 45.53-51.6zM66.51 3506.5l-4 4.53 45.5 51.6 4.03-4.53z"/><path class="fil4" d="m108.01 3506.5-45.5 51.6 4 4.53 45.53-51.6zM179.54 3378.41l-4 4.56 45.5 51.56 4-4.5z"/><path class="fil4" d="m221.04 3378.41-45.5 51.62 4 4.5 45.5-51.56zM292.54 3378.41l-4 4.56 45.5 51.56 4-4.5z"/><path class="fil4" d="m334.04 3378.41-45.5 51.62 4 4.5 45.5-51.56zM405.57 3378.41l-4 4.56 45.5 51.56 4-4.5z"/><path class="fil4" d="m447.07 3378.41-45.5 51.62 4 4.5 45.5-51.56zM518.54 3378.41l-4 4.56 45.53 51.56 4-4.5z"/><path class="fil4" d="m560.07 3378.41-45.53 51.62 4 4.5 45.53-51.56zM66.51 3378.41l-4 4.56 45.5 51.56 4.03-4.5z"/><path class="fil4" d="m108.01 3378.41-45.5 51.62 4 4.5 45.53-51.56zM179.54 3250.38l-4 4.53 45.5 51.59 4-4.53z"/><path class="fil4" d="m221.04 3250.38-45.5 51.59 4 4.53 45.5-51.59zM292.54 3250.38l-4 4.53 45.5 51.59 4-4.53z"/><path class="fil4" d="m334.04 3250.38-45.5 51.59 4 4.53 45.5-51.59zM405.57 3250.38l-4 4.53 45.5 51.59 4-4.53z"/><path class="fil4" d="m447.07 3250.38-45.5 51.59 4 4.53 45.5-51.59zM518.54 3250.38l-4 4.53 45.53 51.59 4-4.53z"/><path class="fil4" d="m560.07 3250.38-45.53 51.59 4 4.53 45.53-51.59zM66.51 3250.38l-4 4.53 45.5 51.59 4.03-4.53z"/><path class="fil4" d="m108.01 3250.38-45.5 51.59 4 4.53 45.53-51.59zM179.54 3122.28l-4 4.56 45.5 51.57 4-4.5z"/><path class="fil4" d="m221.04 3122.28-45.5 51.63 4 4.5 45.5-51.57zM292.54 3122.28l-4 4.56 45.5 51.57 4-4.5z"/><path class="fil4" d="m334.04 3122.28-45.5 51.63 4 4.5 45.5-51.57zM405.57 3122.28l-4 4.56 45.5 51.57 4-4.5z"/><path class="fil4" d="m447.07 3122.28-45.5 51.63 4 4.5 45.5-51.57zM518.54 3122.28l-4 4.56 45.53 51.57 4-4.5z"/><path class="fil4" d="m560.07 3122.28-45.53 51.63 4 4.5 45.53-51.57zM66.51 3122.28l-4 4.56 45.5 51.57 4.03-4.5z"/><path class="fil4" d="m108.01 3122.28-45.5 51.63 4 4.5 45.53-51.57zM840.01 2663.97l-13.41 15.12-23.34-26.46-23.38 26.46-13.37-15.12 23.4-26.47-23.4-26.5 13.37-15.16 23.38 26.5 23.34-26.5 13.41 15.16-23.41 26.5zM670.16 2969.38c-11.15 0-21.84 4.65-29.43 12.84-5.85 5.19-10.47 9.28-20.41 9.28s-14.56-4.09-20.41-9.28a40.083 40.083 0 0 0-29.43-12.88c-11.19 0-21.88 4.66-29.47 12.88-5.81 5.19-10.47 9.28-20.35 9.28-9.87 0-14.56-4.09-20.4-9.28a40.086 40.086 0 0 0-29.41-12.88c-11.18 0-21.84 4.69-29.44 12.88-5.87 5.19-10.46 9.28-20.4 9.28-9.91 0-14.5-4.09-20.34-9.28a40.121 40.121 0 0 0-29.44-12.88c-11.19 0-21.85 4.66-29.47 12.88-5.81 5.19-10.47 9.28-20.38 9.28-9.93 0-14.53-4.09-20.37-9.28a40.04 40.04 0 0 0-29.44-12.88c-11.19 0-21.84 4.66-29.44 12.88-5.84 5.19-10.43 9.28-20.37 9.28-9.91 0-14.53-4.09-20.38-9.28-7.59-8.19-18.25-12.88-29.43-12.88-11.16 0-21.85 4.69-29.44 12.88-5.82 5.19-10.44 9.28-20.38 9.28s-14.53-4.09-20.34-9.28c-7.63-8.22-18.28-12.88-29.47-12.88-11.19 0-21.84 4.66-29.44 12.88-5.84 5.19-10.47 9.28-20.37 9.28-9.88 0-14.53-4.09-20.38-9.28-.69-.75-1.4-1.44-2.12-2.12v21.15c6.59 4.44 14.4 6.88 22.5 6.88 11.15 0 21.84-4.66 29.43-12.85 5.85-5.22 10.47-9.31 20.41-9.31s14.5 4.09 20.34 9.31a40.14 40.14 0 0 0 29.44 12.85c11.16 0 21.85-4.66 29.41-12.85 5.84-5.22 10.47-9.31 20.4-9.31 9.94 0 14.53 4.09 20.35 9.31a40.238 40.238 0 0 0 29.47 12.85c11.15 0 21.84-4.66 29.43-12.85 5.85-5.22 10.47-9.31 20.41-9.31s14.5 4.09 20.34 9.31a40.189 40.189 0 0 0 29.44 12.85c11.19 0 21.88-4.66 29.47-12.85 5.84-5.22 10.47-9.31 20.34-9.31 9.88 0 14.57 4.09 20.41 9.31a40.101 40.101 0 0 0 58.84 0c5.85-5.22 10.47-9.31 20.41-9.31s14.5 4.09 20.34 9.31a40.173 40.173 0 0 0 29.44 12.85c11.19 0 21.87-4.66 29.47-12.85 5.84-5.22 10.47-9.31 20.37-9.31 9.94 0 14.53 4.09 20.41 9.31a40.189 40.189 0 0 0 29.47 12.85c11.15 0 21.84-4.66 29.44-12.85 5.84-5.22 10.46-9.31 20.4-9.31 9.91 0 14.5 4.09 20.38 9.31a40.716 40.716 0 0 0 29.43 12.85v-16.63c-9.93 0-14.56-4.09-20.4-9.28a40.418 40.418 0 0 0-29.41-12.88l-.03.04z"/></g></g></svg>