<svg xmlns="http://www.w3.org/2000/svg" xml:space="preserve" width="1968" height="1083" style="shape-rendering:geometricPrecision;text-rendering:geometricPrecision;image-rendering:optimizeQuality;fill-rule:evenodd;clip-rule:evenodd"><defs><style>.fil3{fill:#000}.fil2{fill:#184899}.fil4{fill:gray}.fil1{fill:#f29120}.fil0{fill:#ffce05}</style></defs><g id="Layer_x0020_1"><g id="_2432879349776"><g id="Layer_2" data-name="Layer 2"><g id="Layer_1-2" data-name="Layer 1"><path class="fil0" d="M1967.72 260.85v-87l-75.3 43.49v.04z"/><path class="fil1" d="m1967.65 260.81-75.23-43.43v86.83l.06.03zM1823.53 130.37l-35.14-20.28v40.54l.03.01z"/><path class="fil2" d="m1710.69 53.82-35.14-20.29v40.56l.03.01z"/><path class="fil1" d="m1840.46 384.58-23.99-13.86v27.7h.01zM1967.72 347.82v-.15l-75.24-43.43-.06.03v87.02z"/><path class="fil3" d="M1892.42 130.43V43.41l-75.3 43.5v.05zM1892.42-.01v43.36l.06.03L1967.6-.01zM1741.88-.01v43.36l.06.03 75.13-43.39z"/><path class="fil1" d="M1967.72 86.81V-.01h-.12l-75.12 43.39z"/><path class="fil0" d="M1967.72 173.78V86.96l-75.2 43.41z"/><path class="fil4" d="m1619.11-.01-12.67 12.65 8.44 8.44 14.77-14.76 14.76 14.76 8.44-8.44L1640.2-.01zM1739.18 102.99h-.11c-3.97 0-7.81-1.49-10.75-4.17a10.785 10.785 0 0 0-7.51-3.03c-2.81 0-5.51 1.08-7.52 3.03a16.244 16.244 0 0 1-10.85 4.17c-4.01 0-7.87-1.49-10.85-4.17a10.808 10.808 0 0 0-7.52-3.03c-2.8 0-5.5 1.08-7.52 3.03a16.2 16.2 0 0 1-10.84 4.17c-4.01 0-7.87-1.49-10.85-4.17-2.16-1.7-3.85-3.03-7.5-3.03h-.1c-2.77 0-5.43 1.09-7.41 3.03a16.225 16.225 0 0 1-10.85 4.17c-4.01 0-7.88-1.49-10.86-4.17-2.15-1.7-3.85-3.03-7.5-3.03h-.09c-2.77 0-5.45 1.09-7.43 3.03a16.206 16.206 0 0 1-10.85 4.17c-4 0-7.87-1.49-10.84-4.17-2.16-1.7-3.86-3.03-7.52-3.03-3.67 0-5.35 1.33-7.51 3.03a16.2 16.2 0 0 1-10.84 4.17c-4.01 0-7.88-1.49-10.85-4.17-2.16-1.7-3.86-3.03-7.52-3.03-3.67 0-5.35 1.33-7.51 3.03a16.2 16.2 0 0 1-10.84 4.17c-4.01 0-7.88-1.49-10.85-4.17a10.639 10.639 0 0 0-7.43-3.03h-.09c-3.65 0-5.35 1.33-7.5 3.03a16.225 16.225 0 0 1-10.85 4.17c-4.01 0-7.87-1.49-10.85-4.17-2.15-1.7-3.85-3.03-7.5-3.03v-5.41h.12c3.97 0 7.8 1.49 10.72 4.18 2.15 1.68 3.85 3.02 7.5 3.02h.09c2.77 0 5.43-1.08 7.42-3.02 2.97-2.69 6.84-4.18 10.85-4.18s7.88 1.49 10.86 4.18c2.15 1.69 3.85 3.02 7.5 3.02s5.36-1.33 7.52-3.02a16.16 16.16 0 0 1 21.69 0c2.16 1.69 3.85 3.02 7.51 3.02 3.65 0 5.36-1.33 7.52-3.02a16.16 16.16 0 0 1 21.69 0c2.16 1.69 3.85 3.02 7.52 3.02 3.67 0 5.35-1.33 7.5-3.02 2.98-2.69 6.84-4.18 10.85-4.18s7.88 1.49 10.85 4.18c1.99 1.94 4.66 3.02 7.44 3.02h.08c3.65 0 5.35-1.33 7.5-3.02 2.97-2.69 6.85-4.18 10.86-4.18s7.88 1.49 10.85 4.18c1.98 1.94 4.65 3.02 7.42 3.02h.09c3.65 0 5.34-1.34 7.5-3.02 2.97-2.69 6.84-4.18 10.85-4.18s7.89 1.49 10.86 4.18c2.15 1.69 3.85 3.02 7.5 3.02s5.36-1.33 7.52-3.02c2.97-2.69 6.85-4.18 10.86-4.18s7.88 1.49 10.85 4.18c1.99 1.94 4.66 3.02 7.44 3.02h.08c3.67 0 5.36-1.33 7.52-3.02 2.93-2.69 6.77-4.18 10.75-4.18h.1v5.41c-3.66 0-5.36 1.33-7.52 3.03a15.936 15.936 0 0 1-10.75 4.17h-.1z"/><path class="fil4" transform="rotate(-45 1496.36 -2122.064)" d="M0 0h20.85v1.83H0z"/><path class="fil4" transform="rotate(-45 1480.112 -2128.809)" d="M0 0h1.83v20.85H0z"/><path class="fil4" transform="rotate(-45 1459.756 -2033.734)" d="M0 0h20.85v1.83H0z"/><path class="fil4" transform="rotate(-45 1443.533 -2040.454)" d="M0 0h1.83v20.85H0z"/><path class="fil4" transform="rotate(-45 1477.907 -2077.877)" d="M0 0h20.85v1.83H0z"/><path class="fil4" transform="rotate(-45 1461.806 -2084.631)" d="M0 0h1.83v20.85H0z"/><path class="fil4" transform="rotate(-45 1540.53 -2103.768)" d="M0 0h20.85v1.83H0z"/><path class="fil4" transform="rotate(-45 1524.283 -2110.498)" d="M0 0h1.83v20.85H0z"/><path class="fil4" transform="rotate(-45 1503.948 -2015.443)" d="M0 0h20.85v1.83H0z"/><path class="fil4" transform="rotate(-45 1487.705 -2022.143)" d="M0 0h1.83v20.85H0z"/><path class="fil4" transform="rotate(-45 1522.078 -2059.58)" d="M0 0h20.85v1.83H0z"/><path class="fil4" transform="rotate(-45 1505.965 -2066.34)" d="M0 0h1.83v20.85H0z"/><path class="fil4" transform="rotate(-45 1584.538 -2085.455)" d="M0 0h20.85v1.83H0z"/><path class="fil4" transform="rotate(-45 1568.441 -2092.207)" d="M0 0h1.83v20.85H0z"/><path class="fil4" transform="rotate(-45 1547.95 -1997.118)" d="M0 0h20.85v1.83H0z"/><path class="fil4" transform="rotate(-45 1531.868 -2003.864)" d="M0 0h1.83v20.85H0z"/><path class="fil4" transform="rotate(-44.99 1566.73 -2041.9)" d="M0 0h20.85v1.83H0z"/><path class="fil4" transform="rotate(-45 1550.135 -2048.03)" d="M0 0h1.83v20.85H0z"/><path class="fil4" transform="rotate(-45 1628.71 -2067.144)" d="M0 0h20.85v1.83H0z"/><path class="fil4" transform="rotate(-45 1612.63 -2073.904)" d="M0 0h1.83v20.85H0z"/><path class="fil4" transform="rotate(-45 1592.114 -1978.839)" d="M0 0h20.85v1.83H0z"/><path class="fil4" transform="rotate(-45 1576.06 -1985.573)" d="M0 0h1.83v20.85H0z"/><path class="fil4" transform="rotate(-44.99 1610.927 -2023.612)" d="M0 0h20.85v1.83H0z"/><path class="fil4" transform="rotate(-45 1594.317 -2029.757)" d="M0 0h1.83v20.85H0z"/><path class="fil4" d="M1885.29 960.7h38.2l-19.11-26.38zM1885.29 929.74h38.2l-19.11-26.39zM1885.29 898.77h38.2l-19.11-26.38zM1885.29 867.8h38.2l-19.11-26.38zM1885.29 836.83h38.2l-19.11-26.36zM1885.29 805.87h38.2l-19.11-26.37zM1967.72 616.52a13.161 13.161 0 0 1-6.59 1.76c-3.27 0-6.42-1.21-8.85-3.4a8.845 8.845 0 0 0-6.12-2.46c-2.28 0-4.48.88-6.13 2.46-2.42 2.19-5.58 3.4-8.85 3.4-3.27 0-6.42-1.21-8.85-3.4a8.803 8.803 0 0 0-6.11-2.46c-2.28 0-4.47.88-6.12 2.46-2.42 2.19-5.58 3.4-8.85 3.4-3.27 0-6.42-1.21-8.85-3.4a8.827 8.827 0 0 0-6.12-2.46c-2.28 0-4.48.88-6.13 2.46a13.16 13.16 0 0 1-17.68 0 8.613 8.613 0 0 0-6.03-2.46h-.09V608h.09c3.24 0 6.36 1.22 8.75 3.41a8.792 8.792 0 0 0 6.12 2.47c2.29 0 4.48-.88 6.13-2.47 2.42-2.19 5.58-3.4 8.85-3.4 3.27 0 6.42 1.21 8.85 3.4a8.778 8.778 0 0 0 12.23 0c2.42-2.19 5.58-3.4 8.85-3.4 3.27 0 6.42 1.21 8.85 3.4a8.792 8.792 0 0 0 6.12 2.47c2.29 0 4.48-.88 6.13-2.47 2.42-2.19 5.57-3.41 8.84-3.41 3.26 0 6.42 1.22 8.84 3.41a8.792 8.792 0 0 0 6.12 2.47c2.29 0 4.48-.88 6.13-2.47.15-.14.31-.27.47-.41v5.52z"/><path class="fil0" d="m.01 32.41 162.86 248.14V37.43L138.3-.01H.01z"/><path style="fill:#002a38" d="M195.95 67.06h27.24L179.2-.01h-27.23z"/><path class="fil2" d="m295.69-.01 21.48 32.75h27.25L322.94-.01h-5.77z"/><path class="fil1" d="m230.94-.01 82.61 128.73h53.08L282.15-.01h-1.48z"/><path class="fil2" d="m195.99-.01 141.22 219.4v-53.81l-23.66-36.86L230.94-.01z"/><path style="fill:#f64523" d="m.01 99.16 25.44 38.75V-.01H.01z"/><path class="fil0" d="M52.2 454.06V268.63L.01 189.11v185.43z"/><path class="fil1" d="M.01 280.85h241.84L57.52-.01H.01z"/><path class="fil4" d="M53.39 568.19c-.1.6-.62 1.03-1.23 1.03-.42 0-.82-.22-1.05-.58L.01 491.97v-4.55l53.2 79.83c.14.2.21.44.21.68 0 .09 0 .18-.02.27l-.01-.01z"/><path class="fil3" d="M218.78 178.25c.24.35.63.56 1.05.56.25 0 .5-.08.71-.22.28-.18.47-.47.53-.8a1.197 1.197 0 0 0-.19-.95L102.99.01h-3.03l118.82 178.24zM254.35 130.33l-3.9-5.75-34.17-6.44 3.89 5.75 34.18 6.44zm28.38 41.55-3.9-5.75-34.17-6.44 3.89 5.75 34.18 6.44zm-47.29-69.25-3.89-5.75-34.18-6.44 3.9 5.75 34.17 6.44zm56.75 83.06-3.9-5.75-34.17-6.44 3.89 5.75 34.18 6.44zm-18.91-27.67-3.9-5.75-34.17-6.44 3.9 5.75 34.17 6.44zm-28.38-41.55-3.89-5.75-34.19-6.35 3.9 5.75 34.18 6.35zm18.92 27.69-3.89-5.75-34.18-6.43 3.88 5.75 34.19 6.43z"/><path class="fil4" transform="rotate(-45 1150.698 397.149)" d="M0 0h20.6v1.81H0z"/><path class="fil4" transform="rotate(-45 1134.686 390.557)" d="M0 0h1.81v20.6H0z"/><path class="fil4" transform="rotate(-45 1168.776 353.501)" d="M0 0h20.6v1.81H0z"/><path class="fil4" transform="rotate(-45 1152.778 346.91)" d="M0 0h1.81v20.6H0z"/><path class="fil4" transform="rotate(-45 1186.852 309.846)" d="M0 0h20.6v1.81H0z"/><path class="fil4" transform="rotate(-45 1170.845 303.238)" d="M0 0h1.81v20.6H0z"/><path class="fil4" transform="rotate(-45 1204.99 266.246)" d="M0 0h20.6v1.81H0z"/><path class="fil4" transform="rotate(-45 1188.93 259.608)" d="M0 0h1.81v20.6H0z"/><path class="fil4" transform="rotate(-45 1132.625 440.803)" d="M0 0h20.6v1.81H0z"/><path class="fil4" transform="rotate(-45 1116.618 434.228)" d="M0 0h1.81v20.6H0z"/><path class="fil4" transform="rotate(-45 1194.364 415.234)" d="M0 0h20.6v1.81H0z"/><path class="fil4" transform="rotate(-45 1178.35 408.641)" d="M0 0h1.81v20.6H0z"/><path class="fil4" transform="rotate(-45 1212.43 371.562)" d="M0 0h20.6v1.81H0z"/><path class="fil4" transform="rotate(-45 1196.426 364.987)" d="M0 0h1.81v20.6H0z"/><path class="fil4" transform="rotate(-45 1230.516 327.931)" d="M0 0h20.6v1.81H0z"/><path class="fil4" transform="rotate(-45 1214.51 321.322)" d="M0 0h1.81v20.6H0z"/><path class="fil4" transform="rotate(-45 1248.655 284.33)" d="M0 0h20.6v1.81H0z"/><path class="fil4" transform="rotate(-45 1232.602 277.674)" d="M0 0h1.81v20.6H0z"/><path class="fil4" transform="rotate(-45 1176.272 458.881)" d="M0 0h20.6v1.81H0z"/><path class="fil4" transform="rotate(-45 1160.273 452.288)" d="M0 0h1.81v20.6H0z"/><path class="fil4" transform="rotate(-45 1238.006 433.324)" d="M0 0h20.6v1.81H0z"/><path class="fil4" transform="rotate(-45 1222.004 426.717)" d="M0 0h1.81v20.6H0z"/><path class="fil4" transform="rotate(-45 1256.08 389.655)" d="M0 0h20.6v1.81H0z"/><path class="fil4" transform="rotate(-45 1240.078 383.062)" d="M0 0h1.81v20.6H0z"/><path class="fil4" transform="rotate(-45 1274.173 346.009)" d="M0 0h20.6v1.81H0z"/><path class="fil4" transform="rotate(-45 1258.156 339.414)" d="M0 0h1.81v20.6H0z"/><path class="fil4" transform="rotate(-45 1292.293 302.4)" d="M0 0h20.6v1.81H0z"/><path class="fil4" transform="rotate(-45 1276.248 295.767)" d="M0 0h1.81v20.6H0z"/><path class="fil4" transform="rotate(-45 1219.92 476.954)" d="M0 0h20.6v1.81H0z"/><path class="fil4" transform="rotate(-45 1203.92 470.381)" d="M0 0h1.81v20.6H0z"/><path class="fil4" transform="rotate(-45 1281.645 451.393)" d="M0 0h20.6v1.81H0z"/><path class="fil4" transform="rotate(-45 1265.666 444.8)" d="M0 0h1.81v20.6H0z"/><path class="fil4" transform="rotate(-45 1299.731 407.728)" d="M0 0h20.6v1.81H0z"/><path class="fil4" transform="rotate(-45 1283.747 401.148)" d="M0 0h1.81v20.6H0z"/><path class="fil4" transform="rotate(-45 1317.794 364.088)" d="M0 0h20.6v1.81H0z"/><path class="fil4" transform="rotate(-45 1301.833 357.485)" d="M0 0h1.81v20.6H0z"/><path class="fil4" transform="rotate(-45 1335.937 320.49)" d="M0 0h20.6v1.81H0z"/><path class="fil4" transform="rotate(-45 1319.907 313.85)" d="M0 0h1.81v20.6H0z"/><path class="fil4" transform="rotate(-45 1263.576 495.05)" d="M0 0h20.6v1.81H0z"/><path class="fil4" transform="rotate(-45 1247.58 488.464)" d="M0 0h1.81v20.6H0z"/><path class="fil4" d="M68.56 605.53H37.45L53 627.01zM68.56 630.76H37.45L53 652.24zM68.56 655.98H37.45L53 677.46zM68.56 681.19H37.45L53 702.67zM68.56 706.41H37.45L53 727.89zM68.56 731.64H37.45L53 753.12z"/><path class="fil3" d="M12.95 58.3H23.4v10.44H12.95zM38.18 58.3h10.45v10.44H38.18zM63.4 58.3h10.45v10.44H63.4zM88.62 58.3h10.45v10.44H88.62zM113.83 58.3h10.45v10.44h-10.45zM139.06 58.3h10.45v10.44h-10.45zM12.95 83.52H23.4v10.44H12.95zM38.18 83.52h10.45v10.44H38.18zM63.4 83.52h10.45v10.44H63.4zM88.62 83.52h10.45v10.44H88.62zM113.83 83.52h10.45v10.44h-10.45zM139.06 83.52h10.45v10.44h-10.45zM12.95 108.75H23.4v10.44H12.95zM38.18 108.75h10.45v10.44H38.18zM63.4 108.75h10.45v10.44H63.4zM88.62 108.75h10.45v10.44H88.62zM113.83 108.75h10.45v10.44h-10.45zM139.06 108.75h10.45v10.44h-10.45zM12.95 133.97H23.4v10.44H12.95zM38.18 133.97h10.45v10.44H38.18zM63.4 133.97h10.45v10.44H63.4zM88.62 133.97h10.45v10.44H88.62zM113.83 133.97h10.45v10.44h-10.45zM139.06 133.97h10.45v10.44h-10.45z"/><path class="fil4" d="M214.47 1083h-.09c-3.46 0-6.8-1.3-9.34-3.63a9.463 9.463 0 0 0-6.53-2.62c-2.43 0-4.77.94-6.53 2.62a14.02 14.02 0 0 1-9.42 3.63c-3.48 0-6.84-1.29-9.42-3.63a9.42 9.42 0 0 0-13.04 0 14.03 14.03 0 0 1-9.42 3.64c-3.48 0-6.84-1.3-9.42-3.64a9.415 9.415 0 0 0-6.51-2.62c-2.43 0-4.77.94-6.53 2.62a14.02 14.02 0 0 1-9.42 3.63c-3.48 0-6.84-1.29-9.42-3.63a9.42 9.42 0 0 0-13.04 0 14.026 14.026 0 0 1-9.43 3.63c-3.48 0-6.84-1.29-9.42-3.63a9.42 9.42 0 0 0-13.04 0 13.992 13.992 0 0 1-18.83 0 9.42 9.42 0 0 0-13.04 0 14.026 14.026 0 0 1-9.43 3.63c-3.48 0-6.84-1.29-9.42-3.63a9.42 9.42 0 0 0-13.04 0c-.22.2-.45.39-.68.57v-5.9c2.16-1.29 4.65-1.99 7.2-1.99 3.48 0 6.84 1.3 9.42 3.64a9.492 9.492 0 0 0 6.52 2.61c2.43 0 4.77-.94 6.53-2.61 2.57-2.34 5.93-3.64 9.41-3.64 3.48 0 6.84 1.3 9.42 3.64a9.456 9.456 0 0 0 6.52 2.61c2.43 0 4.76-.94 6.52-2.61a14.03 14.03 0 0 1 9.42-3.64c3.48 0 6.84 1.3 9.42 3.64a9.492 9.492 0 0 0 6.52 2.61c2.43 0 4.77-.94 6.52-2.61 2.58-2.34 5.94-3.64 9.43-3.64 3.48 0 6.84 1.3 9.42 3.64a9.456 9.456 0 0 0 6.52 2.61c2.43 0 4.77-.94 6.52-2.61a14.03 14.03 0 0 1 9.42-3.64c3.48 0 6.84 1.3 9.41 3.64a9.492 9.492 0 0 0 6.52 2.61c2.43 0 4.77-.94 6.53-2.61 2.57-2.34 5.93-3.64 9.42-3.64 3.48 0 6.84 1.3 9.42 3.64a9.453 9.453 0 0 0 6.53 2.61c2.43 0 4.77-.93 6.52-2.61 2.59-2.34 5.95-3.63 9.43-3.63 3.48 0 6.84 1.29 9.42 3.63a9.473 9.473 0 0 0 6.53 2.63c2.43 0 4.77-.95 6.53-2.63 2.54-2.33 5.87-3.63 9.33-3.63h.08v4.7c-.03.01-.06.01-.09.01-2.4 0-4.71.94-6.43 2.61a13.81 13.81 0 0 1-9.32 3.62h-.1z"/></g></g></g></g></svg>