<svg xmlns="http://www.w3.org/2000/svg" viewBox="0 0 766.52 455.43"><defs><style>.cls-2{opacity:.2}.cls-3{fill:#cea186}.cls-4{fill:#ff7b26}.cls-12,.cls-5{fill:#184899}.cls-6,.cls-72{fill:#24c7ed}.cls-15,.cls-8{fill:#fff}.cls-8{opacity:.72;mix-blend-mode:soft-light}.cls-62,.cls-67,.cls-9,.cls-91{opacity:.1}.cls-10{fill:#ffce05}.cls-11{fill:#f1f2f2}.cls-12,.cls-21,.cls-72{stroke:#fff}.cls-12,.cls-21,.cls-33,.cls-43,.cls-72{stroke-miterlimit:10}.cls-12{stroke-width:3.18px}.cls-21,.cls-48{fill:#f29120}.cls-18{fill:#3f2e18}.cls-19{fill:#e5a173}.cls-20{fill:#f2af81}.cls-21{stroke-width:1.06px}.cls-22{fill:#dbcc8f}.cls-24{fill:#3c3c3b}.cls-25,.cls-65{opacity:.05}.cls-26{fill:#e5d79c}.cls-27{opacity:.04}.cls-28{fill:#282f42}.cls-30{fill:#ffb380}.cls-31{fill:#083b84}.cls-32{fill:#dce8ef}.cls-33,.cls-43{fill:none;stroke:#e6e7e8;stroke-linecap:round}.cls-33{stroke-width:.68px}.cls-34{fill:#2e364d}.cls-35{fill:#323233}.cls-37{fill:#e5772c}.cls-38{fill:#f4ab7a}.cls-42{fill:#f4c542}.cls-43{stroke-width:.61px}.cls-44{fill:#da4a46}.cls-45{fill:#f7a56d}.cls-47{fill:#bcbec0}.cls-51{fill:#c68958}.cls-52{fill:#102a35}.cls-62,.cls-65{fill:#231f20}.cls-56{fill:#1559aa}.cls-62,.cls-65{mix-blend-mode:multiply}.cls-63{fill:#86cfef}.cls-66{fill:#f2c99e}.cls-67{fill:#8b5e3c}.cls-68{fill:#a4dfff}.cls-72{stroke-width:1.35px}.cls-78{fill:#5b432e}.cls-80{fill:#e3ba8f}.cls-81{fill:#e8a114}.cls-82{fill:#e2e3e3}.cls-86{fill:#d89832}.cls-87{fill:#e0b885}.cls-88{fill:#2d2d2b}.cls-89{fill:#232322}.cls-90{fill:#5e443f}.cls-91{fill:#ba6536}.cls-93{fill:#e6b289}.cls-97{fill:#d89c73}.cls-95{fill:#e8e6a3}</style></defs><g style="isolation:isolate"><g id="Layer_2" data-name="Layer 2"><g id="Layer_1-2" data-name="Layer 1"><g class="cls-2"><path class="cls-3" d="M665.57 81.24a.64.64 0 0 1-.64.64.64.64 0 1 1 0-1.28.64.64 0 0 1 .64.64zM670.7 76.38a.91.91 0 1 1-.91-.91.91.91 0 0 1 .91.91zM675.83 71.52a1.18 1.18 0 1 1-1.18-1.18 1.18 1.18 0 0 1 1.18 1.18z"/><path class="cls-4" d="M681 66.67a1.46 1.46 0 1 1-1.46-1.46 1.46 1.46 0 0 1 1.46 1.46zM686.1 61.81a1.73 1.73 0 1 1-1.73-1.74 1.74 1.74 0 0 1 1.73 1.74zM691.23 57a2 2 0 1 1-2-2 2 2 0 0 1 2 2zM696.36 52.09a2.28 2.28 0 1 1-2.27-2.28 2.28 2.28 0 0 1 2.27 2.28zM701.49 47.23a2.55 2.55 0 1 1-2.55-2.55 2.55 2.55 0 0 1 2.55 2.55zM706.63 42.37a2.83 2.83 0 1 1-2.83-2.82 2.83 2.83 0 0 1 2.83 2.82zM711.76 37.51a3.1 3.1 0 1 1-3.1-3.1 3.1 3.1 0 0 1 3.1 3.1z"/><path class="cls-4" d="M716.89 32.65a3.37 3.37 0 1 1-3.37-3.37 3.37 3.37 0 0 1 3.37 3.37z"/><path class="cls-4" d="M722 27.79a3.65 3.65 0 1 1-3.64-3.64 3.64 3.64 0 0 1 3.64 3.64z"/><path class="cls-3" d="M664.12 80a.64.64 0 0 1-1.23.33.64.64 0 1 1 1.23-.33zM667.82 74a.91.91 0 0 1-.64 1.12.92.92 0 0 1-1.12-.65.91.91 0 0 1 1.76-.47zM671.52 67.94a1.18 1.18 0 1 1-1.45-.84 1.18 1.18 0 0 1 1.45.84zM675.22 61.92a1.45 1.45 0 1 1-1.78-1 1.44 1.44 0 0 1 1.78 1zM678.92 55.9a1.73 1.73 0 1 1-2.12-1.23 1.73 1.73 0 0 1 2.12 1.23zM682.62 49.88a2 2 0 1 1-2.45-1.42 2 2 0 0 1 2.45 1.42zM686.32 43.86a2.28 2.28 0 0 1-4.4 1.17 2.28 2.28 0 1 1 4.4-1.17zM690 37.83a2.55 2.55 0 1 1-3.1-1.83 2.55 2.55 0 0 1 3.1 1.83zM693.72 31.81a2.82 2.82 0 1 1-3.46-2 2.82 2.82 0 0 1 3.46 2zM697.42 25.79a3.1 3.1 0 1 1-3.79-2.19 3.09 3.09 0 0 1 3.79 2.19z"/><path class="cls-3" d="M701.12 19.77a3.37 3.37 0 1 1-4.12-2.38 3.37 3.37 0 0 1 4.12 2.38z"/><path class="cls-3" d="M704.82 13.75a3.64 3.64 0 1 1-4.46-2.58 3.64 3.64 0 0 1 4.46 2.58zM662.4 79.14a.64.64 0 1 1-.87-.23.64.64 0 0 1 .87.23zM664.42 72.37a.91.91 0 1 1-1.58.91.91.91 0 0 1 .34-1.24.89.89 0 0 1 1.24.33zM666.43 65.6a1.18 1.18 0 0 1-2 1.18 1.18 1.18 0 1 1 2-1.18z"/><path class="cls-4" d="M668.45 58.82a1.46 1.46 0 1 1-2-.53 1.46 1.46 0 0 1 2 .53zM670.47 52.05a1.73 1.73 0 1 1-2.37-.64 1.73 1.73 0 0 1 2.37.64zM672.48 45.27a2 2 0 1 1-2.74-.73 2 2 0 0 1 2.74.73zM674.49 38.5a2.28 2.28 0 1 1-3.11-.83 2.27 2.27 0 0 1 3.11.83zM676.51 31.73a2.55 2.55 0 1 1-3.48-.94 2.55 2.55 0 0 1 3.48.94zM678.53 25a2.83 2.83 0 1 1-3.86-1 2.84 2.84 0 0 1 3.86 1zM680.54 18.18a3.1 3.1 0 1 1-4.23-1.18 3.09 3.09 0 0 1 4.23 1.18z"/><path class="cls-4" d="M682.55 11.41a3.37 3.37 0 1 1-4.6-1.24 3.36 3.36 0 0 1 4.6 1.24z"/><path class="cls-4" d="M684.57 4.63a3.64 3.64 0 1 1-5-1.33 3.65 3.65 0 0 1 5 1.33z"/><path class="cls-3" d="M660.52 78.78a.64.64 0 1 1-.9 0 .63.63 0 0 1 .9 0zM660.72 71.71a.92.92 0 0 1 0 1.29.91.91 0 0 1-1.29-1.29.92.92 0 0 1 1.29 0zM660.91 64.65a1.18 1.18 0 0 1 0 1.67 1.18 1.18 0 0 1-1.67-1.67 1.18 1.18 0 0 1 1.67 0zM661.1 57.58a1.46 1.46 0 1 1-2.06 0 1.47 1.47 0 0 1 2.06 0zM661.3 50.52a1.73 1.73 0 1 1-2.45 2.48 1.73 1.73 0 0 1 2.45-2.45zM661.49 43.45a2 2 0 1 1-2.83 0 2 2 0 0 1 2.83 0zM661.68 36.39a2.28 2.28 0 1 1-3.22 0 2.28 2.28 0 0 1 3.22 0zM661.88 29.33a2.55 2.55 0 1 1-3.61 0 2.55 2.55 0 0 1 3.61 0zM662.07 22.26a2.82 2.82 0 1 1-4 0 2.84 2.84 0 0 1 4 0zM662.26 15.2a3.1 3.1 0 1 1-4.38 0 3.1 3.1 0 0 1 4.38 0z"/><path class="cls-3" d="M662.46 8.13a3.37 3.37 0 1 1-4.77 0 3.39 3.39 0 0 1 4.77 0z"/><path class="cls-3" d="M662.65 1.07a3.64 3.64 0 1 1-5.15 0 3.65 3.65 0 0 1 5.15 0zM658.61 78.91A.64.64 0 1 1 658 80a.65.65 0 0 1-.24-.88.64.64 0 0 1 .85-.21zM657 72a.91.91 0 1 1-1.24.33A.89.89 0 0 1 657 72z"/><path class="cls-4" d="M655.33 65.16a1.19 1.19 0 1 1-1.62.44 1.19 1.19 0 0 1 1.62-.44zM653.69 58.29a1.46 1.46 0 1 1-2 .53 1.45 1.45 0 0 1 2-.53zM652.05 51.41a1.73 1.73 0 1 1-2.37.64 1.73 1.73 0 0 1 2.37-.64zM650.41 44.54a2 2 0 1 1-2.74.73 2 2 0 0 1 2.74-.73zM648.76 37.67a2.27 2.27 0 1 1-3.11.83 2.28 2.28 0 0 1 3.11-.83zM647.12 30.79a2.55 2.55 0 1 1-3.48.94 2.55 2.55 0 0 1 3.48-.94zM645.48 23.92a2.82 2.82 0 1 1-3.86 1 2.83 2.83 0 0 1 3.86-1zM643.84 17a3.1 3.1 0 1 1-4.23 1.14 3.1 3.1 0 0 1 4.23-1.14z"/><path class="cls-4" d="M642.19 10.17a3.37 3.37 0 1 1-4.6 1.24 3.37 3.37 0 0 1 4.6-1.24z"/><path class="cls-4" d="M640.55 3.3a3.64 3.64 0 1 1-5 1.33 3.64 3.64 0 0 1 5-1.33z"/><path class="cls-3" d="M656.8 79.53a.64.64 0 0 1 .45.78A.64.64 0 1 1 656 80a.64.64 0 0 1 .8-.47zM653.44 73.32a.91.91 0 1 1-1.12.64.91.91 0 0 1 1.12-.64zM650.07 67.1a1.18 1.18 0 1 1-1.45.84 1.19 1.19 0 0 1 1.45-.84z"/><path class="cls-4" d="M646.71 60.89a1.46 1.46 0 1 1-1.79 1 1.46 1.46 0 0 1 1.79-1zM643.34 54.67a1.73 1.73 0 1 1-2.12 1.23 1.74 1.74 0 0 1 2.12-1.23zM640 48.46a2 2 0 1 1-2.46 1.42 2 2 0 0 1 2.46-1.42z"/><path class="cls-3" d="M636.61 42.24a2.28 2.28 0 1 1-2.79 1.62 2.27 2.27 0 0 1 2.79-1.62zM633.25 36a2.55 2.55 0 0 1-1.32 5 2.55 2.55 0 1 1 1.32-5zM629.88 29.81a2.83 2.83 0 1 1-3.46 2 2.83 2.83 0 0 1 3.46-2zM626.52 23.6a3.1 3.1 0 1 1-3.8 2.19 3.1 3.1 0 0 1 3.8-2.19zM623.15 17.39a3.37 3.37 0 1 1-4.15 2.38 3.37 3.37 0 0 1 4.15-2.38z"/><path class="cls-3" d="M619.79 11.17a3.64 3.64 0 1 1-4.47 2.58 3.64 3.64 0 0 1 4.47-2.58zM655.21 80.6a.64.64 0 1 1-.63.64.64.64 0 0 1 .63-.64zM650.36 75.47a.91.91 0 1 1-.92.91.91.91 0 0 1 .92-.91z"/><path class="cls-4" d="M645.5 70.34a1.19 1.19 0 1 1-1.19 1.18 1.18 1.18 0 0 1 1.19-1.18zM640.64 65.21a1.46 1.46 0 1 1-1.46 1.46 1.46 1.46 0 0 1 1.46-1.46zM635.78 60.07a1.74 1.74 0 1 1-1.73 1.74 1.73 1.73 0 0 1 1.73-1.74zM630.92 54.94a2 2 0 1 1-2 2 2 2 0 0 1 2-2zM626.06 49.81a2.28 2.28 0 1 1-2.28 2.28 2.28 2.28 0 0 1 2.28-2.28zM621.2 44.68a2.55 2.55 0 1 1-2.55 2.55 2.55 2.55 0 0 1 2.55-2.55zM616.35 39.55a2.82 2.82 0 1 1-2.83 2.82 2.82 2.82 0 0 1 2.83-2.82zM611.49 34.41a3.1 3.1 0 1 1-3.1 3.1 3.09 3.09 0 0 1 3.1-3.1z"/><path class="cls-4" d="M606.63 29.28a3.37 3.37 0 1 1-3.37 3.37 3.37 3.37 0 0 1 3.37-3.37z"/><path class="cls-4" d="M601.77 24.15a3.65 3.65 0 1 1-3.65 3.64 3.64 3.64 0 0 1 3.65-3.64z"/><path class="cls-3" d="M654 82.05a.64.64 0 1 1-.45.78.64.64 0 0 1 .45-.78zM647.94 78.35a.91.91 0 1 1-.65 1.11.91.91 0 0 1 .65-1.11zM641.91 74.65a1.19 1.19 0 1 1-.83 1.45 1.18 1.18 0 0 1 .83-1.45zM635.89 71a1.46 1.46 0 1 1-1 1.78 1.46 1.46 0 0 1 1-1.78zM629.87 67.25a1.73 1.73 0 1 1-1.22 2.12 1.73 1.73 0 0 1 1.22-2.12zM623.85 63.55a2 2 0 1 1-1.42 2.45 2 2 0 0 1 1.42-2.45zM617.83 59.85a2.28 2.28 0 1 1-1.61 2.79 2.28 2.28 0 0 1 1.61-2.79zM611.81 56.15a2.55 2.55 0 1 1-1.81 3.13 2.55 2.55 0 0 1 1.81-3.13zM605.78 52.45a2.83 2.83 0 1 1-2 3.46 2.82 2.82 0 0 1 2-3.46zM599.76 48.75a3.1 3.1 0 1 1-2.19 3.8 3.11 3.11 0 0 1 2.19-3.8z"/><path class="cls-3" d="M593.74 45.05a3.37 3.37 0 1 1-2.38 4.13 3.37 3.37 0 0 1 2.38-4.13z"/><path class="cls-3" d="M587.72 41.35a3.64 3.64 0 1 1-2.58 4.46 3.64 3.64 0 0 1 2.58-4.46zM653.12 83.77a.64.64 0 1 1-.24.87.64.64 0 0 1 .24-.87z"/><path class="cls-4" d="M646.34 81.75A.91.91 0 1 1 646 83a.92.92 0 0 1 .34-1.25zM639.57 79.74a1.18 1.18 0 1 1 1.18 2.05 1.18 1.18 0 0 1-1.18-2.05zM632.8 77.72a1.46 1.46 0 1 1-.54 2 1.46 1.46 0 0 1 .54-2zM626 75.71a1.73 1.73 0 1 1-.63 2.36 1.72 1.72 0 0 1 .63-2.36zM619.25 73.69a2 2 0 1 1-.74 2.74 2 2 0 0 1 .74-2.74zM612.47 71.68a2.28 2.28 0 1 1-.83 3.11 2.29 2.29 0 0 1 .83-3.11zM605.7 69.66a2.55 2.55 0 1 1-.93 3.49 2.55 2.55 0 0 1 .93-3.49zM598.93 67.65a2.82 2.82 0 1 1-1 3.86 2.81 2.81 0 0 1 1-3.86zM592.15 65.63a3.1 3.1 0 1 1-1.15 4.23 3.09 3.09 0 0 1 1.15-4.23z"/><path class="cls-4" d="M585.38 63.62a3.37 3.37 0 1 1-1.23 4.6 3.37 3.37 0 0 1 1.23-4.6z"/><path class="cls-4" d="M578.6 61.6a3.64 3.64 0 1 1-1.33 5 3.64 3.64 0 0 1 1.33-5z"/><path class="cls-3" d="M652.75 85.65a.64.64 0 1 1 0 .9.63.63 0 0 1 0-.9zM645.69 85.46a.89.89 0 0 1 1.28 0 .91.91 0 1 1-1.28 0zM638.62 85.26a1.19 1.19 0 1 1 0 1.68 1.2 1.2 0 0 1 0-1.68zM631.56 85.07a1.46 1.46 0 1 1 0 2.06 1.45 1.45 0 0 1 0-2.06zM624.49 84.88a1.73 1.73 0 1 1 0 2.44 1.73 1.73 0 0 1 0-2.44zM617.43 84.68a2 2 0 1 1 0 2.84 2 2 0 0 1 0-2.84zM610.36 84.49a2.28 2.28 0 1 1 0 3.22 2.28 2.28 0 0 1 0-3.22zM603.3 84.3a2.55 2.55 0 1 1 0 3.6 2.55 2.55 0 0 1 0-3.6zM596.23 84.1a2.83 2.83 0 1 1 0 4 2.84 2.84 0 0 1 0-4zM589.17 83.91a3.1 3.1 0 1 1 0 4.38 3.1 3.1 0 0 1 0-4.38z"/><path class="cls-3" d="M582.1 83.72a3.37 3.37 0 1 1 0 4.76 3.37 3.37 0 0 1 0-4.76z"/><path class="cls-3" d="M575 83.52a3.65 3.65 0 1 1 0 5.16 3.65 3.65 0 0 1 0-5.16zM652.88 87.56a.64.64 0 1 1 .24.87.64.64 0 0 1-.24-.87zM646 89.2a.92.92 0 0 1 1.25-.33.91.91 0 0 1-.92 1.58.92.92 0 0 1-.33-1.25zM639.14 90.84a1.19 1.19 0 0 1 2.05 1.16 1.19 1.19 0 0 1-2.05-1.19z"/><path class="cls-4" d="M632.26 92.48a1.46 1.46 0 1 1 .54 2 1.46 1.46 0 0 1-.54-2zM625.39 94.13a1.73 1.73 0 1 1 .63 2.36 1.73 1.73 0 0 1-.63-2.36zM618.51 95.77a2 2 0 1 1 .74 2.74 2 2 0 0 1-.74-2.74zM611.64 97.41a2.28 2.28 0 1 1 .83 3.11 2.27 2.27 0 0 1-.83-3.11zM604.77 99.05a2.55 2.55 0 1 1 .93 3.48 2.54 2.54 0 0 1-.93-3.48zM597.89 100.69a2.82 2.82 0 1 1 1 3.86 2.83 2.83 0 0 1-1-3.86zM591 102.33a3.1 3.1 0 1 1 1.13 4.24 3.1 3.1 0 0 1-1.13-4.24z"/><path class="cls-4" d="M584.15 104a3.37 3.37 0 1 1 1.23 4.6 3.36 3.36 0 0 1-1.23-4.6z"/><path class="cls-4" d="M577.27 105.62a3.64 3.64 0 1 1 1.33 5 3.66 3.66 0 0 1-1.33-5z"/><path class="cls-3" d="M653.51 89.37a.64.64 0 1 1 .45.78.64.64 0 0 1-.45-.78zM647.29 92.74a.91.91 0 1 1 .65 1.11.91.91 0 0 1-.65-1.11zM641.08 96.1a1.18 1.18 0 1 1 2.28.61 1.18 1.18 0 1 1-2.28-.61zM634.86 99.47a1.46 1.46 0 1 1 1 1.78 1.47 1.47 0 0 1-1-1.78zM628.65 102.83a1.73 1.73 0 1 1 1.22 2.12 1.72 1.72 0 0 1-1.22-2.12zM622.43 106.2a2 2 0 1 1 1.42 2.45 2 2 0 0 1-1.42-2.45zM616.22 109.56a2.28 2.28 0 1 1 1.61 2.79 2.27 2.27 0 0 1-1.61-2.79zM610 112.92a2.55 2.55 0 1 1 1.81 3.13 2.56 2.56 0 0 1-1.81-3.13zM603.79 116.29a2.82 2.82 0 1 1 2 3.46 2.82 2.82 0 0 1-2-3.46zM597.57 119.65a3.1 3.1 0 1 1 2.19 3.8 3.11 3.11 0 0 1-2.19-3.8z"/><path class="cls-3" d="M591.36 123a3.37 3.37 0 1 1 2.38 4.13 3.36 3.36 0 0 1-2.38-4.13z"/><path class="cls-3" d="M585.14 126.38a3.64 3.64 0 1 1 2.58 4.47 3.65 3.65 0 0 1-2.58-4.47zM654.58 91a.64.64 0 1 1 .63.64.64.64 0 0 1-.63-.64zM649.44 95.82a.92.92 0 1 1 .92.91.92.92 0 0 1-.92-.91zM644.31 100.68a1.19 1.19 0 1 1 1.19 1.18 1.19 1.19 0 0 1-1.19-1.18z"/><path class="cls-4" d="M639.18 105.53a1.46 1.46 0 1 1 1.46 1.46 1.45 1.45 0 0 1-1.46-1.46zM634.05 110.39a1.73 1.73 0 1 1 1.73 1.73 1.73 1.73 0 0 1-1.73-1.73zM628.92 115.25a2 2 0 1 1 2 2 2 2 0 0 1-2-2zM623.78 120.11a2.28 2.28 0 1 1 2.28 2.28 2.28 2.28 0 0 1-2.28-2.28zM618.65 125a2.55 2.55 0 1 1 2.55 2.55 2.55 2.55 0 0 1-2.55-2.55zM613.52 129.83a2.83 2.83 0 1 1 2.83 2.82 2.83 2.83 0 0 1-2.83-2.82zM608.39 134.69a3.1 3.1 0 1 1 3.1 3.09 3.1 3.1 0 0 1-3.1-3.09z"/><path class="cls-4" d="M603.26 139.54a3.37 3.37 0 1 1 3.37 3.38 3.37 3.37 0 0 1-3.37-3.38z"/><path class="cls-4" d="M598.12 144.4a3.65 3.65 0 1 1 3.65 3.65 3.65 3.65 0 0 1-3.65-3.65z"/><path class="cls-3" d="M656 92.22a.65.65 0 0 1 .45-.79.64.64 0 1 1-.45.79zM652.32 98.24a.91.91 0 1 1 1.12.64.91.91 0 0 1-1.12-.64zM648.62 104.26a1.19 1.19 0 1 1 1.45.83 1.17 1.17 0 0 1-1.45-.83zM644.92 110.28a1.46 1.46 0 1 1 1.79 1 1.47 1.47 0 0 1-1.79-1zM641.22 116.3a1.73 1.73 0 1 1 2.12 1.23 1.73 1.73 0 0 1-2.12-1.23zM637.52 122.32a2 2 0 1 1 2.46 1.42 2 2 0 0 1-2.46-1.42zM633.82 128.35a2.28 2.28 0 1 1 4.4-1.18 2.28 2.28 0 0 1-4.4 1.18zM630.12 134.36a2.55 2.55 0 1 1 3.13 1.81 2.56 2.56 0 0 1-3.13-1.81zM626.42 140.39a2.83 2.83 0 1 1 3.46 2 2.82 2.82 0 0 1-3.46-2zM622.72 146.41a3.1 3.1 0 1 1 3.8 2.19 3.1 3.1 0 0 1-3.8-2.19z"/><path class="cls-3" d="M619 152.43a3.38 3.38 0 1 1 4.13 2.38 3.37 3.37 0 0 1-4.13-2.38z"/><path class="cls-3" d="M615.32 158.45a3.64 3.64 0 1 1 4.47 2.58 3.66 3.66 0 0 1-4.47-2.58zM657.74 93.06a.65.65 0 0 1 .24-.88.64.64 0 1 1-.24.88zM655.73 99.83a.91.91 0 1 1 1.24.33.9.9 0 0 1-1.24-.33zM653.71 106.6a1.18 1.18 0 1 1 2-1.18 1.18 1.18 0 0 1-.43 1.62 1.19 1.19 0 0 1-1.57-.44z"/><path class="cls-4" d="M651.7 113.38a1.46 1.46 0 1 1 2 .53 1.46 1.46 0 0 1-2-.53zM649.68 120.15a1.73 1.73 0 1 1 2.37.63 1.72 1.72 0 0 1-2.37-.63zM647.67 126.92a2 2 0 0 1 3.47-2 2 2 0 1 1-3.47 2zM645.65 133.7a2.28 2.28 0 1 1 3.11.83 2.27 2.27 0 0 1-3.11-.83zM643.64 140.47a2.55 2.55 0 1 1 3.48.93 2.54 2.54 0 0 1-3.48-.93zM641.62 147.25a2.82 2.82 0 1 1 3.86 1 2.84 2.84 0 0 1-3.86-1zM639.61 154a3.1 3.1 0 1 1 4.23 1.13 3.09 3.09 0 0 1-4.23-1.13zM637.59 160.79a3.37 3.37 0 1 1 4.6 1.24 3.36 3.36 0 0 1-4.6-1.24z"/><path class="cls-4" d="M635.58 167.57a3.64 3.64 0 1 1 5 1.33 3.65 3.65 0 0 1-5-1.33z"/><path class="cls-3" d="M659.62 93.42a.64.64 0 1 1 .9 0 .63.63 0 0 1-.9 0zM659.43 100.49a.91.91 0 0 1 1.29-1.29.91.91 0 1 1-1.29 1.29z"/><circle class="cls-3" cx="660.07" cy="106.71" r="1.18"/><path class="cls-3" d="M659 114.61a1.45 1.45 0 1 1 2.06 0 1.44 1.44 0 0 1-2.06 0zM658.85 121.68a1.73 1.73 0 0 1 0-2.45 1.73 1.73 0 1 1 2.45 2.45 1.73 1.73 0 0 1-2.45 0zM658.66 128.74a2 2 0 1 1 2.83 0 2 2 0 0 1-2.83 0zM658.46 135.81a2.28 2.28 0 1 1 3.22 0 2.28 2.28 0 0 1-3.22 0zM658.27 142.87a2.55 2.55 0 1 1 3.61 0 2.54 2.54 0 0 1-3.61 0zM658.08 149.94a2.82 2.82 0 1 1 4 0 2.82 2.82 0 0 1-4 0zM657.88 157a3.1 3.1 0 1 1 4.38 0 3.1 3.1 0 0 1-4.38 0z"/><path class="cls-3" d="M657.69 164.07a3.37 3.37 0 1 1 4.77 0 3.37 3.37 0 0 1-4.77 0z"/><path class="cls-3" d="M657.5 171.13a3.64 3.64 0 1 1 5.15 0 3.63 3.63 0 0 1-5.15 0zM661.53 93.29a.64.64 0 1 1 .87-.23.64.64 0 0 1-.87.23zM663.17 100.16a.91.91 0 1 1 1.25-.33.91.91 0 0 1-1.25.33zM664.82 107a1.19 1.19 0 1 1 1.61-.44 1.19 1.19 0 0 1-1.61.44z"/><path class="cls-4" d="M666.46 113.91a1.46 1.46 0 1 1 2-.53 1.46 1.46 0 0 1-2 .53zM668.1 120.78a1.73 1.73 0 1 1 2.36-.63 1.72 1.72 0 0 1-2.36.63zM669.74 127.66a2 2 0 1 1 2.74-.74 2 2 0 0 1-2.74.74zM671.38 134.53a2.28 2.28 0 1 1 3.11-.83 2.28 2.28 0 0 1-3.11.83zM673 141.4a2.55 2.55 0 1 1 3.48-.93 2.54 2.54 0 0 1-3.48.93zM674.67 148.28a2.82 2.82 0 1 1 3.86-1 2.82 2.82 0 0 1-3.86 1zM676.31 155.15a3.1 3.1 0 1 1 4.23-1.13 3.09 3.09 0 0 1-4.23 1.13z"/><path class="cls-4" d="M678 162a3.37 3.37 0 1 1 4.6-1.24A3.38 3.38 0 0 1 678 162z"/><path class="cls-4" d="M679.59 168.9a3.64 3.64 0 1 1 5-1.33 3.64 3.64 0 0 1-5 1.33z"/><path class="cls-3" d="M663.34 92.67a.64.64 0 0 1 .33-1.24.64.64 0 0 1 .45.79.64.64 0 0 1-.78.45zM666.71 98.88a.91.91 0 0 1-.65-1.11.92.92 0 0 1 1.12-.65.91.91 0 0 1-.47 1.76zM670.07 105.09a1.18 1.18 0 0 1 .62-2.28 1.18 1.18 0 0 1 .83 1.45 1.17 1.17 0 0 1-1.45.83zM673.44 111.31a1.46 1.46 0 1 1 1.78-1 1.45 1.45 0 0 1-1.78 1zM676.8 117.53a1.73 1.73 0 1 1 2.12-1.23 1.73 1.73 0 0 1-2.12 1.23zM680.17 123.74a2 2 0 1 1 2.45-1.42 2 2 0 0 1-2.45 1.42zM683.53 130a2.28 2.28 0 1 1 2.79-1.6 2.28 2.28 0 0 1-2.79 1.6zM686.9 136.17a2.55 2.55 0 1 1 3.12-1.81 2.56 2.56 0 0 1-3.12 1.81zM690.26 142.38a2.82 2.82 0 1 1 3.46-2 2.81 2.81 0 0 1-3.46 2zM693.63 148.6a3.1 3.1 0 1 1 3.79-2.19 3.1 3.1 0 0 1-3.79 2.19z"/><path class="cls-3" d="M697 154.81a3.37 3.37 0 1 1 4.13-2.38 3.37 3.37 0 0 1-4.13 2.38z"/><path class="cls-3" d="M700.36 161a3.64 3.64 0 1 1 4.46-2.58 3.64 3.64 0 0 1-4.46 2.58zM664.93 91.6a.64.64 0 1 1 0-1.28.64.64 0 1 1 0 1.28zM669.79 96.73a.91.91 0 1 1 .91-.91.91.91 0 0 1-.91.91zM674.65 101.86a1.19 1.19 0 1 1 1.18-1.18 1.18 1.18 0 0 1-1.18 1.18z"/><path class="cls-4" d="M679.51 107a1.46 1.46 0 1 1 1.46-1.46 1.46 1.46 0 0 1-1.46 1.46zM684.37 112.12a1.73 1.73 0 1 1 1.73-1.73 1.72 1.72 0 0 1-1.73 1.73zM689.23 117.26a2 2 0 1 1 2-2 2 2 0 0 1-2 2zM694.09 122.39a2.28 2.28 0 1 1 2.27-2.28 2.28 2.28 0 0 1-2.27 2.28zM698.94 127.52a2.55 2.55 0 1 1 2.55-2.55 2.55 2.55 0 0 1-2.55 2.55zM703.8 132.65a2.83 2.83 0 1 1 2.83-2.82 2.82 2.82 0 0 1-2.83 2.82zM708.66 137.78a3.1 3.1 0 1 1 3.1-3.09 3.09 3.09 0 0 1-3.1 3.09z"/><path class="cls-4" d="M713.52 142.92a3.38 3.38 0 1 1 3.37-3.37 3.37 3.37 0 0 1-3.37 3.37z"/><path class="cls-4" d="M718.38 148.05a3.65 3.65 0 1 1 3.62-3.65 3.65 3.65 0 0 1-3.62 3.65z"/><path class="cls-3" d="M666.19 90.15a.64.64 0 1 1 .45-.78.64.64 0 0 1-.45.78zM672.21 93.85a.91.91 0 1 1-.47-1.76.91.91 0 0 1 .47 1.76zM678.23 97.55a1.18 1.18 0 1 1 .84-1.45 1.18 1.18 0 0 1-.84 1.45zM684.25 101.25a1.46 1.46 0 1 1 1-1.78 1.45 1.45 0 0 1-1 1.78zM690.28 105a1.73 1.73 0 1 1 1.22-2.12 1.72 1.72 0 0 1-1.22 2.12zM696.3 108.65a2 2 0 1 1-1-3.87 2 2 0 0 1 1 3.87zM702.32 112.35a2.28 2.28 0 1 1 1.61-2.79 2.27 2.27 0 0 1-1.61 2.79zM708.34 116.05a2.55 2.55 0 1 1 1.8-3.13 2.56 2.56 0 0 1-1.8 3.13zM714.36 119.75a2.83 2.83 0 1 1 2-3.46 2.83 2.83 0 0 1-2 3.46zM720.38 123.45a3.1 3.1 0 1 1 2.19-3.8 3.1 3.1 0 0 1-2.19 3.8z"/><path class="cls-3" d="M726.4 127.15a3.37 3.37 0 1 1 2.39-4.13 3.38 3.38 0 0 1-2.39 4.13z"/><path class="cls-3" d="M732.43 130.85a3.64 3.64 0 1 1 2.57-4.47 3.65 3.65 0 0 1-2.57 4.47zM667 88.43a.64.64 0 0 1-.64-1.1.64.64 0 1 1 .64 1.1zM673.8 90.45a.91.91 0 0 1-.91-1.58.91.91 0 1 1 .91 1.58zM680.58 92.46a1.19 1.19 0 1 1 .43-1.62 1.19 1.19 0 0 1-.43 1.62z"/><path class="cls-4" d="M687.35 94.48a1.46 1.46 0 1 1 .53-2 1.46 1.46 0 0 1-.53 2zM694.13 96.49a1.73 1.73 0 1 1 .63-2.36 1.73 1.73 0 0 1-.63 2.36zM700.9 98.51a2 2 0 1 1 .73-2.74 2 2 0 0 1-.73 2.74zM707.67 100.52a2.27 2.27 0 1 1 .84-3.11 2.27 2.27 0 0 1-.84 3.11zM714.45 102.54a2.55 2.55 0 1 1 .93-3.49 2.56 2.56 0 0 1-.93 3.49zM721.22 104.55a2.82 2.82 0 1 1 1-3.86 2.83 2.83 0 0 1-1 3.86zM728 106.57a3.1 3.1 0 1 1 1.14-4.24 3.11 3.11 0 0 1-1.14 4.24z"/><path class="cls-4" d="M734.77 108.58A3.37 3.37 0 1 1 736 104a3.38 3.38 0 0 1-1.23 4.58z"/><path class="cls-4" d="M741.54 110.6a3.65 3.65 0 1 1 1.34-5 3.65 3.65 0 0 1-1.34 5z"/><path class="cls-3" d="M667.4 86.55a.65.65 0 0 1-.91 0 .65.65 0 0 1 0-.9.65.65 0 0 1 .91 0 .65.65 0 0 1 0 .9zM674.46 86.75a.91.91 0 0 1-1.29-1.29.91.91 0 1 1 1.29 1.29zM681.52 86.94a1.18 1.18 0 0 1-1.67 0 1.2 1.2 0 0 1 0-1.68 1.18 1.18 0 0 1 1.67 1.68zM688.59 87.13a1.46 1.46 0 1 1 0-2.06 1.45 1.45 0 0 1 0 2.06zM695.65 87.32a1.73 1.73 0 1 1 0-2.44 1.71 1.71 0 0 1 0 2.44zM702.72 87.52a2 2 0 1 1 0-2.84 2 2 0 0 1 0 2.84zM709.78 87.71a2.28 2.28 0 1 1 0-3.22 2.28 2.28 0 0 1 0 3.22zM716.85 87.9a2.55 2.55 0 1 1 0-3.6 2.55 2.55 0 0 1 0 3.6zM723.91 88.1a2.82 2.82 0 1 1 0-4 2.82 2.82 0 0 1 0 4zM731 88.29a3.1 3.1 0 1 1 0-4.38 3.1 3.1 0 0 1 0 4.38z"/><path class="cls-3" d="M738 88.48a3.37 3.37 0 1 1 0-4.76 3.37 3.37 0 0 1 0 4.76z"/><path class="cls-3" d="M745.11 88.68a3.65 3.65 0 1 1 0-5.16 3.66 3.66 0 0 1 0 5.16zM667.26 84.64a.63.63 0 0 1-.87.23.64.64 0 1 1 .87-.23zM674.14 83a.92.92 0 0 1-1.25.33.91.91 0 1 1 1.25-.33zM681 81.36a1.19 1.19 0 1 1-.43-1.62 1.19 1.19 0 0 1 .43 1.62z"/><path class="cls-4" d="M687.88 79.71a1.45 1.45 0 1 1-.53-2 1.46 1.46 0 0 1 .53 2zM694.76 78.07a1.73 1.73 0 1 1-.63-2.36 1.74 1.74 0 0 1 .63 2.36zM701.63 76.43a2 2 0 1 1-.73-2.74 2 2 0 0 1 .73 2.74zM708.51 74.79a2.28 2.28 0 1 1-.84-3.11 2.28 2.28 0 0 1 .84 3.11zM715.38 73.15A2.55 2.55 0 0 1 711 70.6a2.55 2.55 0 1 1 4.42 2.55zM722.25 71.51a2.82 2.82 0 1 1-1-3.86 2.81 2.81 0 0 1 1 3.86zM729.13 69.86a3.1 3.1 0 1 1-1.13-4.23 3.1 3.1 0 0 1 1.13 4.23z"/><path class="cls-4" d="M736 68.22a3.37 3.37 0 1 1-1.23-4.6 3.37 3.37 0 0 1 1.23 4.6z"/><path class="cls-4" d="M742.88 66.58a3.65 3.65 0 1 1-1.34-5 3.65 3.65 0 0 1 1.34 5z"/><path class="cls-3" d="M666.64 82.83a.64.64 0 1 1-.45-.78.64.64 0 0 1 .45.78zM672.85 79.47a.9.9 0 0 1-1.11.64.91.91 0 1 1 1.11-.64zM679.07 76.1a1.18 1.18 0 1 1-.84-1.45 1.19 1.19 0 0 1 .84 1.45zM685.28 72.73a1.45 1.45 0 1 1-1-1.78 1.46 1.46 0 0 1 1 1.78zM691.5 69.37a1.73 1.73 0 1 1-1.22-2.12 1.73 1.73 0 0 1 1.22 2.12zM697.71 66a2 2 0 1 1-1.41-2.46 2 2 0 0 1 1.41 2.46zM703.93 62.64a2.28 2.28 0 1 1-1.61-2.79 2.27 2.27 0 0 1 1.61 2.79zM710.14 59.28a2.55 2.55 0 1 1-1.8-3.13 2.55 2.55 0 0 1 1.8 3.13zM716.36 55.91a2.83 2.83 0 1 1-2-3.46 2.83 2.83 0 0 1 2 3.46zM722.57 52.54a3.1 3.1 0 1 1-2.19-3.79 3.1 3.1 0 0 1 2.19 3.79z"/><path class="cls-3" d="M728.79 49.18a3.37 3.37 0 1 1-2.39-4.13 3.36 3.36 0 0 1 2.39 4.13z"/><path class="cls-3" d="M735 45.81a3.64 3.64 0 1 1-2.57-4.46 3.64 3.64 0 0 1 2.57 4.46z"/></g><g class="cls-2"><path class="cls-5" d="M129.1 83.93a.39.39 0 1 1-.39-.4.39.39 0 0 1 .39.4zM132.26 80.93a.56.56 0 1 1-.56-.56.56.56 0 0 1 .56.56zM135.43 77.94a.73.73 0 1 1-.73-.73.73.73 0 0 1 .73.73zM138.59 74.94a.9.9 0 1 1-.9-.9.9.9 0 0 1 .9.9z"/><path class="cls-6" d="M141.75 72a1.07 1.07 0 0 1-2.13 0 1.07 1.07 0 1 1 2.13 0z"/><path class="cls-5" d="M144.92 69a1.24 1.24 0 1 1-1.24-1.23 1.24 1.24 0 0 1 1.24 1.23zM148.08 66a1.41 1.41 0 1 1-1.4-1.41 1.4 1.4 0 0 1 1.4 1.41z"/><path class="cls-6" d="M151.24 63a1.57 1.57 0 1 1-1.57-1.57 1.57 1.57 0 0 1 1.57 1.57z"/><path class="cls-5" d="M154.41 60a1.74 1.74 0 1 1-1.74-1.74 1.74 1.74 0 0 1 1.74 1.74zM157.57 57a1.91 1.91 0 1 1-1.91-1.91 1.9 1.9 0 0 1 1.91 1.91z"/><path class="cls-5" d="M160.73 54a2.08 2.08 0 1 1-2.07-2.08 2.08 2.08 0 0 1 2.07 2.08z"/><path class="cls-6" d="M163.9 51a2.25 2.25 0 1 1-2.25-2.24A2.25 2.25 0 0 1 163.9 51z"/><path class="cls-5" d="M128.21 83.15a.39.39 0 0 1-.76.2.4.4 0 0 1 .28-.48.39.39 0 0 1 .48.28zM130.49 79.44a.56.56 0 1 1-1.08.29.56.56 0 0 1 .39-.69.57.57 0 0 1 .69.4zM132.77 75.73a.72.72 0 0 1-.51.89.73.73 0 1 1-.38-1.41.73.73 0 0 1 .89.52zM135.05 72a.9.9 0 1 1-1.1-.64.89.89 0 0 1 1.1.64zM137.33 68.31a1.05 1.05 0 0 1-.75 1.3 1.07 1.07 0 1 1 .75-1.3zM139.61 64.59a1.23 1.23 0 1 1-1.51-.87 1.24 1.24 0 0 1 1.51.87zM141.89 60.88a1.4 1.4 0 1 1-1.72-1 1.4 1.4 0 0 1 1.72 1zM144.17 57.17a1.57 1.57 0 1 1-1.92-1.11 1.57 1.57 0 0 1 1.92 1.11zM146.45 53.46a1.74 1.74 0 1 1-2.13-1.23 1.74 1.74 0 0 1 2.13 1.23zM148.73 49.75a1.91 1.91 0 1 1-2.33-1.35 1.91 1.91 0 0 1 2.33 1.35zM151 46a2.08 2.08 0 1 1-2.54-1.47A2.08 2.08 0 0 1 151 46z"/><path class="cls-5" d="M153.3 42.33a2.25 2.25 0 1 1-2.76-1.59 2.26 2.26 0 0 1 2.76 1.59zM127.15 82.63a.39.39 0 0 1-.14.54.39.39 0 1 1-.4-.68.39.39 0 0 1 .54.14zM128.39 78.46a.54.54 0 0 1-.2.76.56.56 0 0 1-.77-.2.57.57 0 0 1 .21-.77.56.56 0 0 1 .76.21zM129.64 74.28a.73.73 0 1 1-1-.27.73.73 0 0 1 1 .27zM130.88 70.11a.9.9 0 1 1-1.23-.33.91.91 0 0 1 1.23.33zM132.12 65.93a1.07 1.07 0 1 1-1.46-.39 1.07 1.07 0 0 1 1.46.39zM133.36 61.76a1.23 1.23 0 1 1-1.69-.46 1.24 1.24 0 0 1 1.69.46zM134.6 57.58a1.4 1.4 0 1 1-1.91-.51 1.41 1.41 0 0 1 1.91.51zM135.85 53.41a1.57 1.57 0 1 1-2.15-.58 1.57 1.57 0 0 1 2.15.58z"/><path class="cls-6" d="M137.09 49.23a1.74 1.74 0 1 1-2.38-.64 1.75 1.75 0 0 1 2.38.64zM138.33 45.06a1.91 1.91 0 1 1-2.61-.7 1.91 1.91 0 0 1 2.61.7z"/><path class="cls-6" d="M139.57 40.88a2.08 2.08 0 1 1-2.84-.76 2.08 2.08 0 0 1 2.84.76z"/><path class="cls-6" d="M140.81 36.71a2.24 2.24 0 1 1-3.06-.82 2.23 2.23 0 0 1 3.06.82z"/><path class="cls-5" d="M126 82.41a.39.39 0 0 1 0 .55.39.39 0 1 1 0-.55zM126.11 78.05a.57.57 0 0 1 0 .8.56.56 0 0 1-.79 0 .57.57 0 0 1 0-.8.56.56 0 0 1 .79 0z"/><path class="cls-6" d="M126.23 73.7a.73.73 0 1 1-1 0 .72.72 0 0 1 1 0zM126.35 69.34a.9.9 0 1 1-1.27 0 .9.9 0 0 1 1.27 0zM126.47 65a1.07 1.07 0 1 1-1.47 0 1.06 1.06 0 0 1 1.47 0zM126.59 60.63a1.24 1.24 0 0 1 0 1.75 1.23 1.23 0 0 1-1.75 0 1.24 1.24 0 0 1 1.75-1.75zM126.71 56.28a1.41 1.41 0 1 1-2 2 1.41 1.41 0 0 1 2-2zM126.83 51.93a1.57 1.57 0 1 1-2.23 0 1.58 1.58 0 0 1 2.23 0zM127 47.57a1.74 1.74 0 1 1-2.47 0 1.74 1.74 0 0 1 2.47 0zM127.06 43.22a1.91 1.91 0 1 1-2.7 0 1.9 1.9 0 0 1 2.7 0z"/><path class="cls-6" d="M127.18 38.86a2.08 2.08 0 1 1-2.93 0 2.08 2.08 0 0 1 2.93 0z"/><path class="cls-6" d="M127.3 34.51a2.25 2.25 0 1 1-3.17 0 2.25 2.25 0 0 1 3.17 0z"/><path class="cls-5" d="M124.81 82.49a.4.4 0 0 1 .19.51.4.4 0 0 1-.54.14.39.39 0 0 1-.14-.54.38.38 0 0 1 .49-.11zM123.8 78.25a.57.57 0 0 1 .2.75.56.56 0 0 1-.77.2.54.54 0 0 1-.2-.76.56.56 0 0 1 .77-.19zM122.79 74a.73.73 0 1 1-.73 1.27.73.73 0 0 1 .73-1.27zM121.78 69.78a.9.9 0 1 1-1.23.33.91.91 0 0 1 1.23-.33zM120.77 65.54a1.07 1.07 0 1 1-1.46.39 1.08 1.08 0 0 1 1.46-.39zM119.76 61.3a1.24 1.24 0 1 1-1.69.46 1.24 1.24 0 0 1 1.69-.46zM118.74 57.07a1.4 1.4 0 1 1-1.91.51 1.39 1.39 0 0 1 1.91-.51zM117.73 52.83a1.57 1.57 0 1 1-2.15.58 1.58 1.58 0 0 1 2.15-.58zM116.72 48.59a1.74 1.74 0 1 1-2.38.64 1.75 1.75 0 0 1 2.38-.64zM115.71 44.36a1.91 1.91 0 1 1-2.61.7 1.92 1.92 0 0 1 2.61-.7z"/><path class="cls-5" d="M114.7 40.12a2.08 2.08 0 1 1-2.84.76 2.07 2.07 0 0 1 2.84-.76z"/><path class="cls-5" d="M113.68 35.89a2.24 2.24 0 1 1-3.06.82 2.24 2.24 0 0 1 3.06-.82zM123.7 82.87a.4.4 0 0 1 .28.48.4.4 0 0 1-.49.28.39.39 0 0 1 .21-.76z"/><path class="cls-6" d="M121.62 79a.56.56 0 0 1-.29 1.09.56.56 0 0 1 .29-1.09zM119.55 75.21a.73.73 0 1 1-.38 1.41.72.72 0 0 1-.51-.89.73.73 0 0 1 .89-.52zM117.48 71.38a.9.9 0 1 1-1.1.64.89.89 0 0 1 1.1-.64zM115.4 67.55a1.07 1.07 0 1 1-.55 2.06 1.07 1.07 0 0 1 .55-2.06zM113.33 63.72a1.23 1.23 0 0 1 .87 1.51 1.24 1.24 0 1 1-.87-1.51zM111.26 59.89a1.4 1.4 0 1 1-1.72 1 1.41 1.41 0 0 1 1.72-1zM109.18 56.06a1.57 1.57 0 1 1-1.92 1.11 1.56 1.56 0 0 1 1.92-1.11zM107.11 52.23a1.74 1.74 0 1 1-2.11 1.23 1.74 1.74 0 0 1 2.11-1.23zM105 48.4a1.91 1.91 0 1 1-2.34 1.35A1.9 1.9 0 0 1 105 48.4z"/><path class="cls-6" d="M103 44.57a2.08 2.08 0 1 1-2.58 1.43 2.07 2.07 0 0 1 2.58-1.43z"/><path class="cls-6" d="M100.89 40.74a2.25 2.25 0 1 1-2.76 1.59 2.25 2.25 0 0 1 2.76-1.59z"/><path class="cls-5" d="M122.72 83.53a.4.4 0 1 1-.39.4.39.39 0 0 1 .39-.4zM119.73 80.37a.56.56 0 1 1-.57.56.56.56 0 0 1 .57-.56zM116.73 77.21a.73.73 0 1 1-.73.73.73.73 0 0 1 .73-.73zM113.74 74a.9.9 0 1 1-.9.9.89.89 0 0 1 .9-.9zM110.74 70.88a1.07 1.07 0 1 1-1.07 1.12 1.07 1.07 0 0 1 1.07-1.12zM107.75 67.72a1.24 1.24 0 1 1-1.24 1.28 1.23 1.23 0 0 1 1.24-1.28zM104.75 64.55a1.41 1.41 0 1 1-1.4 1.41 1.4 1.4 0 0 1 1.4-1.41zM101.76 61.39a1.57 1.57 0 1 1-1.58 1.61 1.57 1.57 0 0 1 1.58-1.61zM98.76 58.23A1.74 1.74 0 1 1 97 60a1.74 1.74 0 0 1 1.76-1.77zM95.77 55.06A1.91 1.91 0 1 1 93.86 57a1.92 1.92 0 0 1 1.91-1.94z"/><path class="cls-5" d="M92.77 51.9A2.08 2.08 0 1 1 90.7 54a2.08 2.08 0 0 1 2.07-2.1z"/><path class="cls-5" d="M89.78 48.74A2.25 2.25 0 1 1 87.53 51a2.24 2.24 0 0 1 2.25-2.26zM122 84.42a.4.4 0 0 1 .48.28.39.39 0 0 1-.28.48.39.39 0 0 1-.48-.28.39.39 0 0 1 .28-.48zM118.23 82.14a.56.56 0 1 1 .29 1.09.56.56 0 0 1-.29-1.09z"/><path class="cls-6" d="M114.52 79.86a.74.74 0 0 1 .9.52.73.73 0 0 1-.52.89.72.72 0 0 1-.89-.51.73.73 0 0 1 .51-.9zM110.81 77.58a.9.9 0 1 1-.63 1.1.9.9 0 0 1 .63-1.1zM107.1 75.3a1.07 1.07 0 1 1 .55 2.06 1.07 1.07 0 1 1-.55-2.06zM103.39 73a1.24 1.24 0 1 1-.87 1.52 1.23 1.23 0 0 1 .87-1.52zM99.68 70.74a1.4 1.4 0 1 1-1 1.72 1.41 1.41 0 0 1 1-1.72zM96 68.46a1.57 1.57 0 0 1 .81 3 1.57 1.57 0 1 1-.81-3zM92.25 66.18A1.74 1.74 0 1 1 91 68.31a1.75 1.75 0 0 1 1.25-2.13zM88.54 63.9a1.91 1.91 0 1 1-1.35 2.34 1.91 1.91 0 0 1 1.35-2.34z"/><path class="cls-5" d="M84.83 61.62a2.08 2.08 0 1 1-1.47 2.54 2.08 2.08 0 0 1 1.47-2.54z"/><path class="cls-6" d="M81.12 59.34a2.25 2.25 0 1 1-1.59 2.75 2.24 2.24 0 0 1 1.59-2.75z"/><path class="cls-5" d="M121.43 85.48a.39.39 0 0 1 .39.68.39.39 0 1 1-.39-.68z"/><path class="cls-6" d="M117.25 84.24a.57.57 0 0 1 .77.21.56.56 0 0 1-.21.76.55.55 0 0 1-.76-.2.56.56 0 0 1 .2-.77zM113.08 83a.73.73 0 1 1-.27 1 .73.73 0 0 1 .27-1zM108.9 81.76a.91.91 0 0 1 1.23.32.9.9 0 1 1-1.23-.32zM104.73 80.52a1.06 1.06 0 1 1 1.06 1.84 1.06 1.06 0 1 1-1.06-1.84zM100.55 79.27a1.24 1.24 0 1 1-.45 1.73 1.23 1.23 0 0 1 .45-1.73z"/><path class="cls-5" d="M96.38 78a1.4 1.4 0 1 1-.52 2 1.42 1.42 0 0 1 .52-2zM92.2 76.79a1.57 1.57 0 1 1 1.57 2.72 1.57 1.57 0 0 1-1.57-2.72zM88 75.55a1.74 1.74 0 1 1-.64 2.37 1.73 1.73 0 0 1 .64-2.37zM83.85 74.31a1.91 1.91 0 1 1-.7 2.6 1.91 1.91 0 0 1 .7-2.6z"/><path class="cls-5" d="M79.68 73.06a2.08 2.08 0 1 1-.76 2.84 2.07 2.07 0 0 1 .76-2.84z"/><path class="cls-5" d="M75.5 71.82a2.25 2.25 0 1 1-.82 3.07 2.25 2.25 0 0 1 .82-3.07zM121.2 86.64a.4.4 0 1 1 0 .56.4.4 0 0 1 0-.56zM116.85 86.52a.56.56 0 0 1 .79 0 .57.57 0 0 1 0 .8.56.56 0 0 1-.79 0 .57.57 0 0 1 0-.8zM112.49 86.4a.74.74 0 0 1 1 1 .74.74 0 1 1-1-1zM108.14 86.29a.88.88 0 0 1 1.27 0 .9.9 0 1 1-1.27 0zM103.79 86.17a1.05 1.05 0 0 1 1.5 0 1.06 1.06 0 1 1-1.5 0zM99.43 86.05a1.23 1.23 0 1 1 0 1.74 1.23 1.23 0 0 1 0-1.74zM95.07 85.93a1.4 1.4 0 1 1 0 2 1.41 1.41 0 0 1 0-2zM90.72 85.81a1.57 1.57 0 1 1 0 2.22 1.58 1.58 0 0 1 0-2.22zM86.37 85.69a1.74 1.74 0 1 1 0 2.46 1.74 1.74 0 0 1 0-2.46zM82 85.57a1.91 1.91 0 1 1 0 2.7 1.9 1.9 0 0 1 0-2.7z"/><path class="cls-5" d="M77.66 85.45a2.08 2.08 0 1 1 0 2.94 2.08 2.08 0 0 1 0-2.94z"/><path class="cls-5" d="M73.31 85.33a2.25 2.25 0 1 1 0 3.18 2.25 2.25 0 0 1 0-3.18zM121.28 87.82a.39.39 0 0 1 .54-.14.38.38 0 0 1 .14.53.39.39 0 0 1-.53.15.4.4 0 0 1-.15-.54zM117.05 88.83a.55.55 0 0 1 .76-.2.56.56 0 0 1 .21.76.57.57 0 0 1-.77.21.56.56 0 0 1-.2-.77zM112.81 89.84a.73.73 0 1 1 .27 1 .73.73 0 0 1-.27-1z"/><path class="cls-6" d="M108.57 90.85a.92.92 0 0 1 1.23-.33.9.9 0 1 1-1.23.33zM104.34 91.87a1.05 1.05 0 0 1 1.45-.39 1.06 1.06 0 1 1-1.06 1.84 1.05 1.05 0 0 1-.39-1.45zM100.1 92.88a1.23 1.23 0 1 1 .45 1.69 1.24 1.24 0 0 1-.45-1.69zM95.86 93.89a1.41 1.41 0 1 1 .52 1.92 1.41 1.41 0 0 1-.52-1.92zM91.63 94.9a1.57 1.57 0 0 1 2.72 1.58 1.57 1.57 0 0 1-2.72-1.58zM87.39 95.92a1.74 1.74 0 1 1 .61 2.37 1.74 1.74 0 0 1-.61-2.37zM83.15 96.93a1.91 1.91 0 1 1 .7 2.6 1.9 1.9 0 0 1-.7-2.6zM78.92 97.94a2.07 2.07 0 1 1 .76 2.84 2.06 2.06 0 0 1-.76-2.84z"/><path class="cls-6" d="M74.68 99a2.25 2.25 0 1 1 .82 3 2.25 2.25 0 0 1-.82-3z"/><path class="cls-5" d="M121.67 88.94a.39.39 0 0 1 .48-.28.39.39 0 0 1 .28.48.4.4 0 0 1-.48.28.39.39 0 0 1-.28-.48zM117.84 91a.55.55 0 0 1 .68-.4.56.56 0 0 1-.29 1.09.56.56 0 0 1-.39-.69zM114 93.08a.72.72 0 0 1 .89-.51.73.73 0 0 1 .52.89.74.74 0 0 1-.9.52.73.73 0 0 1-.51-.9zM110.18 95.16a.9.9 0 1 1 .63 1.1.89.89 0 0 1-.63-1.1zM106.34 97.23a1.07 1.07 0 0 1 2.07.55 1.07 1.07 0 1 1-2.07-.55zM102.52 99.31a1.23 1.23 0 1 1 .87 1.51 1.23 1.23 0 0 1-.87-1.51zM98.68 101.38a1.41 1.41 0 1 1 1 1.72 1.4 1.4 0 0 1-1-1.72zM94.85 103.45a1.57 1.57 0 1 1 1.15 1.93 1.58 1.58 0 0 1-1.15-1.93zM91 105.53a1.74 1.74 0 1 1 1.23 2.13 1.75 1.75 0 0 1-1.23-2.13zM87.19 107.6a1.91 1.91 0 1 1 1.35 2.34 1.91 1.91 0 0 1-1.35-2.34z"/><path class="cls-5" d="M83.36 109.67a2.08 2.08 0 1 1 1.47 2.55 2.08 2.08 0 0 1-1.47-2.55z"/><path class="cls-5" d="M79.53 111.75a2.25 2.25 0 1 1 1.59 2.75 2.25 2.25 0 0 1-1.59-2.75zM122.33 89.91a.39.39 0 1 1 .39.4.39.39 0 0 1-.39-.4zM119.16 92.91a.57.57 0 1 1 .57.56.56.56 0 0 1-.57-.56zM116 95.9a.73.73 0 1 1 .73.73.73.73 0 0 1-.73-.73zM112.84 98.9a.9.9 0 1 1 .9.9.9.9 0 0 1-.9-.9z"/><path class="cls-6" d="M109.67 101.89a1.07 1.07 0 1 1 1.07 1.07 1.06 1.06 0 0 1-1.07-1.07zM106.51 104.89a1.24 1.24 0 1 1 1.24 1.23 1.24 1.24 0 0 1-1.24-1.23zM103.35 107.88a1.4 1.4 0 1 1 1.4 1.41 1.4 1.4 0 0 1-1.4-1.41zM100.18 110.88a1.58 1.58 0 1 1 1.58 1.57 1.57 1.57 0 0 1-1.58-1.57zM97 113.87a1.74 1.74 0 1 1 1.74 1.74 1.74 1.74 0 0 1-1.74-1.74zM93.86 116.87a1.91 1.91 0 1 1 1.91 1.91 1.9 1.9 0 0 1-1.91-1.91z"/><path class="cls-6" d="M90.7 119.86a2.08 2.08 0 1 1 2.07 2.08 2.07 2.07 0 0 1-2.07-2.08z"/><path class="cls-6" d="M87.53 122.86a2.25 2.25 0 1 1 2.25 2.24 2.25 2.25 0 0 1-2.25-2.24z"/><path class="cls-5" d="M123.22 90.69a.39.39 0 0 1 .27-.48.39.39 0 1 1-.27.48zM120.94 94.4a.56.56 0 0 1 .39-.69.56.56 0 1 1 .29 1.09.56.56 0 0 1-.68-.4zM118.66 98.11a.72.72 0 0 1 .51-.89.73.73 0 0 1 .9.51.74.74 0 0 1-.52.9.73.73 0 0 1-.89-.52zM116.38 101.82a.9.9 0 1 1 1.1.64.89.89 0 0 1-1.1-.64zM114.1 105.53a1 1 0 0 1 .75-1.3 1.07 1.07 0 1 1-.75 1.3zM111.81 109.25a1.24 1.24 0 1 1 2.39-.64 1.24 1.24 0 0 1-2.39.64zM109.54 113a1.4 1.4 0 1 1 1.72 1 1.4 1.4 0 0 1-1.72-1zM107.26 116.67a1.57 1.57 0 1 1 1.92 1.11 1.57 1.57 0 0 1-1.92-1.11zM105 120.38a1.74 1.74 0 1 1 2.14 1.23 1.75 1.75 0 0 1-2.14-1.23zM102.69 124.09a1.91 1.91 0 1 1 2.34 1.35 1.92 1.92 0 0 1-2.34-1.35z"/><path class="cls-5" d="M100.42 127.8a2.06 2.06 0 0 1 1.46-2.54 2.08 2.08 0 1 1-1.46 2.54z"/><path class="cls-5" d="M98.13 131.51a2.25 2.25 0 1 1 2.76 1.59 2.25 2.25 0 0 1-2.76-1.59zM124.28 91.21a.39.39 0 0 1 .14-.54.4.4 0 0 1 .54.14.4.4 0 0 1-.15.54.38.38 0 0 1-.53-.14zM123 95.38a.54.54 0 0 1 .2-.76.56.56 0 0 1 .77.2.57.57 0 0 1-.21.77.56.56 0 0 1-.76-.21zM121.8 99.56a.72.72 0 0 1 .26-1 .73.73 0 0 1 1 .27.72.72 0 0 1-.27 1 .71.71 0 0 1-.99-.27zM120.55 103.73a.9.9 0 1 1 1.23.33.9.9 0 0 1-1.23-.33z"/><path class="cls-6" d="M119.31 107.91a1.07 1.07 0 1 1 1.46.39 1.08 1.08 0 0 1-1.46-.39zM118.07 112.08a1.23 1.23 0 1 1 2.14-1.23 1.23 1.23 0 0 1-2.14 1.23zM116.83 116.26a1.4 1.4 0 1 1 1.91.51 1.41 1.41 0 0 1-1.91-.51zM115.58 120.43a1.57 1.57 0 1 1 2.15.58 1.57 1.57 0 0 1-2.15-.58zM114.34 124.61a1.74 1.74 0 1 1 2.38.63 1.75 1.75 0 0 1-2.38-.63zM113.1 128.78a1.91 1.91 0 1 1 2.61.7 1.91 1.91 0 0 1-2.61-.7zM111.86 133a2.07 2.07 0 1 1 2.84.76 2.07 2.07 0 0 1-2.84-.76z"/><path class="cls-6" d="M110.62 137.13a2.24 2.24 0 1 1 3.06.82 2.24 2.24 0 0 1-3.06-.82z"/><path class="cls-5" d="M125.44 91.43a.39.39 0 0 1 .55-.55.39.39 0 0 1 0 .55.38.38 0 0 1-.55 0zM125.32 95.79a.57.57 0 0 1 0-.8.56.56 0 0 1 .79 0 .57.57 0 0 1 0 .8.56.56 0 0 1-.79 0zM125.2 100.14a.73.73 0 1 1 1 0 .72.72 0 0 1-1 0zM125.08 104.49a.89.89 0 1 1 1.27 0 .89.89 0 0 1-1.27 0zM125 108.85a1.07 1.07 0 1 1 1.51 0 1.06 1.06 0 0 1-1.51 0zM124.84 113.2a1.23 1.23 0 1 1 1.75 0 1.23 1.23 0 0 1-1.75 0zM124.72 117.56a1.41 1.41 0 1 1 2 0 1.41 1.41 0 0 1-2 0zM124.6 121.91a1.57 1.57 0 1 1 2.23 0 1.58 1.58 0 0 1-2.23 0zM124.48 126.27a1.74 1.74 0 1 1 2.47 0 1.74 1.74 0 0 1-2.47 0zM124.36 130.62a1.91 1.91 0 1 1 2.7 0 1.92 1.92 0 0 1-2.7 0zM124.25 135a2.08 2.08 0 1 1 2.93 0 2.06 2.06 0 0 1-2.93 0z"/><path class="cls-5" d="M124.13 139.33a2.25 2.25 0 1 1 3.17 0 2.25 2.25 0 0 1-3.17 0zM126.61 91.35a.39.39 0 1 1 .4-.68.39.39 0 0 1-.4.68zM127.63 95.59a.57.57 0 0 1-.21-.77.56.56 0 0 1 .77-.2.54.54 0 0 1 .2.76.56.56 0 0 1-.76.21zM128.64 99.82a.72.72 0 0 1-.27-1 .73.73 0 1 1 1.27.73.72.72 0 0 1-1 .27zM129.65 104.06a.9.9 0 1 1 1.23-.33.9.9 0 0 1-1.23.33z"/><path class="cls-6" d="M130.66 108.3a1.07 1.07 0 1 1 1.46-.39 1.08 1.08 0 0 1-1.46.39zM131.67 112.53a1.23 1.23 0 0 1-.45-1.68 1.23 1.23 0 1 1 .45 1.68zM132.69 116.77a1.4 1.4 0 1 1 1.91-.51 1.41 1.41 0 0 1-1.91.51zM133.7 121a1.57 1.57 0 1 1 2.15-.58 1.57 1.57 0 0 1-2.15.58zM134.71 125.24a1.74 1.74 0 1 1 2.38-.63 1.74 1.74 0 0 1-2.38.63zM135.72 129.48a1.91 1.91 0 1 1 2.61-.7 1.91 1.91 0 0 1-2.61.7z"/><path class="cls-6" d="M136.73 133.72a2.08 2.08 0 1 1 2.84-.76 2.09 2.09 0 0 1-2.84.76z"/><path class="cls-6" d="M137.75 138a2.24 2.24 0 1 1 3.06-.82 2.24 2.24 0 0 1-3.06.82z"/><path class="cls-5" d="M127.73 91a.4.4 0 0 1-.28-.48.39.39 0 0 1 .48-.28.39.39 0 0 1 .28.48.39.39 0 0 1-.48.28zM129.8 94.8a.56.56 0 0 1-.39-.69.56.56 0 1 1 .39.69zM131.88 98.63a.74.74 0 0 1-.52-.9.73.73 0 0 1 .9-.51.72.72 0 0 1 .51.89.73.73 0 0 1-.89.52zM134 102.46a.9.9 0 1 1 1.1-.64.89.89 0 0 1-1.1.64zM136 106.29a1.07 1.07 0 0 1-.76-1.31 1.07 1.07 0 1 1 .76 1.31zM138.1 110.12a1.24 1.24 0 1 1 1.51-.87 1.23 1.23 0 0 1-1.51.87zM140.17 114a1.4 1.4 0 1 1 1.72-1 1.41 1.41 0 0 1-1.72 1zM142.25 117.78a1.57 1.57 0 1 1 1.92-1.11 1.57 1.57 0 0 1-1.92 1.11zM144.32 121.61a1.74 1.74 0 1 1 2.13-1.23 1.74 1.74 0 0 1-2.13 1.23zM146.4 125.44a1.91 1.91 0 1 1 2.33-1.35 1.9 1.9 0 0 1-2.33 1.35z"/><path class="cls-5" d="M148.47 129.27a2.08 2.08 0 1 1 2.53-1.47 2.07 2.07 0 0 1-2.53 1.47z"/><path class="cls-5" d="M150.54 133.1a2.25 2.25 0 1 1 2.76-1.59 2.24 2.24 0 0 1-2.76 1.59zM128.71 90.31a.4.4 0 1 1 .39-.4.39.39 0 0 1-.39.4zM131.7 93.47a.56.56 0 0 1 0-1.12.55.55 0 0 1 .56.56.56.56 0 0 1-.56.56zM134.7 96.63a.73.73 0 1 1 .73-.73.73.73 0 0 1-.73.73zM137.69 99.8a.9.9 0 1 1 .9-.9.89.89 0 0 1-.9.9zM140.69 103a1.07 1.07 0 1 1 0-2.13 1.07 1.07 0 0 1 0 2.13z"/><path class="cls-6" d="M143.68 106.12a1.24 1.24 0 1 1 1.24-1.23 1.23 1.23 0 0 1-1.24 1.23zM146.68 109.29a1.41 1.41 0 1 1 1.4-1.41 1.41 1.41 0 0 1-1.4 1.41zM149.67 112.45a1.57 1.57 0 1 1 1.57-1.57 1.57 1.57 0 0 1-1.57 1.57zM152.67 115.61a1.74 1.74 0 1 1 1.74-1.74 1.74 1.74 0 0 1-1.74 1.74zM155.66 118.78a1.91 1.91 0 1 1 1.91-1.91 1.92 1.92 0 0 1-1.91 1.91z"/><path class="cls-6" d="M158.66 121.94a2.08 2.08 0 1 1 2.07-2.08 2.08 2.08 0 0 1-2.07 2.08z"/><path class="cls-6" d="M161.65 125.1a2.25 2.25 0 1 1 2.25-2.24 2.24 2.24 0 0 1-2.25 2.24z"/><path class="cls-5" d="M129.48 89.42a.4.4 0 0 1-.48-.28.39.39 0 1 1 .48.28zM133.19 91.7a.56.56 0 0 1-.68-.4.56.56 0 1 1 1.08-.29.56.56 0 0 1-.4.69zM136.91 94a.74.74 0 0 1-.9-.52.73.73 0 0 1 .52-.89.72.72 0 0 1 .89.51.74.74 0 0 1-.51.9zM140.62 96.26a.9.9 0 1 1 .63-1.1.9.9 0 0 1-.63 1.1zM144.33 98.54a1.07 1.07 0 1 1-.55-2.06 1.07 1.07 0 0 1 .55 2.06zM148 100.82a1.24 1.24 0 1 1 .87-1.51 1.24 1.24 0 0 1-.87 1.51zM151.75 103.1a1.4 1.4 0 1 1 1-1.72 1.4 1.4 0 0 1-1 1.72zM155.46 105.38a1.57 1.57 0 1 1 1.11-1.93 1.57 1.57 0 0 1-1.11 1.93zM159.17 107.66a1.74 1.74 0 0 1-.9-3.37 1.74 1.74 0 1 1 .9 3.37zM162.89 109.94a1.91 1.91 0 1 1 1.35-2.34 1.91 1.91 0 0 1-1.35 2.34z"/><path class="cls-5" d="M166.6 112.22a2.08 2.08 0 1 1 1.47-2.55 2.08 2.08 0 0 1-1.47 2.55z"/><path class="cls-5" d="M170.31 114.5a2.25 2.25 0 1 1 1.59-2.75 2.24 2.24 0 0 1-1.59 2.75zM130 88.36a.4.4 0 0 1-.54-.15.4.4 0 0 1 .69-.39.4.4 0 0 1-.15.54zM134.18 89.6a.57.57 0 0 1-.77-.21.56.56 0 0 1 1-.56.56.56 0 0 1-.23.77zM138.35 90.84a.72.72 0 0 1-1-.27.71.71 0 0 1 .26-1 .72.72 0 0 1 1 .26.73.73 0 0 1-.26 1.01z"/><path class="cls-6" d="M142.53 92.08a.9.9 0 1 1-.9-1.56.92.92 0 0 1 1.23.33.9.9 0 0 1-.33 1.23zM146.7 93.32a1.06 1.06 0 1 1 .39-1.45 1.05 1.05 0 0 1-.39 1.45zM150.88 94.57a1.24 1.24 0 1 1 .45-1.69 1.23 1.23 0 0 1-.45 1.69zM155.05 95.81a1.4 1.4 0 0 1-1.4-2.43 1.4 1.4 0 1 1 1.4 2.43zM159.23 97.05a1.57 1.57 0 1 1 .57-2.15 1.57 1.57 0 0 1-.57 2.15zM163.4 98.29a1.74 1.74 0 1 1 .64-2.37 1.73 1.73 0 0 1-.64 2.37zM167.58 99.53a1.91 1.91 0 1 1 .7-2.6 1.91 1.91 0 0 1-.7 2.6z"/><path class="cls-6" d="M171.75 100.78a2.08 2.08 0 1 1 .76-2.84 2.07 2.07 0 0 1-.76 2.84z"/><path class="cls-6" d="M175.93 102a2.25 2.25 0 1 1 .82-3.07 2.25 2.25 0 0 1-.82 3.07z"/><path class="cls-5" d="M130.23 87.2a.4.4 0 1 1 0-.56.4.4 0 0 1 0 .56zM134.58 87.32a.56.56 0 0 1-.79 0 .57.57 0 0 1 0-.8.56.56 0 0 1 .79 0 .57.57 0 0 1 0 .8zM138.94 87.44a.74.74 0 1 1 0-1 .75.75 0 0 1 0 1zM143.29 87.56a.9.9 0 1 1-1.29-1.27.88.88 0 0 1 1.27 0 .9.9 0 0 1 .02 1.27zM147.65 87.68a1.08 1.08 0 0 1-1.51 0 1.07 1.07 0 1 1 1.51-1.51 1.08 1.08 0 0 1 0 1.51zM152 87.79a1.23 1.23 0 1 1 0-1.74 1.23 1.23 0 0 1 0 1.74zM156.35 87.91a1.4 1.4 0 1 1 0-2 1.39 1.39 0 0 1 0 2zM160.71 88a1.57 1.57 0 1 1 0-2.22 1.57 1.57 0 0 1 0 2.22zM165.06 88.15a1.74 1.74 0 1 1 0-2.46 1.74 1.74 0 0 1 0 2.46zM169.42 88.27a1.91 1.91 0 1 1 0-2.7 1.9 1.9 0 0 1 0 2.7z"/><path class="cls-5" d="M173.77 88.39a2.08 2.08 0 1 1 0-2.94 2.08 2.08 0 0 1 0 2.94z"/><path class="cls-5" d="M178.12 88.51a2.25 2.25 0 1 1 0-3.18 2.25 2.25 0 0 1 0 3.18zM130.15 86a.4.4 0 1 1-.15-.54.4.4 0 0 1 .15.54zM134.38 85a.56.56 0 0 1-1-.56.57.57 0 0 1 .77-.21.56.56 0 0 1 .23.77zM138.62 84a.72.72 0 0 1-1 .26.71.71 0 0 1-.26-1 .72.72 0 0 1 1-.27.73.73 0 0 1 .26 1.01zM142.86 83a.9.9 0 1 1-1.56-.9.9.9 0 0 1 1.56.9z"/><path class="cls-6" d="M147.09 82a1.07 1.07 0 1 1-.39-1.45 1.06 1.06 0 0 1 .39 1.45zM151.33 81a1.23 1.23 0 1 1-.45-1.69 1.23 1.23 0 0 1 .45 1.69zM155.57 80a1.4 1.4 0 0 1-2.43-1.4 1.39 1.39 0 0 1 1.91-.52 1.42 1.42 0 0 1 .52 1.92zM159.8 78.94a1.57 1.57 0 0 1-2.72-1.58 1.57 1.57 0 0 1 2.72 1.58zM164 77.92a1.74 1.74 0 1 1-.64-2.37 1.74 1.74 0 0 1 .64 2.37zM168.28 76.91a1.91 1.91 0 1 1-.7-2.6 1.9 1.9 0 0 1 .7 2.6zM172.51 75.9a2.07 2.07 0 1 1-.76-2.84 2.07 2.07 0 0 1 .76 2.84z"/><path class="cls-6" d="M176.75 74.89a2.25 2.25 0 1 1-.82-3.07 2.25 2.25 0 0 1 .82 3.07z"/><path class="cls-5" d="M129.76 84.9a.39.39 0 0 1-.76-.2.4.4 0 0 1 .48-.28.39.39 0 0 1 .28.48zM133.59 82.83a.56.56 0 1 1-1.08-.29.56.56 0 1 1 1.08.29zM137.42 80.76a.72.72 0 0 1-.89.51.73.73 0 0 1-.52-.89.73.73 0 1 1 1.41.38zM141.25 78.68a.9.9 0 1 1-.63-1.1.9.9 0 0 1 .63 1.1zM145.08 76.61a1 1 0 0 1-1.3.75 1.07 1.07 0 1 1 1.3-.75zM148.91 74.54A1.23 1.23 0 1 1 148 73a1.23 1.23 0 0 1 .91 1.54zM152.74 72.46a1.4 1.4 0 1 1-1-1.72 1.4 1.4 0 0 1 1 1.72zM156.57 70.39a1.57 1.57 0 1 1-1.11-1.93 1.57 1.57 0 0 1 1.11 1.93zM160.41 68.31a1.74 1.74 0 1 1-1.24-2.13 1.75 1.75 0 0 1 1.24 2.13zM164.24 66.24a1.91 1.91 0 1 1-1.35-2.34 1.91 1.91 0 0 1 1.35 2.34z"/><path class="cls-5" d="M168.07 64.16a2.08 2.08 0 1 1-1.47-2.54 2.08 2.08 0 0 1 1.47 2.54z"/><path class="cls-5" d="M171.9 62.09a2.25 2.25 0 1 1-1.59-2.75 2.25 2.25 0 0 1 1.59 2.75z"/></g><g style="opacity:.5"><path class="cls-8" d="M701.18 258a11.9 11.9 0 1 0-4.92 16.1 11.9 11.9 0 0 0 4.92-16.1zM136.14 74.61a6.48 6.48 0 1 0-2.68 8.76 6.48 6.48 0 0 0 2.68-8.76zM553.43 98.13a3 3 0 1 0-1.26 4.11 3 3 0 0 0 1.26-4.11zM321 131.42a3 3 0 1 0-1.26 4.11 3 3 0 0 0 1.26-4.11zM704.11 215.47a3 3 0 1 0-1.26 4.11 3 3 0 0 0 1.26-4.11zM478.6 287.05a3 3 0 1 0-1.25 4.11 3 3 0 0 0 1.25-4.11zM242.19 147.81a6.13 6.13 0 1 0-2.54 8.3 6.13 6.13 0 0 0 2.54-8.3zM331.7 175.81a3 3 0 1 0-1.26 4.11 3 3 0 0 0 1.26-4.11zM520.05 223.12a3 3 0 1 0-1.25 4.11 3 3 0 0 0 1.25-4.11zM276.39 67.59a3 3 0 1 0-1.26 4.11 3 3 0 0 0 1.26-4.11zM434.54 105a3 3 0 1 0-1.26 4.11 3 3 0 0 0 1.26-4.11zM539.89 50.33a6.48 6.48 0 1 0-2.67 8.77 6.48 6.48 0 0 0 2.67-8.77zM117.79 234.36a6.48 6.48 0 1 0-2.68 8.77 6.49 6.49 0 0 0 2.68-8.77zM558 162.94a6.48 6.48 0 1 0-2.68 8.77 6.48 6.48 0 0 0 2.68-8.77zM674.44 194.69a6.48 6.48 0 1 0-2.68 8.76 6.48 6.48 0 0 0 2.68-8.76zM51.5 267.6a7.61 7.61 0 1 0-3.14 10.29 7.61 7.61 0 0 0 3.14-10.29zM490.25 122.51a7.61 7.61 0 1 0-3.15 10.29 7.61 7.61 0 0 0 3.15-10.29zM452.41 187.84a4.34 4.34 0 1 0-1.79 5.86 4.33 4.33 0 0 0 1.79-5.86zM438.09 252.46a4.33 4.33 0 1 0-1.79 5.86 4.34 4.34 0 0 0 1.79-5.86zM547.41 130.78a4.34 4.34 0 1 0-1.79 5.87 4.35 4.35 0 0 0 1.79-5.87zM106.07 70.63a3 3 0 1 0-1.25 4.11 3 3 0 0 0 1.25-4.11zM50.79 98.81a3 3 0 1 0-1.25 4.11 3 3 0 0 0 1.25-4.11zM215.47 236a3 3 0 1 0-1.25 4.11 3 3 0 0 0 1.25-4.11zM111.16 172.16a4.34 4.34 0 1 0-1.79 5.86 4.34 4.34 0 0 0 1.79-5.86zM8.16 236a4.33 4.33 0 1 0-1.79 5.86A4.34 4.34 0 0 0 8.16 236zM390.35 152.44a4.33 4.33 0 1 0-1.79 5.86 4.34 4.34 0 0 0 1.79-5.86zM724.11 187.84a4.33 4.33 0 1 0-1.79 5.86 4.32 4.32 0 0 0 1.79-5.86zM15.32 66.28a4.33 4.33 0 1 0-1.79 5.86 4.34 4.34 0 0 0 1.79-5.86zM588 119.71a4.33 4.33 0 1 0-1.79 5.86 4.32 4.32 0 0 0 1.79-5.86zM180.92 192.17a4.34 4.34 0 1 0-1.79 5.87 4.34 4.34 0 0 0 1.79-5.87zM766 110.69a4.34 4.34 0 1 0-1.79 5.87 4.34 4.34 0 0 0 1.79-5.87z"/></g><path class="cls-9" d="M751.34 419.09c0 4.67-111.82 23.84-373.5 23.84S8.42 425.06 8.42 420.39s742.92-5.96 742.92-1.3z"/><path class="cls-10" d="M127.76 287.58a86.79 86.79 0 1 1 88.15 86.75v45.49l-38.77-53.92a86.79 86.79 0 0 1-49.38-78.32z"/><path class="cls-11" d="M205.81 293.25a8.74 8.74 0 1 0 8.74-8.74 8.74 8.74 0 0 0-8.74 8.74zM171.63 293.25a8.74 8.74 0 1 0 8.73-8.74 8.73 8.73 0 0 0-8.73 8.74zM240 293.25a8.74 8.74 0 1 0 8.74-8.74 8.74 8.74 0 0 0-8.74 8.74z"/><path class="cls-12" d="M706.93 347.81a70.43 70.43 0 1 1-71.53-70.41v-36.92l31.46 43.76a70.44 70.44 0 0 1 40.07 63.57z"/><path class="cls-11" d="M643.59 343.2a7.09 7.09 0 1 0-7.09 7.1 7.09 7.09 0 0 0 7.09-7.1zM671.34 343.2a7.1 7.1 0 1 0-7.1 7.1 7.1 7.1 0 0 0 7.1-7.1zM615.85 343.2a7.09 7.09 0 1 0-7.09 7.1 7.09 7.09 0 0 0 7.09-7.1z"/><path class="cls-12" d="M372.57 236.56c-45.67 0-82.69 27.11-82.69 60.56 0 19.84 13 37.45 33.16 48.5l43.1 35.84v-24c2.12.12 4.26.2 6.43.2 45.66 0 82.68-27.11 82.68-60.56s-37.02-60.54-82.68-60.54z"/><path class="cls-11" d="M379.89 297.12a8.77 8.77 0 1 1-8.77-8.77 8.77 8.77 0 0 1 8.77 8.77z"/><circle class="cls-11" cx="405.43" cy="297.12" r="8.77" transform="matrix(.23 -.97 .97 .23 23.4 623.78)"/><path class="cls-11" d="M345.58 297.12a8.77 8.77 0 1 1-8.77-8.77 8.77 8.77 0 0 1 8.77 8.77z"/><path d="M507.74 205.84c47.64 0 86.27 28.29 86.27 63.19 0 20.7-13.59 39.08-34.6 50.61l-45 37.39V332c-2.21.12-4.44.2-6.7.2-47.65 0-86.27-28.29-86.27-63.19s38.65-63.17 86.3-63.17z" style="stroke-width:2.11px;fill:#f29120;stroke-miterlimit:10;stroke:#fff"/><path class="cls-11" d="M500.09 269a9.16 9.16 0 1 0 9.15-9.15 9.15 9.15 0 0 0-9.15 9.15zM464.29 269a9.16 9.16 0 1 0 9.15-9.15 9.15 9.15 0 0 0-9.15 9.15zM535.89 269a9.15 9.15 0 1 0 9.15-9.15 9.15 9.15 0 0 0-9.15 9.15z"/><path class="cls-10" d="M454.87 307.36c36.71 0 66.46 21.79 66.46 48.68 0 15.95-10.47 30.1-26.65 39L460 423.83v-19.27c-1.71.1-3.43.16-5.17.16-36.7 0-66.46-21.79-66.46-48.68s29.8-48.68 66.5-48.68z"/><path class="cls-11" d="M449 356a7 7 0 1 0 7-7.05 7.05 7.05 0 0 0-7 7.05zM421.4 356a7.06 7.06 0 1 0 7.06-7.05 7.06 7.06 0 0 0-7.06 7.05zM476.56 356a7.05 7.05 0 1 0 7.05-7.05 7.05 7.05 0 0 0-7.05 7.05z"/><path d="M334.32 370.41a49 49 0 1 1-49.76-49v-25.66l21.89 30.44a49 49 0 0 1 27.87 44.22z" style="stroke-linejoin:round;fill:#7b63d3;stroke-width:2.11px;stroke:#fff"/><path class="cls-15" d="M291.26 369.33a5.94 5.94 0 1 0-5.93 5.93 5.94 5.94 0 0 0 5.93-5.93zM314.46 369.33a5.93 5.93 0 1 0-5.93 5.93 5.93 5.93 0 0 0 5.93-5.93zM268.05 369.33a5.93 5.93 0 1 0-5.93 5.93 5.93 5.93 0 0 0 5.93-5.93z"/><path d="M503.43 344.93a42.42 42.42 0 1 1 43.09 42.4v22.24l-18.95-26.36a42.41 42.41 0 0 1-24.14-38.28z" style="fill:#7b63d3"/><path class="cls-15" d="M540.72 345.86a5.14 5.14 0 1 0 5.13-5.14 5.14 5.14 0 0 0-5.13 5.14zM520.63 345.86a5.14 5.14 0 1 0 5.13-5.14 5.13 5.13 0 0 0-5.13 5.14zM560.81 345.86a5.14 5.14 0 1 0 5.14-5.14 5.14 5.14 0 0 0-5.14 5.14z"/><path d="M96.17 273.48c45.5 0 82.38 27 82.38 60.34 0 19.77-13 37.31-33 48.32l-43 35.71V394c-2.11.12-4.24.2-6.4.2-45.5 0-82.38-27-82.38-60.34s36.9-60.38 82.4-60.38z" style="stroke-linejoin:round;stroke-width:2.11px;fill:#f29120;stroke:#fff"/><path class="cls-15" d="M97.61 325.08a8.74 8.74 0 1 1-8.74 8.74 8.74 8.74 0 0 1 8.74-8.74zm-42.93 8.74a8.74 8.74 0 1 0 8.74-8.74 8.74 8.74 0 0 0-8.74 8.74zm68.37 0a8.74 8.74 0 1 0 8.74-8.74 8.74 8.74 0 0 0-8.74 8.74z"/><path class="cls-18" d="M368.81 155.49c-7.15-.83-9.7 7.08-9.7 12.41a25.77 25.77 0 0 0 .26 4.36c.76 5 3.46 8 5.22 8.78 0 0 1.66 6 5.23 7.23s10.85.31 11.35-8.7c4.41-2.88 6.9-12.63 2.69-19.16-4.37-6.78-11-6.28-15.05-4.92z"/><path class="cls-19" d="m378.92 178.6.8 4.54-6.48 9.37-7.6-9.37 1.45-5.68 11.83 1.14z"/><path class="cls-20" d="M393.11 219.71c-1.19 1.23-5.72 1.83-5.56-2 .12-2.91.11-9.26.65-11.71 2.52-.18 5.06 2.94 6.46 4.82-.15 2.7-.37 7.66-1.55 8.89z"/><path class="cls-19" d="M348.17 217.27c.33 1.68 6.47 2.68 6.31-1.11-.12-2.9 1.47-8.44.94-10.89-2.52-.18-5.76-.58-7.15 1.29.14 2.66-.57 8.28-.1 10.71z"/><path class="cls-15" d="M395 210.82c.31-2.92-.27-8.73-.08-12.53.47-9.57-1-13.83-6.4-14.92a34.62 34.62 0 0 1-9.2-2.76l-6.7 8.73-6.53-8.72a39.64 39.64 0 0 1-9.42 2.9c-4.7.93-8 9.78-8.89 27l7.67.43c.53-4.29 2.19-9.1 2.74-12.27.26.53.15 2.17.82 5.23a6.73 6.73 0 0 0 5.39 5.19l6 1.07.42-2.41 11.8.84a3.78 3.78 0 0 0 4-3.06c.89-4.45.64-6.89 1.2-7 .29 4.51-.94 7-.23 13.08a12.06 12.06 0 0 0 7.41-.8z"/><path class="cls-10" d="M388.49 183.37a21.33 21.33 0 0 0-3.48-1.13c1.57 14.5-7.24 18-7.24 18h-14.25c-1.71.76-1.1-18.56-3.12-18a21.7 21.7 0 0 0-3.76 1.28s1.36 16.48 1.84 18.25h28.88c.7-2.88 1.13-18.4 1.13-18.4z"/><path class="cls-21" d="M364.44 184.16c-.08-.52-.15-1-.22-1.57s-.12-.84-.17-1.14v-.12c-1.15.33-2.37.59-3.63.91.54 4.51 1.73 14.59 1.7 14.92s10.74 5.23 10.74 5.23l6.08-1.22 6.06-18.93c-1.23-.3-2.43-.55-3.57-.87v.12c-.05.25-.09.56-.15.94-.85 5.91-2.69 13.78-8.69 13.78-5.34 0-7.22-6.13-8.15-12.05"/><path class="cls-22" d="M387.8 222.67c-.85.16-8.64 3.94-15.25 3.94s-13-3.49-13.76-3.87c-.09 0-1.64 2.69-1.64 2.69a.18.18 0 0 0 0 .21l12.58 16.42a24.7 24.7 0 0 0 7-.1l12.54-16.15a.18.18 0 0 0 0-.19 19.78 19.78 0 0 0-1.47-2.95z"/><path class="cls-22" d="M405.57 215.52c-3.42 1.21-20.1 6.24-23 10.06-4.65 6.16-4.86 12.74-5.82 16.38 2.61 1.13 9.94 0 12.58-1.27 5.27-2.55 21.18-16.29 22.77-19.66.69-1.43-.99-7.46-6.53-5.51zM340.7 215.52c-5.54-2-7.22 4.08-6.55 5.51 1.59 3.37 17.5 17.11 22.77 19.66 2.64 1.27 10 2.4 12.58 1.27-.45-3.36-1.78-12-5.82-16.38-3.23-3.52-19.56-8.85-22.98-10.06z"/><path d="M387.54 238.66a71.16 71.16 0 0 1-11.54-1.54c-5.15-3.1-34.61-19.58-34.61-19.58-5.31-1.41-6.42 2.49-4.81 5.32 4.19 7.36 7.36 9.46 19.23 11.13 4.42.63 12.78 4.64 17.31 6.33.31 1 1.38 2.2 3.86 2.45 1.31.13 6.31 2.53 9.79 2.24 1.79-.14 3.92-2.74 3.95-3.89s1.14-2.27-3.18-2.46z" style="fill:#e8a577"/><path class="cls-24" d="M387.54 238.66c-1.52 6.75-9.4 3.19-14.44 1.66.31 1 1.38 2.2 3.86 2.45 1.31.13 6.31 2.53 9.79 2.24 1.79-.14 3.92-2.74 3.95-3.89s1.16-2.27-3.16-2.46z"/><path class="cls-25" d="M379.86 237.85h-.2l-.49-.08h-.15l-.49-.08h-.13l-.47-.08h-.14l-.42-.08h-.18l-.33-.06-.21-.05h-.26l-.41-.09-4.08-2.45c-1.3.71-2.61 1.44-2.93 1.58s-1.59.52-3.33 1c2.79 1.14 5.49 2.32 7.46 3.06 0 .07 0 .14.08.22a1.42 1.42 0 0 0 .08.18l.12.2c.05.07.1.15.16.22 1.75-.72 4.3-2 7-3.28h-.2z"/><path class="cls-26" d="M334.48 222.62c4.09 8.3 10.21 11.33 19.66 14.26 17.41 5.52 15.08 2.21 17 2.36a6.65 6.65 0 0 1 1.25.25 11.54 11.54 0 0 0 2.23-3.69c-9.4-5.3-34.71-20.66-34.71-20.66-5.36-1.41-6.91 4.56-5.43 7.48z"/><path class="cls-27" d="M371.1 239.24a6.65 6.65 0 0 1 1.25.25c.23-.29.45-.56.65-.83-15.37-4.68-31.23-15.92-38.37-21.39a6.39 6.39 0 0 0-.15 5.35c4.09 8.3 10.21 11.33 19.66 14.26 17.41 5.52 15.08 2.21 16.96 2.36z"/><path class="cls-11" d="M371.1 239.24a6.65 6.65 0 0 1 1.25.25 11.54 11.54 0 0 0 2.23-3.69l-1-.56a15.32 15.32 0 0 1-2.48 4z"/><path class="cls-25" d="M369 236.25a53.54 53.54 0 0 1-9.36 2.26c1.93.53 3.49.9 4.75 1.14 1.8.09 3.6.15 5.12.24.8-.27.91-.71 1.62-.65a6.65 6.65 0 0 1 1.25.25 11.54 11.54 0 0 0 2.23-3.69c-.7-.39-1.48-.84-2.32-1.33-1.44.78-2.97 1.62-3.29 1.78z"/><path class="cls-20" d="M405.52 216.62s-32.35 19-36.34 20.82a51.86 51.86 0 0 1-10.45 1.22c-4.32.05-3.18 1.3-3.16 2.46s2.16 3.75 3.95 3.89c3.48.29 8.48-2.11 9.79-2.24 2.75-.28 3.77-1.68 3.93-2.78 4.22-1.72 13.41-5.46 17.24-6 11.87-1.67 16.13-4.69 20.32-12.05 1.6-2.83.04-6.73-5.28-5.32z"/><path class="cls-24" d="M358.73 238.66c-4.32.05-3.18 1.3-3.16 2.46s2.16 3.75 3.95 3.89c3.48.29 8.48-2.11 9.79-2.24 2.75-.28 3.77-1.68 3.93-2.78-4.95 1.43-14.13 6.3-14.51-1.33z"/><path class="cls-26" d="M407 215.14s-25.31 15.36-34.71 20.66a30 30 0 0 0 3.23 6.18c.52-.15 6.27-1.55 17.21-5.1 9.45-2.93 15.57-6 19.66-14.26 1.39-2.92-.12-8.89-5.39-7.48z"/><path class="cls-27" d="M373.62 238.88a20.15 20.15 0 0 0 1.85 3.1c.52-.15 6.27-1.55 17.21-5.1 9.45-2.93 15.57-6 19.66-14.26a6.32 6.32 0 0 0-.55-6c-8.54 10.54-30.4 19.38-38.17 22.26z"/><path class="cls-21" d="M386.18 207.6a5.3 5.3 0 0 0 2.21-3.12 9 9 0 0 0-1-6.32c-.18-5.33-.64-15.42-.64-15.42-1.37-.44-2.71-.72-4-1-.49 2.95-1.6 15.87-10.19 15.87s-9.41-13-9.89-15.91c-1.28.31-2.63.6-4 1 0 0-.61 12.75-.73 16.33a8.63 8.63 0 0 0-.56 5.43 5.32 5.32 0 0 0 2.37 3.23c.05.22.1.41.14.55.33 1.14.73 9.49-1.38 14.11 10.43 6.28 16.93 6.65 28.95-.12-1.38-2.66-1.66-12.59-1.52-13.45.11-.4.17-.78.24-1.18z"/><path class="cls-25" d="M367.84 172.69s-.11 2.24-.31 4.45c1.56 1.23 3.46 2.44 4.89 2.44 1.66 0 3.8-1.41 5.35-2.63-.21-1.09-.4-2.17-.47-3-.24-2.58-9.46-1.26-9.46-1.26z"/><path class="cls-20" d="m381.85 170.8-1.76 6.14a7 7 0 0 0 1.94-1c.41-.38.51-3.07.54-4.4a.72.72 0 0 0-.72-.74z"/><path class="cls-25" d="M381.29 171.8c-.39-.05-.8.65-.92 1.56s.12 1.68.52 1.73.8-.65.91-1.56-.11-1.68-.51-1.73z"/><path class="cls-20" d="M362.27 171.54c0 1.33.14 4 .55 4.4a7 7 0 0 0 1.94 1L363 170.8a.73.73 0 0 0-.73.74z"/><path class="cls-25" d="M363.32 171.8c-.39 0-.62.83-.51 1.73s.52 1.61.92 1.56.62-.83.51-1.73-.52-1.61-.92-1.56z"/><circle class="cls-15" cx="381.33" cy="176.08" r=".48"/><path class="cls-15" d="M363.52 175.6a.48.48 0 0 0-.48.48.47.47 0 0 0 .48.48.48.48 0 0 0 .48-.48.49.49 0 0 0-.48-.48z"/><path class="cls-11" d="M380.16 182.3s.53 1.19-.92 4c-.65 1.29-1.84 3.18-2.64 3.18a22.75 22.75 0 0 0-1.27-2.24c-1.65-2.63 4.83-4.94 4.83-4.94z"/><path class="cls-11" d="m372.59 190.75 2.46-5.45s4.37-3.39 3.82-1.68c-.26.27-4.22 7.38-6.28 7.13z"/><path class="cls-15" d="M379.38 180a.17.17 0 0 1 .32 0l.46 2.3s.66 2.59-3 6.94a10.85 10.85 0 0 0-2.1-3.94s3.17-2.58 4.32-5.3z"/><path class="cls-11" d="M365 182.3s-.52 1.19.92 4c.65 1.29 1.85 3.45 2.64 3.45a23.86 23.86 0 0 1 1.28-2.51c1.65-2.63-4.84-4.94-4.84-4.94z"/><path class="cls-11" d="m372.59 190.75-2.46-5.45s-4.38-3.39-3.82-1.68c.25.27 4.21 7.38 6.28 7.13z"/><path class="cls-15" d="m366.07 179.9-1.07 2.4s-.39 2.59 3.29 6.94a12.87 12.87 0 0 1 1.83-3.94s-3.09-3-3.74-5.38a.17.17 0 0 0-.31-.02z"/><path class="cls-20" d="M379.43 170.77c-1.86-.89-2.53-3.77-6.42-3.13-2.25.37-3.3-1.26-5.17-2.59-2.71 1.28-2.16 3.94-3.6 5.18a2.72 2.72 0 0 0-1 2.45 43.47 43.47 0 0 0 1 5.12 5.68 5.68 0 0 0 1.7 2.86c1.64 1.49 4.51 3.79 6.49 3.79s4.51-1.9 6.06-3.2a5.73 5.73 0 0 0 1.81-2.79 34.16 34.16 0 0 0 1-4.22 3.27 3.27 0 0 0-1.87-3.47zM379.62 214.93c3.6 1.16 12.09-.23 13.62 1.39 1.29 1.36.43 5.55-5.37 5.56a36 36 0 0 1-11.21-2.88c-4.66-2.08-3.89-7.75 2.96-4.07z"/><path class="cls-19" d="M365.21 209.23c-3.6 1.17-14.89 3.89-16.42 5.51-1.29 1.36-1.57 6 4.37 4.79s9.73-5.62 14.36-7.7 4.54-6.28-2.31-2.6z"/><path class="cls-19" d="M363.22 210.53c1.78-1 2.82-4 3.56-4.93s5.12-2.85 5.79-2.85 4.2 2.85 4.2 2.85l-1.32 5.66-3.8-4.32s-10.2 4.61-8.43 3.59z"/><path class="cls-15" d="M370.07 203.14h5.73a1.4 1.4 0 0 1 1.4 1.4v10.82a1.4 1.4 0 0 1-1.4 1.4h-6.08c-.77 0-1.05-.62-1.05-1.4v-10.82a1.4 1.4 0 0 1 1.4-1.4z"/><path class="cls-24" d="M370.07 203.9h5.73a1.4 1.4 0 0 1 1.4 1.4v10.45a1.4 1.4 0 0 1-1.4 1.4h-6.08c-.77 0-1.05-.63-1.05-1.4V205.3a1.4 1.4 0 0 1 1.4-1.4z"/><path class="cls-15" d="M370.13 204.94c.3 0 .54.15.54.33s-.24.33-.54.33-.55-.15-.55-.33.24-.33.55-.33z"/><path class="cls-20" d="M366.32 207.17a2.93 2.93 0 0 1 1.36.4c1.63.74 7 3.84 8.2 3.73 1.39-.12.8-1.91.8-1.91-.13-1.06.22-2.45 1.07-2.45.47 0 .25 1.19.37 2.42l1 3.68.95 3.72s-1.35 2.68-3.43 2.24a48.62 48.62 0 0 1-7.49-1.95c-1.06-.49-1.5-1.61-1.27-1.9a.79.79 0 0 0 0-.84 1.31 1.31 0 0 1 0-1.2.75.75 0 0 0 0-.79c-.37-.67-.08-1.6.77-1.43 1.11.37 1.94 1.19 1.65.17-1-.69-4.34-2.5-4.53-3.1-.11-.38-.04-.69.55-.79z"/><path class="cls-28" d="M417.63 419.33a32 32 0 0 1-16.63 4.81c-9.45 0-17.47-4.73-18.42-4.92a23.14 23.14 0 0 0-1.71 3.3.2.2 0 0 0 0 .21l15.25 18a27.52 27.52 0 0 0 7.84.12l15.3-18.35a.23.23 0 0 0 0-.24s-1.53-2.98-1.63-2.93z"/><path d="M418.52 423.43a8.92 8.92 0 0 0-.89-1.51 32 32 0 0 1-16.63 4.81c-9.45 0-17.47-4.74-18.42-4.92a18.9 18.9 0 0 0-1 1.74l-.69-.82a.2.2 0 0 1 0-.21 23.14 23.14 0 0 1 1.71-3.3c.95.19 9 4.92 18.42 4.92a32 32 0 0 0 16.65-4.81c.1-.05 1.66 3 1.66 3a.23.23 0 0 1 0 .24z" style="fill:#2a2a2b"/><path class="cls-28" d="M379.59 439.35c-5.89-2.84-18.77-10.5-24.2-22-.75-1.6 1.14-8.33 7.32-6.16 3.82 1.35 23.7 8.07 26.91 12.33 5.2 6.88 5.44 13.15 6.51 17.21-2.92 1.27-13.59.04-16.54-1.38zM421.24 439.39c5.89-2.84 22.95-15.13 23.74-22 .21-1.76 1.92-7.13-5.42-6.9-3.82 1.35-25.2 9.13-28.81 13.07-4.52 4.93-6 13.46-6.5 17.21 2.92 1.23 14.04.05 16.99-1.38z"/><path class="cls-30" d="M382.08 436.14a107.91 107.91 0 0 0 14.05-1.42c6.69-2.73 43.37-23 43.37-23 5.93-1.57 7.53 3.62 5.73 6.78-4.67 8.23-9.06 13-25.66 15.15-4.94.65-14.28 3.44-19.35 5.33-.34 1.16-1.53 2.46-4.3 2.73-1.47.15-9.85 3.15-13.75 2.81-6.49-.57-6.46-3.47-6.49-4.75s1.57-3.41 6.4-3.63z"/><path class="cls-31" d="M382.08 436.14a107.91 107.91 0 0 0 14.05-1.42l.52-.23 4.52 4.1-.95.35c-.34 1.16-1.53 2.46-4.3 2.73-1.47.15-9.85 3.15-13.75 2.81-6.49-.57-6.46-3.47-6.49-4.75s1.57-3.37 6.4-3.59z"/><path class="cls-32" d="M382.17 444.48c-6.49-.57-6.46-3.47-6.49-4.75s1.22-2.9 4.85-3.44a9.51 9.51 0 0 1 2.47 6.31c7.34.29 13.83-2.29 17.24-3.62-.36 1.14-1.55 2.42-4.29 2.69-1.5.15-9.88 3.15-13.78 2.81z"/><path class="cls-33" d="M392.49 434.87h0a7.83 7.83 0 0 1 1.17 4.16v.31M390.51 435.19h0a7.83 7.83 0 0 1 1.17 4.16v.31M388.5 435.45h0a7.69 7.69 0 0 1 1.17 4.15v.32M386.8 435.64h0a7.83 7.83 0 0 1 1.2 4.16v.31"/><path class="cls-25" d="M396.13 434.72c1-.42 2.74-1.26 4.91-2.4 1.54.85 3.36 1.87 3.8 2.07s4 .58 6.35 1.09c-4 1.08-8.14 2.4-11 3.46a3 3 0 0 1-.37.79c-3-1.61-10.29-2.69-13.21-3.87a83.62 83.62 0 0 0 9.52-1.14z"/><path class="cls-34" d="M439.56 410.49s-20.1 11.65-33.26 18.65a31.4 31.4 0 0 0 .5 5.79 50.75 50.75 0 0 0 4.51 6.17c4.74-3.11 7-4.51 9.86-5.39 19.24-5.85 21-8.59 25.65-16.81 1.8-3.16-1.32-9.98-7.26-8.41z"/><path class="cls-25" d="m447 418.47.09-.23v-.13l.06-.22v-.37a.88.88 0 0 1 0-.16 1.79 1.79 0 0 1 0-.23V417a1.77 1.77 0 0 0 0-.23.81.81 0 0 0 0-.16 2 2 0 0 0 0-.25V415.79c0-.08 0-.17-.05-.26v-.15a2.68 2.68 0 0 0-.07-.27v-.14l-.09-.27v-.13l-.12-.29v-.12l-.14-.3-.05-.1-.17-.31v-.08a3.53 3.53 0 0 0-.21-.32 3.32 3.32 0 0 0-.26-.36c-.12.22-.25.44-.37.67-5.36 10.07-32.9 19.72-38.69 21.66a51.82 51.82 0 0 0 4.51 6.16c4.74-3.11 7-4.51 9.86-5.39 19.24-5.85 21-8.59 25.65-16.81.06-.11.11-.21.16-.32a.49.49 0 0 0-.11-.19z"/><path class="cls-35" d="M406.8 434.93a2.49 2.49 0 0 1-.07-.29 56.84 56.84 0 0 0 11.49 1.75h1a55.55 55.55 0 0 0-7.9 4.67 50.75 50.75 0 0 1-4.52-6.13z"/><path class="cls-30" d="M361.24 412.27s37.3 21.21 43.58 22.7a91.53 91.53 0 0 0 14.39 1.46c4.84.06 5.44 2.34 5.42 3.63s-2.7 4.17-4.69 4.42c-6.14.78-13.52-2-15-2.16a5.35 5.35 0 0 1-4.88-3.75c-4.72-1.92-15-4.19-19.26-4.71-16.74-2-21-7.67-25.67-15.89-1.78-3.17.17-7.27 6.11-5.7z"/><path class="cls-34" d="M361.16 410.8s20.1 11.65 33.27 18.65a31.4 31.4 0 0 1-.5 5.79 51.84 51.84 0 0 1-4.51 6.17c-4.74-3.11-7-4.51-9.86-5.39-19.25-5.85-21-8.59-25.66-16.81-1.8-3.16 1.33-9.98 7.26-8.41z"/><path class="cls-25" d="M353.7 418.78a1.55 1.55 0 0 1-.08-.23.65.65 0 0 1 0-.13 1.8 1.8 0 0 1-.06-.22v-.15a1.7 1.7 0 0 1 0-.22v-.16a1.64 1.64 0 0 1 0-.23v-1.21a.77.77 0 0 0 0-.15 2.56 2.56 0 0 0 0-.27v-.14a2.68 2.68 0 0 1 .07-.27v-.15l.09-.27c0-.05 0-.09.05-.13a2.49 2.49 0 0 1 .11-.29l.05-.12c0-.1.09-.2.14-.3l.05-.1c0-.1.1-.2.16-.3a.56.56 0 0 1 .05-.08 3.62 3.62 0 0 1 .2-.33v-.05c.09-.13.17-.25.26-.36.13.21.25.43.38.66 5.35 10.07 32.9 19.72 38.69 21.66a51.82 51.82 0 0 1-4.51 6.16c-4.74-3.11-7-4.51-9.86-5.39-19.25-5.85-21-8.59-25.66-16.81-.06-.11-.11-.21-.16-.32a.49.49 0 0 0 .03-.1z"/><path class="cls-35" d="M401 424.14a29.31 29.31 0 0 0 3.17-.17v2.55a.64.64 0 0 1-.64.64h-5.05a.65.65 0 0 1-.65-.64V424a30 30 0 0 0 3.17.14z"/><path d="M398.48 424v1.85a.38.38 0 0 0 .38.38h4.24a.38.38 0 0 0 .38-.38V424h.67v2.55a.64.64 0 0 1-.64.64h-5.05a.65.65 0 0 1-.65-.64V424z" style="fill:#dbddd9"/><path class="cls-18" d="M395.49 371.57c-2-.91-5.21-4.69-6.24-12.7-.75-5.9-1.51-12.59 5.7-13.83 4.53-1.51 15.49-2.73 17.49 4.9 1 9-2 22-6.44 21.59-.16 2.84-4.95 2.1-6.17 2.42-3.09.82-4.34-2.38-4.34-2.38z"/><path class="cls-30" d="M429.13 415.09c-4.21 1.49-8.7-2.49-8.7-2.49s-2.05-11.31-1.43-14.15c2.86-.21 10.09-2.14 11.38-4.41 1.79 9.21-1.26 16.14-1.25 21.05z"/><path class="cls-25" d="M425.75 414.89c-2.26-.82-5.32-2.29-5.32-2.29s-.42-2.29-.82-5.07c3.97 1.24 8.16 6.23 6.14 7.36z"/><path class="cls-37" d="M374 396.69c-1.27-5.45-.08-14.92 5.94-19.45 7.18-3.11 24.54-9.21 42.58-1.24 9 3.9 7.66 13.91 7.89 18-2 2.88-9.38 5.67-11.68 5.41-.7 1.05-1.67 16.13-1.07 19.88-4.81 3.5-8.1 4.81-16.65 4.81-9.11 0-11-.08-18-4.92.87-3.64 2.56-18.82 2.16-19.81-.57.7-9.94 2.77-11.17-2.68z"/><path class="cls-38" d="M394 377.17a2.57 2.57 0 0 1-.78-2.24 30.13 30.13 0 0 0 .34-7.32c-.42-2.84 14.53-1.2 14.53-1.2s.08 5.54.49 8.29a2.56 2.56 0 0 1-.51 2 10 10 0 0 1-7 3.18 9.54 9.54 0 0 1-7.07-2.71z"/><path class="cls-30" d="M411.51 359.43a1.15 1.15 0 0 1 1.06.83c.32 1.5-.3 4.59-1.07 5.28a4 4 0 0 1-1.67.75z"/><path class="cls-25" d="M411.25 362.93c-.13 1-.37 1.35-.81 1.29s-.7-.92-.57-1.93.58-1.79 1-1.74.5 1.37.38 2.38z"/><path class="cls-30" d="M390.45 359.43a1.31 1.31 0 0 0-1.16.81c-.36 1.38 0 4 1 4.94a4 4 0 0 0 1.43.82z"/><path class="cls-25" d="M390.47 362.86c.12 1 .36 1.42.8 1.36s.7-.92.57-1.93-.58-1.79-1-1.74-.5 1.3-.37 2.31z"/><path class="cls-30" d="M409 356.83c1.13.54.64 5.84.64 7.13 0 .51.55.27.83.26a29.64 29.64 0 0 1-.66 6.54c-.36 1.22-5.66 5.21-8.8 5.21s-8.85-4.71-9.15-5.94a34.47 34.47 0 0 1-.56-5.81c.43.07.78.08.78-.29 0-.56-.78-7.26 2.37-8.71 2.06 1.49 12.29 2.19 14.55 1.61z"/><path class="cls-25" d="M421.16 389.19a.86.86 0 0 0 .09.39c-.35.06.35 4.1-2.52 9.9a35 35 0 0 0-.76 5.94c-1.62-3.26-4.43-4.55-8.57-5.07 2.43-.35 9.3-.9 11.76-11.16zM385 392c.79 8.52 3.36 10.09 6.69 10.47-1.84.33-6.68 0-8.7 9.19 0-3.37 1.67-7.68 2.19-12.27.34-3.1-.53-7.5-.18-7.39z"/><path class="cls-31" d="M404 434.71c.32.11.6.2.84.26a91.53 91.53 0 0 0 14.39 1.46c4.84.06 5.44 2.34 5.42 3.63s-2.7 4.17-4.69 4.42c-6.14.78-13.52-2-15-2.16a5.35 5.35 0 0 1-4.88-3.75s2.92.81 2.3-.63a2.34 2.34 0 0 1 1.57-3.15c.05-.02.11-.05.05-.08z"/><path class="cls-32" d="M418 443.14a8.59 8.59 0 0 1 .73-6.72h.5c4.84.06 5.44 2.34 5.42 3.63s-2.7 4.17-4.69 4.42c-6.14.78-13.52-2-15-2.16a6.06 6.06 0 0 1-3.42-1.44c4.11 1.13 16.51 4.21 16.46 2.27z"/><path class="cls-33" d="M408 435.26h0a7.82 7.82 0 0 0-1.17 4.15v.32M410 435.57h0a7.83 7.83 0 0 0-1.17 4.16v.27M412 435.83h0a7.74 7.74 0 0 0-1.2 4.17v.32M413.67 436h0a7.83 7.83 0 0 0-1.17 4.16v.31"/><path class="cls-25" d="m417.51 418.05-3.73-2.34c-2.18-1.24-3.91-2.19-3.91-2.19l-1.16-2.27c-.1-.42.14-1.14-.39-1.15a1.72 1.72 0 0 0-1.43.55v-2c0-.48-.71-.87-1.59-.87h-6.5c-.88 0-1.59.39-1.59.87v2s-.74 4.7.43 5.76c1.31.49 5 .41 5.11.84A71.84 71.84 0 0 0 411 423a23.24 23.24 0 0 0 6.63-3.62c-.05-.38-.09-.82-.12-1.33z"/><path class="cls-30" d="M406.3 409.6c4.08 1.32 9.92-1.12 14.39.17 5.28 1.52 6.34 2.33 8.08 4.17 1.47 1.54-1.34 5.08-7.91 4.92s-12-2.77-17.23-5.14-5.11-8.3 2.67-4.12z"/><path class="cls-38" d="M378.51 417.12c4.42.65 8.07-4.11 8.07-4.11s-1.06-11.16-1.41-13.6c-2.85.35-9.5-.74-11.2-2.72.03 9.38 3.61 15.6 4.54 20.43z"/><path class="cls-25" d="M379.93 413.53c-.25 1.3 1.3 2.36 3.82 2.1l.62-.45.54-.45c.17-.14.33-.29.47-.43.59-.57 1-1 1.12-1.2l.05-.06s-.48-5-.89-9c-2.41 1.96-5.3 7.28-5.73 9.49z"/><path class="cls-38" d="M394.76 402.23c-2.73 3.31-8.76 3-11.84 6.47-3.64 4.12-4.09 5.37-4.57 7.85-.41 2.09 3.85 3.57 9.32-.09s8.6-8.77 11.77-13.59-.36-8.33-4.68-.64z"/><path class="cls-38" d="M392.55 404c1.75-2.43 2.42-5.56 3.58-6.86.84-1 4.47-2.08 5.92-2.15a1.77 1.77 0 0 1 1.45.63l3.31 3.83-11.05 6.78s-4.96.16-3.21-2.23z"/><path d="M399.68 396.23h6.51a1.59 1.59 0 0 1 1.59 1.59v12.28a1.59 1.59 0 0 1-1.59 1.59h-6.9c-.88 0-1.19-.71-1.19-1.59v-12.28a1.59 1.59 0 0 1 1.58-1.59z" style="fill:#d1d3d4"/><path class="cls-15" d="M399.68 397.1h6.51a1.59 1.59 0 0 1 1.59 1.58v11.86a1.59 1.59 0 0 1-1.59 1.59h-6.9c-.88 0-1.19-.72-1.19-1.59v-11.86a1.58 1.58 0 0 1 1.58-1.58z"/><path d="M400 398.27c.35 0 .63.17.63.38s-.28.37-.63.37-.62-.17-.62-.37.3-.38.62-.38z" style="fill:#2a1b40"/><path class="cls-30" d="M395.41 400.83a2.28 2.28 0 0 1 1.29.3c1.85.84 8.46 4.54 9.84 4.42 1.58-.14.91-2.17.91-2.17a4.17 4.17 0 0 1 .24-1.61c.4-1.11 1-1.25 1.51-1.23s.29 1.36.4 2.12l1.15 4.19-1.85 5.79-5.27 1.08c-.07-.49-3.11-.86-5-1.7-1.21-.56-1.7-1.83-1.45-2.16a.88.88 0 0 0 0-.95 1.4 1.4 0 0 1 0-1.36.88.88 0 0 0 0-.9c-.43-.76-.1-1.82.87-1.62 1.26.42 2.2 1.35 1.87.19-1.1-.78-4.92-2.84-5.15-3.52-.09-.44-.03-.7.64-.87z"/><path style="fill:#77bc4a" d="m716.82 414.8 5.45 5.55-7.97 2.45-4.74-5.6 7.26-2.4z"/><path class="cls-24" d="M718.76 418.39c.69-.1 3.71-3.53 3.71-3.53a3 3 0 0 1 1.72 2.7v1.59l8.67 3.19a2.07 2.07 0 0 1 1.31 1.59 2.05 2.05 0 0 1-1.51 2.33 25.84 25.84 0 0 1-7.17.8l-14-.43a2.65 2.65 0 0 1-2.54-3.05l.43-2.69a1.6 1.6 0 0 1 2-1.31c1.26.31 2.8.69 3.14.74.59.1 4.24-1.93 4.24-1.93z"/><path class="cls-42" d="M732.66 426.26a2.05 2.05 0 0 0 1.51-2.33 2.16 2.16 0 0 0-.18-.56 12 12 0 0 1-8.55 2.14L709 423.33v.25a2.65 2.65 0 0 0 2.54 3.05l14 .43a25.84 25.84 0 0 0 7.12-.8z"/><path class="cls-43" d="m724.53 419.04-1.91 1.93M726.33 419.62l-1.75 1.75M728.01 420.36l-1.48 1.48M729.6 420.86l-1.17 1.18"/><path class="cls-5" d="M736.34 416.14c5.15-1.63 8.09-6.9 8.09-6.9l.59 11.37s.52 5.15-3.73 3.25-17.07-1.23-17.07-1.23-1.26-5.06 0-5.86c2.45-1.57 8.72.45 12.12-.63z"/><path class="cls-24" d="M741.34 415.54c0-.69-2.93-4.2-2.93-4.2a3 3 0 0 1 2.93-1.29l1.57.24 4.46-8.09a2.08 2.08 0 0 1 1.77-1.06 2.06 2.06 0 0 1 2.07 1.85 25.27 25.27 0 0 1-.29 7.21l-2.53 13.8a2.66 2.66 0 0 1-3.39 2l-2.59-.83a1.61 1.61 0 0 1-1-2.15c.5-1.19 1.1-2.66 1.21-3 .17-.56-1.28-4.48-1.28-4.48z"/><path class="cls-42" d="M751.21 403a2.06 2.06 0 0 0-2.07-1.85 1.91 1.91 0 0 0-.58.1 12 12 0 0 1 .82 8.78l-4.63 15.91.23.08a2.66 2.66 0 0 0 3.41-2.05l2.53-13.76a25.27 25.27 0 0 0 .29-7.21z"/><path class="cls-43" d="m742.85 409.93 1.62 2.19M743.69 408.25l1.47 1.98M744.68 406.69l1.24 1.69M745.42 405.2l.98 1.33"/><path class="cls-44" d="M662.59 405.32c17.6-15.85 29.47-27 36.17-18.89 8.84 9.68 6.87 10 18.47 28.92l-5.36 6-19.31-20.56-18.77 17.8-25.15-.6-2.09-11.76a12.22 12.22 0 0 0 16.04-.91z"/><path class="cls-9" d="M662.59 405.32c17.6-15.85 29.47-27 36.17-18.89 8.84 9.68 6.87 10 18.47 28.92l-5.36 6-19.31-20.56-18.77 17.8-25.15-.6-2.09-11.76a12.22 12.22 0 0 0 16.04-.91z"/><path class="cls-45" d="m709.69 381.45-3.81-1.45-1.81-1.25.3-1.11a.55.55 0 0 0-.9-.25l-3.22 2.87-2.35 3.47-18.28.46-6.13-10-5.44.6s3.83 14.12 7.08 16.82c2.11 1.29 17.73-2.36 23.45-3.76 3.22-.78 3.12 1.53 7.3-1.7.73-.57 1.06-1.59 1.82-2.5 1.1-1.29 1.99-2.2 1.99-2.2z"/><path d="m694.54 383.08-14.65.62-7-15-8.66 5.84s6.6 15.33 9.85 18c2.11 1.28 13.83-1.2 19.55-2.6 2.63-.64 1.92-4.89 1.57-6.42a.66.66 0 0 0-.66-.44z" style="fill:#ddab2f"/><path class="cls-24" d="m707.21 374.74-7.45 8.44a.53.53 0 0 0 0 .74l2.55 2.26 8.19-9.18-2.5-2.3a.53.53 0 0 0-.79.04z"/><rect class="cls-15" x="699.56" y="378.67" width="10.54" height="2.96" rx=".37" transform="rotate(-48.54 704.86 380.154)"/><rect class="cls-47" x="700.47" y="381.15" width="12.31" height="1.17" rx=".33" transform="rotate(-48.54 706.655 381.737)"/><path class="cls-15" d="m709.8 377.8-.68.77a.22.22 0 0 0 0 .31.22.22 0 0 0 .32 0l.67-.76a.23.23 0 0 0 0-.32.22.22 0 0 0-.31 0zM708.09 379.74l-1.61 1.82a.23.23 0 0 0 0 .32.22.22 0 0 0 .31 0l1.61-1.82a.23.23 0 0 0 0-.32.22.22 0 0 0-.31 0z"/><path class="cls-45" d="M705.58 381a.82.82 0 0 1 .86-.81l2.76.08a.83.83 0 0 1 .81.86.84.84 0 0 1-.86.81l-2.76-.08a.83.83 0 0 1-.81-.86z"/><path class="cls-45" d="M704.52 382.43a.84.84 0 0 1 .86-.81l2.77.08a.84.84 0 0 1 .81.86.84.84 0 0 1-.86.81l-2.77-.08a.84.84 0 0 1-.81-.86z"/><path class="cls-45" d="M703.54 383.54a.85.85 0 0 1 1-.66l2.71.55a.83.83 0 0 1 .65 1 .83.83 0 0 1-1 .65l-2.71-.55a.84.84 0 0 1-.65-.99z"/><path class="cls-45" d="M703 384.55a.7.7 0 0 1 .88-.43l2.16.75a.68.68 0 0 1 .43.87.69.69 0 0 1-.88.43l-2.16-.74a.7.7 0 0 1-.43-.88z"/><path class="cls-25" d="M691.56 396.32c8.74 9.59 22.69 22.72 22.69 22.72l-3.08 1.64-18.61-19.85-18.77 17.8-25.15-.6s35.86-2.22 42.92-21.71z"/><path class="cls-43" d="M675.35 367.68v8.5M675.35 367.68s2.36 7.11 1.78 11.2"/><path class="cls-30" d="m665.16 360.26 3.64-7-.93-10.08 9-6.72 11.68 8.22-1.62 4.72-.94 5.88a1.4 1.4 0 0 1-1.25 1.31l-.73.07-2.09 3.76a3.17 3.17 0 0 1-4.45 1.2l-.63-.42-3.16 5.45z"/><path class="cls-44" d="M643.76 411.3v6.31c0 4.82 2.91 8.71 8.41 9.44s29.65-2.43 47.77-1.2 34.87-1.45 36-2.87 2.3-5.59.12-7.31-36-4.73-36-4.73c-7.84 0-26-.19-33.73-1.38l-3.77-4.24z"/><path class="cls-25" d="M652.17 427.05c-4.06-.54-6.7-2.8-7.81-5.89 4.63 4.82 9.76 5.6 16.25 3.74 12.83-3.69 31.57 1.58 39.33-.54s37.17-2.81 36-1.38-17.9 4.09-36 2.87-42.26 1.93-47.77 1.2z"/><path class="cls-48" d="M668.31 356.13c-8.64.54-23.21 9.56-26.06 28.2s-1.25 33.95 3.62 34.81 22.59-3 21.67-12.78-9.49-11.33 4-25.55a13.54 13.54 0 0 0 3.83-9.88c-.44-8.79-5.11-14.93-7.06-14.8z"/><path class="cls-37" d="M667 355.27s4.63-2.67 4.79-3.16l1-3a3 3 0 0 1 3.62-1.85l-.77 3.5 1.53.53 2.09-5.91a1.73 1.73 0 0 1 2.43-.95l5.8 3.1 1-.38A5.62 5.62 0 0 0 692 343a5.6 5.6 0 0 0-1.17-4.66l-3.67-4.34-1.3 2.23-2.76-1.84a10.7 10.7 0 0 0-9.5-1.19l-1 .33a10.74 10.74 0 0 0-6.76 7.17 10.91 10.91 0 0 0-.22 5 69.82 69.82 0 0 1 1.19 8z"/><path d="M673.7 357.66a10.7 10.7 0 0 0 1 7l2-3.52z" style="fill:#efa878"/><path class="cls-42" d="M675.22 369.37s-3.86-10.62-18.9-6.53a6.23 6.23 0 0 1-4.08-.1c-1.1-.07-.51-5.26 3-5.25 1.59 0-.82-1.67 1.92-3.2a11.35 11.35 0 0 1 12.11 1.36c3.73 3.03 9.01 12.54 5.95 13.72z"/><path d="m696.4 387.08.39-4.34 3.45-3.39 3.75-.92a2.12 2.12 0 0 1-1.28 2l-1.56.67 2.27.51.74 1.48-.52 2.82s-2.42 5.07-10.4 7.2-8.15-3.57-8.15-3.57z" style="fill:#f9b78a"/><path class="cls-42" d="M663.25 362.87c4.43-1.17 8.3 2.68 9.31 7.25.6 2.73.68 18.47.68 18.47l20.76-1s.87 5.66-.06 6c-3.54 1.12-27.45 8.16-30 5-2.18-2.73-4.08-13.14-5.85-19.65-2.84-10.55 1.37-15.08 5.16-16.07z"/><path class="cls-51" d="M57.49 294.63a.25.25 0 0 1 .15.35s-.93.87-.57 1.74a4.57 4.57 0 0 1 .26 2.66 2.35 2.35 0 0 1-1.55 1.76 9.83 9.83 0 0 0-7.35 2.18l-2.1 1.73a3.31 3.31 0 0 1-2.73.68l-2.41-.5a1.08 1.08 0 0 1-.85-1.28 1.09 1.09 0 0 1 1.09-.87l2.55.07a.27.27 0 0 0 .19-.08c.72-.74 6.61-7.11 7.39-7.86l1.54-1.86a.27.27 0 0 1 .28-.08z"/><path class="cls-52" d="M57.07 296.72a4.57 4.57 0 0 1 .26 2.66 2.35 2.35 0 0 1-1.55 1.76c-4.33-.63-8.34 5.5-8.34 5.5a3.27 3.27 0 0 1-2.74.68l-4.06-.91c-.59-.12-.42-1.87-.3-2.46a1.09 1.09 0 0 1 1.09-.87l2.55.07a.27.27 0 0 0 .19-.08c3.83 2.04 9.38-7.35 12.9-6.35z"/><path class="cls-52" d="m56.87 300.36-5.06 7.71-.64-.14 1.59-7.12 4.11-.45z"/><path d="M102.44 196.58s-8.94-.39-10.63 10.24c-1.3 8.2 5.64 11.63 5.81 18.65 3.55-1 8.44-4.28 9.18-8.26 1.6-8.55-4.36-20.63-4.36-20.63z" style="fill:#0c2128"/><path class="cls-51" d="M92.35 231.19a5.18 5.18 0 0 1 5-4.74l3-.47c2.13 0 3.72-2.72 3.5-4.5s-.39-3.24-.39-3.24l8.44-1 .39 3.23c.22 1.79 2 5 4 5.71l5.31 1.83c2 .7 1.8 5.2 1.46 7.31l-21 5-12.14 25.15-4.07.31 5.84-12.34z"/><path d="M103.91 221.48c-.21-1.79-.39-3.24-.39-3.24l8.44-1 .33 2.68a9.56 9.56 0 0 1-8.65 3.71h-.13a4 4 0 0 0 .4-2.15z" style="fill:#231f20;opacity:.1"/><path d="m109.12 273.5-8.44.36c-7.26-1.41-16.88-5.45-19.23-7.05l21.18-5z" style="fill:#010326"/><path class="cls-56" d="M92.87 244.8a10.71 10.71 0 0 1-.15-6.6c.89-2.95 2.41-6.08 4.65-11.75l3-.47c.71 0-5.23 9.65.31 10 9.21.67 14.82-10.06 15.6-9.79l5.31 1.83c2 .7-7.39 31.34-7.39 31.34v8.66l-22.5-9.22 3.6-5.57z"/><path class="cls-31" d="M70.47 263.25c3.46-7.07 7.66-5.89 7.66-5.89s20.37-.87 31 2.06a8.85 8.85 0 0 1 5.49 12.82c-.11.18-.21.35-.33.53-.83 1.29-4.54 2.59-8.58 2.7-14.32.39-26.47-8-26.47-8 .83 2.81-.79 8.41-3.58 11-7.13 6.54-18.39 17.45-18.39 17.45l-4.81-1.56c-.53-.22 15.73-26.45 18.01-31.11z"/><path d="m74.11 268.84 5.09-1.4c2.51 1.7 12.76 6 20.49 7.51l-17.39.61a23.47 23.47 0 0 1 1.59 8.85c-.18 8.06-1.89 26.2-1.89 26.2h-4.21s-4.08-28.24-5.44-33.21c-2.04-7.4 1.76-8.56 1.76-8.56z" style="fill:#06316d"/><path class="cls-15" d="M122.37 238.64s1.48 14.78 1.71 19.2-7.43 7-8.81 1.43c-.45-19.81 6.36-31.29 6.36-31.29a7.4 7.4 0 0 0-2.39-.82c-1.06-.09-5.52 5.27-7 34.89-3.2 22.17 1.46 22.26 1.46 22.26s15.42 2.63 19.78-7.76c.91-3.12-3.59-12.28-5.82-19.31-4-12.6-2.79-13.43-5.29-18.6z"/><path class="cls-25" d="M122.74 272.56c2.57 2.08 1.54-13.28 1.33-14.16-.39 3.9-6.9 6-8.6 1.49.8 2.32 3.8 9.86 7.27 12.67z"/><path d="M95.45 250.69s4.12-.58 4.28-.57l16.63 2.21.77-18.15c.09-3.29 2.26-6.29 4.5-6.2a4 4 0 0 1 3.72 4.3 71.29 71.29 0 0 1-5.14 24.33 2.23 2.23 0 0 1-2.51 1.77l-18.28-4.79c-.6-.05-1.43.7-1.68 1.12-.37.64-1 .57-1.45.81 0 0-6.5.23-6.35-.85s3.93-3.59 5.51-3.98z" style="fill:#bc7d51"/><path class="cls-15" d="M76.52 245.23h14.89a.93.93 0 0 1 .86.57l6 11.68a.82.82 0 0 1-.12.93l-22.66-12.15.17-.43a.92.92 0 0 1 .86-.6z"/><path d="M76.28 245.53h14.89a.8.8 0 0 1 .73.48l2.92 5.81 3.3 6.59h-16.6l-6-11.79a.78.78 0 0 1 .76-1.09z" style="fill:#c5c8c9"/><path class="cls-24" d="M77.88 251.77a.52.52 0 0 1 .44-.24h15.54a.44.44 0 0 1 .38.68l-3.69 6a.52.52 0 0 1-.44.24h-15.5a.51.51 0 0 1-.44-.79z"/><path class="cls-51" d="M95.65 209.73c.8 1.66-.42 4.83.34 6.42a36.69 36.69 0 0 0 4.47 6.1 3.63 3.63 0 0 0 2.78 1.36 3.56 3.56 0 0 0 1.86-.76l6.52-5.23-3.07-15.84-11.68 1-1.16 1.71a4.43 4.43 0 0 0-.52 3.92z"/><path class="cls-52" d="M95.71 204.46a15.6 15.6 0 0 1 10.37 4.27c1.08 1.05 2.22 4.16 4.58 5.17 1.41 5.36.09 7.45-1.54 13.17 4.5-1.6 12.31-6.29 12.8-13.89s-2.93-13.85-7.29-16.53-9.29-3.08-13.33-.88-6.3 5.75-5.59 8.69z"/><path class="cls-51" d="M109 211.58a2.2 2.2 0 0 1 1.3-1.76 1.72 1.72 0 0 1 1.13-.06c1.34.4 1.18 4.48-.73 5.08-1.38.44-1.86-1.92-1.7-3.26z"/><path d="M111.61 214.68a.83.83 0 1 1-.71-.93.82.82 0 0 1 .71.93z" style="fill:#ffcf6e"/><path class="cls-52" d="M74.54 320.13c-2.36 1.4-2 3.36 0 4.21a4.73 4.73 0 0 0 5.26-1.61c.45-1 2.2-8.77 2.2-8.77h-5z"/><path class="cls-52" d="M82 310.61c1 .54 1.14 1.71 1 2.93-.23 2.52-.39 6.92-.39 6.92H81l-.44-6.08 1.44-3.77"/><path class="cls-51" d="m77.79 310.61-3.25 9.52s0 .82 2.21.89 2.26-2.14 3-4.33 2.11-3.08 2.27-5.11v-1z"/><path d="M213 348.32c.68-2.28 2.11-6.4 6.29-6.21 5.07-3.33 11.59-.35 14 3.33 7.4 11.47-3.91 42.44-5.68 44-2.34 2.06-7.48-24.72-7.48-24.72a13.64 13.64 0 0 1-7.13-16.4z" style="fill:#d84439"/><path class="cls-62" d="M220 348.69c3.6-3 9.63-.71 11 3.06 2.2 5.95-.1 16.71-1.24 22.59-1.71 8.92-8.3-19.97-9.76-25.65z"/><path class="cls-63" d="M212.62 408.5h23.52v8.32h-23.52z"/><path d="m227.08 368.26 2.83.72a27.51 27.51 0 0 1 7.58 2.84 8.63 8.63 0 0 1 4.36 6.59c.73 6.69.55 16.41-1.76 22.1l-7.46 8.35-5.74 3.41s-13.38-10.39-17.85-14-4.23-10.71-3.37-16.75 2.78-10.67 10.81-12.91c.36-.1.72-.19 1.06-.25l2.45-.46z" style="fill:#ffe12e"/><path class="cls-65" d="M215 375.59s.49 9.89-1.56 14.18 2.07 3.79 2.07 3.79.98-14.45-.51-17.97zM233.53 395.31s-1.18-8.71-.6-13.17a9 9 0 0 1 3.27-6.26 37.25 37.25 0 0 0-1.85 6.49c-.44 2.88-.82 12.94-.82 12.94z"/><path class="cls-63" d="M229.24 424.29h-9.41a9.68 9.68 0 0 1-9.66-9L209 399l10.37.95 5.05 14.86 6.33-17.75 9.72-.13-1.61 18.48a9.69 9.69 0 0 1-9.62 8.88z"/><path class="cls-11" d="M218.13 448.63a3.18 3.18 0 0 0 3.62-2.13l1.38-7.39c.57-1.74.56-3.31-1.18-3.88-1.74-.57-2.68.68-3.25 2.43l-3.18 6.53a3.43 3.43 0 0 0 2.61 4.44z"/><path class="cls-66" d="m216.51 443.41 3.58-7.73 2.06-9.47 5.17 1.69-4.12 9.4-1.59 8.05-5.1-1.94z"/><path class="cls-67" d="m216.51 443.41 3.58-7.73 2.06-9.47 5.17 1.69-4.12 9.4-1.59 8.05-5.1-1.94z"/><path class="cls-68" d="m227.32 427.9 12.93-28.9a5.52 5.52 0 0 0-3.53-7 5.52 5.52 0 0 0-7.13 4.09l-7.44 30z"/><path style="opacity:.07" d="m223.67 426.71 3.65 1.19 1.74-3.88-3.18-12.86-3.27 13.18 1.06 2.37z"/><path class="cls-11" d="M231.15 448.63a3.16 3.16 0 0 1-3.61-2.13l-1.38-7.39c-.57-1.74-.57-3.31 1.18-3.88 1.74-.57 2.67.68 3.24 2.43l3.19 6.53a3.43 3.43 0 0 1-2.62 4.44z"/><path class="cls-66" d="m232.78 443.41-3.58-7.73-2.06-9.47-5.18 1.69 4.13 9.4 1.59 8.05 5.1-1.94z"/><path class="cls-68" d="M222 427.9 209 399a5.52 5.52 0 0 1 3.53-7 5.52 5.52 0 0 1 7.12 4.09l7.45 30z"/><path class="cls-66" d="M229.26 369.59a1.9 1.9 0 0 1-.73 3.26 18.92 18.92 0 0 1-4.83.49 13.44 13.44 0 0 1-5.82-1 1.89 1.89 0 0 1-.33-3.18 4 4 0 0 0 1.58-2.65l.69-4.68 7.19-.24 1 5.75a4 4 0 0 0 1.25 2.25z"/><path class="cls-67" d="M225 369.68a9.94 9.94 0 0 0 3.29-1.63 4 4 0 0 1-.19-.68l-1-5.75-7.19.24-.57 3.88a10.62 10.62 0 0 0 3.62 3.49 8.63 8.63 0 0 0 .79.36 1.91 1.91 0 0 0 1.25.09z"/><path class="cls-62" d="M213 348.32c.68-2.28 2.11-6.4 6.29-6.21 1.17 4.15.8 22.62.8 22.62a13.64 13.64 0 0 1-7.09-16.41z"/><path class="cls-66" d="M223.6 367.77a1.94 1.94 0 0 1-1.3-.09 8.37 8.37 0 0 1-.78-.36 12.08 12.08 0 0 1-5.11-6.47 5.23 5.23 0 0 1-.21-2.45l.32-2.24c-.1-1.21-.58-2.75.21-3.67l3.27-3.8 6.91 6.07c.48.34 4.06 4.52 3.53 6.22l-.07.22a9.88 9.88 0 0 1-6.77 6.57z"/><rect class="cls-15" x="218.25" y="368.84" width="6.99" height="12.66" rx=".42"/><rect class="cls-24" x="218.25" y="369.83" width="6.99" height="12.66" rx=".42"/><path class="cls-47" d="M220.07 371.22a.52.52 0 1 1-.52-.52.51.51 0 0 1 .52.52z"/><path class="cls-66" d="m239.85 390.91-12.69-8.09-.54-4.78a2.26 2.26 0 0 0-1.65-1.92l-6.5-1.75a.59.59 0 0 0-.74.63l.25 2.27a6.77 6.77 0 0 0 2.05 4.16l19.93 19a6.84 6.84 0 0 0 .23-9.14z"/><path class="cls-66" d="M212.15 392.23s14.39 6.83 19.07 6.67 6.18-.91 6.18-.91l2 1.87a2.14 2.14 0 0 1 .48 2.52l-.48 1a3.15 3.15 0 0 1-4.07 1.49l-4-1.75s-20.06-3.61-22.73-5.21-3.16-6.48-3.16-6.48a14.54 14.54 0 0 1 6.71.8z"/><path class="cls-12" d="M445.13 123.59a26.78 26.78 0 1 0-27.2 26.77v14l12-16.64a26.78 26.78 0 0 0 15.2-24.13z"/><path class="cls-15" d="M420.86 123.29a2.51 2.51 0 1 1-2.51-2.5 2.51 2.51 0 0 1 2.51 2.5zM430.67 123.29a2.51 2.51 0 1 1-2.51-2.5 2.51 2.51 0 0 1 2.51 2.5zM411.05 123.29a2.51 2.51 0 1 1-2.5-2.5 2.5 2.5 0 0 1 2.5 2.5z"/><path d="M739 304.38a17.28 17.28 0 1 0-17.55 17.28v9.06l7.7-10.72a17.27 17.27 0 0 0 9.85-15.62z" style="stroke-width:1.35px;fill:#7b63d3;stroke-miterlimit:10;stroke:#fff"/><path class="cls-15" d="M723.32 304.19a1.62 1.62 0 1 1-1.62-1.61 1.61 1.61 0 0 1 1.62 1.61zM729.65 304.19a1.62 1.62 0 1 1-1.62-1.61 1.62 1.62 0 0 1 1.62 1.61z"/><circle class="cls-15" cx="715.38" cy="304.19" r="1.62"/><path d="M110.52 142.88A17.28 17.28 0 1 0 93 160.15v9.06l7.72-10.74a17.28 17.28 0 0 0 9.8-15.59z" style="stroke-width:1.35px;fill:#f29120;stroke-miterlimit:10;stroke:#fff"/><circle class="cls-15" cx="93.24" cy="142.69" r="1.62"/><circle class="cls-15" cx="99.57" cy="142.69" r="1.62"/><circle class="cls-15" cx="86.91" cy="142.69" r="1.62"/><path class="cls-72" d="M632.62 202.76a17.47 17.47 0 1 0-17.74 17.46v9.16l7.8-10.85a17.48 17.48 0 0 0 9.94-15.77z"/><path class="cls-15" d="M616.79 202.57a1.64 1.64 0 1 1-1.64-1.64 1.64 1.64 0 0 1 1.64 1.64zM623.18 202.57a1.64 1.64 0 1 1-1.63-1.64 1.63 1.63 0 0 1 1.63 1.64z"/><circle class="cls-15" cx="608.76" cy="202.57" r="1.63"/><path d="M378.61 94.48c-14 0-25.42 8-25.42 17.82 0 5.84 4 11 10.2 14.28l13.25 10.54v-7.05c.65 0 1.31.06 2 .06 14 0 25.42-8 25.42-17.83s-11.41-17.82-25.45-17.82z" style="stroke-width:1.32px;stroke-miterlimit:10;stroke:#fff;fill:#24c7ed"/><path class="cls-15" d="M380.87 112.3a2.7 2.7 0 1 1-2.7-2.58 2.64 2.64 0 0 1 2.7 2.58zM391.41 112.3a2.7 2.7 0 1 1-2.69-2.58 2.63 2.63 0 0 1 2.69 2.58zM370.32 112.3a2.7 2.7 0 1 1-2.7-2.58 2.64 2.64 0 0 1 2.7 2.58z"/><path class="cls-72" d="M698.51 256.81c-9.55 0-17.29 5.67-17.29 12.66 0 4.15 2.72 7.83 6.93 10.14l9 7.49v-5h1.34c9.55 0 17.29-5.67 17.29-12.66s-7.72-12.63-17.27-12.63z"/><path class="cls-15" d="M700 269.47a1.84 1.84 0 1 1-1.83-1.83 1.83 1.83 0 0 1 1.83 1.83zM707.22 269.47a1.84 1.84 0 1 1-1.84-1.83 1.84 1.84 0 0 1 1.84 1.83zM692.87 269.47a1.84 1.84 0 1 1-1.84-1.83 1.83 1.83 0 0 1 1.84 1.83z"/><path class="cls-48" d="M257 158c-10.55 0-19.1 6.26-19.1 14 0 4.59 3 8.66 7.66 11.21l10 8.28V186c.49 0 1 .05 1.48.05 10.56 0 19.11-6.27 19.11-14S267.55 158 257 158z"/><path class="cls-15" d="M258.69 172a2 2 0 1 1-2-2 2 2 0 0 1 2 2zM266.62 172a2 2 0 1 1-2-2 2 2 0 0 1 2 2zM250.76 172a2 2 0 1 1-2-2 2 2 0 0 1 2 2z"/><path d="M67.71 166.53c-10.85 0-19.64 6.44-19.64 14.39 0 4.72 3.09 8.9 7.88 11.53L66.19 201v-5.69h1.52c10.86 0 19.65-6.44 19.65-14.39s-8.79-14.39-19.65-14.39z" style="stroke-width:1.41px;stroke-miterlimit:10;stroke:#fff;fill:#24c7ed"/><path class="cls-15" d="M69.46 180.92a2.09 2.09 0 1 1-2.09-2.08 2.09 2.09 0 0 1 2.09 2.08zM77.61 180.92a2.09 2.09 0 1 1-2.08-2.08 2.08 2.08 0 0 1 2.08 2.08zM61.3 180.92a2.09 2.09 0 1 1-2.08-2.08 2.08 2.08 0 0 1 2.08 2.08z"/><path d="M585.24 189.11c-10.09 0-18.26-6-18.26-13.38 0-4.38 2.87-8.27 7.32-10.7l9.52-7.92v5.3h1.42c10.08 0 18.25 6 18.25 13.37s-8.17 13.33-18.25 13.33z" style="stroke-width:1.41px;fill:#f29120;stroke-miterlimit:10;stroke:#fff"/><path class="cls-15" d="M586.85 175.73a1.94 1.94 0 1 0-1.93 1.94 1.92 1.92 0 0 0 1.93-1.94zM594.43 175.73a1.94 1.94 0 1 0-1.94 1.94 1.93 1.93 0 0 0 1.94-1.94zM579.28 175.73a1.94 1.94 0 1 0-1.94 1.94 1.93 1.93 0 0 0 1.94-1.94z"/><path class="cls-12" d="M283 197.23c15.54 0 28.14 9.22 28.14 20.61 0 6.75-4.43 12.74-11.28 16.5l-14.67 12.19v-8.15q-1.08.06-2.19.06c-15.53 0-28.13-9.22-28.13-20.6s12.62-20.61 28.13-20.61z"/><path class="cls-15" d="M280.53 217.84a3 3 0 1 0 3-3 3 3 0 0 0-3 3zM268.86 217.84a3 3 0 1 0 3-3 3 3 0 0 0-3 3zM292.2 217.84a3 3 0 1 0 3-3 3 3 0 0 0-3 3z"/><path class="cls-56" d="m155.2 411.32.1-.22 17.31-1.24 10.44-22.31 4.88 32.88-9.84.36 3 4.34 7.7 18.67-3.73 8L174 440l-5.14-8-12.44-8c-2.85-4.44-3.31-7.8-1.22-12.68z"/><path style="fill:#141011;mix-blend-mode:multiply;opacity:.1" d="m186.24 449.16-10.12-9.88-5.75-10.52-13.95-4.72 12.46 7.92 5.14 7.99 10.99 11.81 1.23-2.6z"/><path style="fill:#141011;mix-blend-mode:multiply;opacity:.2" d="m172.61 409.86 10.44-22.31 4.88 32.88-9.84.36-5.48-10.93z"/><path class="cls-78" d="M174.72 331a10.87 10.87 0 0 0-6.44-1.57l-5.51.39a3.9 3.9 0 0 0-2.77 1.38l-2.38 2.8a4 4 0 0 0-.6 4.16l5 3.58 15.64 1.29 3.64 3.59-1.59-8.43a10.89 10.89 0 0 0-4.99-7.19z"/><path d="m162 341.77-5-3.58-.27 3.2a8.36 8.36 0 0 0 .23 2.82c.87 3.45 4.05 10.08 4.13 12.44s1-3.34 1-3.34l3.17-4.48z" style="fill:#c49158"/><path class="cls-80" d="m190.51 437.13-.76-6.15 6.99-.86.67 6.68-6.9.33z"/><path class="cls-81" d="m190.51 437.13 1-.19a2.78 2.78 0 0 1 2.67-2.29c1.62-.21 3.06.63 3.21 1.85v.3l4.31 6.78a2.51 2.51 0 0 1-1.23 3.2 19.25 19.25 0 0 1-7.78 1.9h-.29a2.51 2.51 0 0 1-2.53-2z"/><path class="cls-82" d="m189.88 446.65.16-6.57a11.8 11.8 0 0 1 .47-2.95v8.54c.23 1.2 1.2 1.24 2 1.25h.29a19.09 19.09 0 0 0 7.78-1.9 2.51 2.51 0 0 0 1.2-1.25 2.51 2.51 0 0 1-1.29 3 19.25 19.25 0 0 1-7.78 1.9h-.29a2.51 2.51 0 0 1-2.54-2.02z"/><path class="cls-56" d="M196.23 390.45a7.43 7.43 0 0 0-3-5.11 7.42 7.42 0 0 0-4.83-1.47l-3.06.15a15.32 15.32 0 0 0-3.7 12.14l8 37.2 8.05-1z"/><path class="cls-80" d="M140.74 375.46 136.3 398s-12.48 16.6-13.58 17.21-5.31.35-5.31.35a28.71 28.71 0 0 0-6.21 1.23l-3.59 2a.46.46 0 0 0 .23.87s5.3-.93 8.22-1.09c3.41 1.09-3.26 1.09-2.43 2.74H118l4.29-1.65s10-5.16 12.78-7.55a97.38 97.38 0 0 0 7.46-7.93s4.56-10.11 5.47-18.07c-2.26-3.89-7.26-10.65-7.26-10.65z"/><path d="M204 389.6c0-3.9-7.06-13.73-12-19.51-2.1 4.22-4.46 10.42-5.73 10.5 1.4 3.52 5.37 4.6 5.37 4.6S204 391.65 204 389.6z" style="fill:#deb087"/><path class="cls-44" d="M139.81 375.46c.49-6.11 3.9-12.56 12.82-13.95a101.83 101.83 0 0 1 26.58 0c5.51.92 8.22 3.28 13.53 8.57-.49 4.22-4.12 10.66-7.08 15.9l-3.66 4.48-3.83 17.4a4.7 4.7 0 0 1-5.1 3.66l-3.34-.22c-1.2-.08-2.27-.14-3.33-.18a17.93 17.93 0 0 0-10.4 2.79 12.27 12.27 0 0 0-1.36 1 1.15 1.15 0 0 1-1.9-.71s-2.78-21.14-6.07-26.65c-1.6-2.55-6.86-12.09-6.86-12.09z"/><path class="cls-25" d="m190 377.91-.34-1.23c-.1-.75.14-2.05-.39-2.07a1.39 1.39 0 0 0-1.39 1v-2.82a1.56 1.56 0 0 0-1.56-1.56H180a1.56 1.56 0 0 0-1.56 1.56v3.07c-.56-.29-1-.53-1.36-.68a2.31 2.31 0 0 0-1.27-.29c-.65.12-.71.42-.57.85s1.78 1.44 3.2 2.3v1c-.94-.19-1.27.85-.85 1.59a.84.84 0 0 1 0 .88 1.4 1.4 0 0 0 0 1.33.87.87 0 0 1 0 .93c-.25.33.23 1.57 1.42 2.11 1.56.72 4 1.08 4.66 1.48l.2.2c.11.1.21.22.32.33l1.52-1.86c1.38-2.58 2.97-5.4 4.29-8.12zM152.69 414.2a1.15 1.15 0 0 0 1.9.71 12.27 12.27 0 0 1 1.36-1 17.93 17.93 0 0 1 10.45-2.79c1.06 0 2.13.1 3.33.18l3.34.22a4.71 4.71 0 0 0 2.22-.3c-5.71-1.63-14.73-4.46-18.28-7.05-5.38-3.92 14.58-2.86 2.52-8.94S140.1 376 140.1 376l-.29-.52s5.26 9.49 6.81 12.09c3.29 5.49 6.07 26.63 6.07 26.63z"/><path class="cls-80" d="m169.64 351.77-9-.77v3.35c.31 4.82-4.3 8.51-4.3 8.51 2.85 4 14.27 11.59 15.05 11 2.53-2 4.85-11.21 4.16-11.35a3.11 3.11 0 0 1-2.5-2.74l-.51-5.18a3.1 3.1 0 0 0-2.9-2.82z"/><path class="cls-80" d="m177.68 343.06-.25 11.62a1.79 1.79 0 0 1-.49 1.18l-1.48 1.57a4.23 4.23 0 0 1-4.38 1.13L163 356a2.27 2.27 0 0 1-1.49-1.55l-1.24-4.45h-.46a1.8 1.8 0 0 1-1.5-.55 1.76 1.76 0 0 1-.45-1l-.59-3.26a1.2 1.2 0 0 1 1.24-1.4 1.18 1.18 0 0 1 1.09.93l.77 3.38 1.71-.84v-5.56c1.97-6.25 14.56-.21 15.6 1.36z"/><path class="cls-78" d="M172.89 351.94a4.14 4.14 0 0 0 2.69-.15c.72-.3 1.89 1.76 1.89 1.76 0 2.19-.6 5.75-1.88 7.53a4.23 4.23 0 0 1-4.38 1.13s-8.41-2-9.57-4.12-1.37-8.11-1.37-8.11l.1-1.81 1.71-.84s.81 7.4 3.13 7.36c.6 0 3.33-3.63 4.4-3.51a28.63 28.63 0 0 1 3.28.76z"/><path class="cls-81" d="m184.51 452.67-.76-2.52s1.75-11.74 4.92-17.48-4.16 20-4.16 20z"/><path class="cls-82" d="M188.83 455.39c2.91-.64 4.45-3.3 3.85-6.67a6.47 6.47 0 0 1 .59-4.33l3.08-5.42a10 10 0 0 0 1.05-6.61 9.24 9.24 0 0 0-.8-2.6c-.6-1.19-2.41-1.27-3.65-.81a7.09 7.09 0 0 0-4.66 4.87l-3.87 18c-.36 1.64 2.78 3.93 4.41 3.57z"/><path d="m185.56 452.08 3.87-18a7.11 7.11 0 0 1 4.67-4.86 4.11 4.11 0 0 1 1.65-.25 3.76 3.76 0 0 0-2.8 0 7.09 7.09 0 0 0-4.66 4.87l-3.87 18c-.33 1.51 2.27 3.56 4 3.62-1.55-.66-3.12-2.19-2.86-3.38z" style="fill:#f0f0f0"/><path class="cls-80" d="M188.75 374.9c2.67 3.25 6.58 5 9.35 6.67a14.72 14.72 0 0 1 5.86 8c.39 2-5 5.12-10.38 1.52s-6-8.71-9.6-12.1c-4.09-3.87 2.24-5.62 4.77-4.09z"/><path class="cls-15" d="M180.11 361.88h6.38a1.55 1.55 0 0 1 1.55 1.55v12a1.55 1.55 0 0 1-1.55 1.56h-6.76c-.86 0-1.17-.7-1.17-1.56v-12a1.56 1.56 0 0 1 1.55-1.55z"/><path class="cls-24" d="M180.11 362.73h6.38a1.55 1.55 0 0 1 1.55 1.56v11.61a1.55 1.55 0 0 1-1.55 1.55h-6.76c-.86 0-1.17-.7-1.17-1.55v-11.61a1.56 1.56 0 0 1 1.55-1.56z"/><path d="M180.45 363.88c.33 0 .61.16.61.37s-.28.37-.61.37-.62-.17-.62-.37.28-.37.62-.37z" style="fill:#1b0c31"/><path class="cls-80" d="M175.93 366.39a2.17 2.17 0 0 1 1.26.29c1.81.82 8.29 4.45 9.64 4.33 1.54-.14.89-2.13.89-2.13a4.4 4.4 0 0 1 .23-1.57c.4-1.09 1-1.23 1.49-1.21s.28 1.33.39 2.08l1.13 4.1-1.82 5.72-5.14 1c-.07-.49-3-.85-4.86-1.68-1.18-.54-1.67-1.78-1.42-2.11a.87.87 0 0 0 0-.93 1.4 1.4 0 0 1 0-1.33.87.87 0 0 0 0-.88c-.42-.75-.1-1.78.85-1.59 1.24.41 2.16 1.32 1.84.19-1.08-.77-4.83-2.78-5.05-3.45-.15-.41-.09-.72.57-.83z"/><path class="cls-44" d="M602.53 274.79c-2.43-2.63-8.69-5.32-14.78-5s-7.35 2.09-7.35 2.09l20.38 7.63z"/><path class="cls-86" d="M558.25 398.63a12.39 12.39 0 0 0-4.88 2.33l-.85.67a.65.65 0 0 0-.18.82c.55 1 9 11.86 10.56 14.55s4.51 5.26 6.05 4.05c-4.51-11.39-5.13-15.31-5.13-15.31z"/><path class="cls-87" d="M563.9 417c-1.37-2.43-9.16-12.84-11.09-15.64l-.29.23a.65.65 0 0 0-.18.82c.55 1 9 11.86 10.56 14.55 1.36 2.41 3.89 4.72 5.52 4.31-1.54-.38-3.42-2.27-4.52-4.27z"/><path class="cls-88" d="m598.37 380.07-34.17 27.31s-2.92.25-5.87-2.85-3.2-5.62-3.2-5.62l27.17-25.7 7.1-4.83z"/><path class="cls-89" d="M593.08 369.64s-36.73 24.63-34.75 34.89c-3-3.11-3.2-5.62-3.2-5.62l27.17-25.7 7.1-4.83z"/><path class="cls-90" d="M590.77 238.49a5.33 5.33 0 0 0 4-.56c1.79-1.27 6.35.11 8 3.75a7.6 7.6 0 0 1 .53 3.78 12.11 12.11 0 0 1-4.08 7.88c-6.1 5.52-5.82 12.65-10.08 12.81-7 .26-13.37-7.64-12.81-15.92-.17-11.63 9.79-13.48 14.44-11.74z"/><path class="cls-30" d="m579.56 257.55 9.62 4.38.28 4.06a7.19 7.19 0 0 0 2.75 5.57s11.19 11 2.06 11.65-18.43-11.79-18.43-11.79c4.24-6.09 3.72-13.87 3.72-13.87z"/><path class="cls-38" d="M601.55 274.79s6.41 4.26 8.14 9c.38 1 4.65 19.7 5.35 24 .13.82-3.26 5.07-4.08 1.41-1.7-7.58-7.39-19.79-7.39-19.79a62.93 62.93 0 0 1-7.25-5.15c-2.8-2.53 5.23-9.47 5.23-9.47z"/><path class="cls-91" d="m600.39 286.23-.29.9c1.85 1.27 3.47 2.26 3.47 2.26s.43.91 1.08 2.39c-.2-1.83 1.06-4.8 2.81-8-3.82 4.1-7.07 2.45-7.07 2.45z"/><path class="cls-38" d="M614.89 307.25 617 315a2.24 2.24 0 0 1 0 1.15l-1.25 4.5a2.19 2.19 0 0 1-.83 1.19l-3.45 2.48a2 2 0 0 1 .32-2.44l1.64-1.66.47-3.7a.72.72 0 0 0-.15-.53.7.7 0 0 0-1.24.32l-.64 3.7a.84.84 0 0 1-.83.7.86.86 0 0 1-.85-.86l.11-5.29.88-7.31z"/><path class="cls-88" d="m598.82 323.28.67 5.4 1.14 9.1 3.11 20.81a63.29 63.29 0 0 1 .62 12.68A9.88 9.88 0 0 1 600 379l-1.58 1.06-9.33-1.06.58-8.56-11.87-45.1z"/><path class="cls-89" d="m588.5 336.22 3.91 30.48a5 5 0 0 1-1.74 4.45l-1.12.94-11.75-46.75z"/><path class="cls-86" d="M581.47 413.54c-.17 2.64.87 4.38 1.68 7.65.53 2.17.73 4.95-4.56 5.13-4.91.17-4.9-3.43-4.86-3.94s.69-6.25.69-6.25z"/><path class="cls-87" d="M578.42 425.12a11.05 11.05 0 0 1-4.18-.63c.58 1 1.8 1.92 4.35 1.83 3.07-.11 4.29-1.08 4.67-2.31a10.82 10.82 0 0 1-4.84 1.11z"/><path class="cls-24" d="m595.08 324.09-1.1 9.48a6.09 6.09 0 0 1-2.84 4.47 4.2 4.2 0 0 0-1.86 2.61l-4.94 33.18-.89 43.63s-.91.73-5.28 1-4.87-1.1-4.87-1.1L571 397c-.52-5.27-1.36-11.14-.51-16.37l1-5.87-1.74-17.83a71.33 71.33 0 0 1-.64-12.29l.35-4.5a6.29 6.29 0 0 0-.29-2.47 18.58 18.58 0 0 1-.81-7.52L569 323z"/><path class="cls-88" d="M573.94 374.6a145.7 145.7 0 0 1 .49-36.4s11.1 0 11.58-10.09L569.17 323H569l-.7 7.11a18.58 18.58 0 0 0 .81 7.52 6.29 6.29 0 0 1 .29 2.47l-.35 4.5a71.33 71.33 0 0 0 .64 12.29l1.74 17.83-1 5.87c-.85 5.23 0 11.1.51 16.37l2.31 20.4s-3.81-26.8.69-42.76z"/><path class="cls-24" d="M575.75 328c-.3 3.24-1 7.94-1 7.94s6.57.68 8.34-5.16-7.34-2.78-7.34-2.78z"/><path class="cls-44" d="m566.1 274.87 9.74-3.45s7 9.09 15.77 7.87c2.49-.35 2.73-5.63.6-7.73.37.21 4.28-1.81 10.32 3.23.91 1.67 1.48 10.35-.65 13.88-.38-.13-1.7-.89-1.7-.89v.07a33 33 0 0 1-.48 8.71c-.76 4-1.75 9.79-1.66 11.79.4 8.29 3.2 17.91 2.29 19.49-1.31 2.28-12.9 6.38-32.14 2.05-.36-18.51-1.51-32.48-1.51-32.48l-4.41-6.83a12.35 12.35 0 0 1-1.72-9.57 7.76 7.76 0 0 1 5.55-6.14z"/><path class="cls-30" d="m585.53 307-7.39-14.64c-1.64 3-8.93 5.24-11.46 5.05 0 0 10.06 13.24 14.34 17.94.83.9 2.52.55 3.71.22l20.6-6.45-.74-5.23z"/><path class="cls-24" d="m619 291.15-13.46 4.27a.66.66 0 0 0-.43.83l1.29 4.07 14.72-4.67-1.29-4.07a.66.66 0 0 0-.83-.43z"/><rect class="cls-15" x="606.31" y="293.57" width="13.23" height="3.72" rx=".46" transform="rotate(-17.61 612.907 295.41)"/><rect class="cls-47" x="606.11" y="297.56" width="15.44" height="1.47" rx=".41" transform="rotate(-17.61 613.815 298.294)"/><path class="cls-15" d="m619.78 296.11-1.22.39a.28.28 0 0 0-.18.35.27.27 0 0 0 .35.18l1.22-.39a.28.28 0 1 0-.17-.53zM616.69 297.09l-2.9.92a.28.28 0 0 0-.18.35.28.28 0 0 0 .35.19l2.9-.93a.28.28 0 0 0 .19-.35.29.29 0 0 0-.36-.18z"/><path class="cls-30" d="m617.81 297.81-8 2.57a1.4 1.4 0 0 1-1.67-.7 1.38 1.38 0 0 1 0-1.28l.93-1.77c.41-1.43.18-2.4-.89-2.68l-3.64 5.31-1 6.85-.28 3.65 4.49-.88a15.72 15.72 0 0 0 5.76-2.83c1.29-.45 1.21-2.13 1.21-2.13-.12-.24.52-1 .59-1.29l.18-.65a1.09 1.09 0 0 0-.29-1.07s2.52-1 2.64-1.43a1.17 1.17 0 0 0-.03-1.67z"/><path class="cls-91" d="M585.44 270.11c1.09.72 5.4 2.45 6.77 1.45a2.72 2.72 0 0 1-.65-.55 7.46 7.46 0 0 1-2.1-5l-.28-4.06-8.07-2.69c-.01.04-1.11 7.28 4.33 10.85z"/><path class="cls-30" d="M582.9 254.65c.94-5.21 3.29-3.46 4.65-5.27 3.12-4.18 6.4.85 11.51 2.81 0 .4-1.53 7.86-1.92 8.95-2.66 7.26-2.3 8.28-7.32 7.15s-8.48-4.12-9.42-7.53c-.24-.88-1.25-4.79-1.25-4.79.94.03 3.39.65 3.75-1.32z"/><path class="cls-90" d="M582.9 254.65s-1 4.17 1.31 7 5.35 1.37 7.25.63 5.19.19 5.19.19-1.06 6.73-2.75 7.89-7-1.46-9.58-3.32-4.38-6.78-3.31-10.8 1.89-1.59 1.89-1.59z"/><path class="cls-30" d="m596.15 264.85-3-.7a.72.72 0 1 0-.32 1.4l3 .69c.12-.47.24-.94.34-1.38zM580.82 252c.56.48.26 6.78-.48 6.81-1.82.08-2.65-2.92-2.86-4.88a2 2 0 0 1 3.34-1.93z"/><path d="M599.06 280.69a24.93 24.93 0 0 1 1.12 7.09s1.32.76 1.7.89l.11-.21s-1.34-5.22-2.93-7.77z" style="fill:#875e23;opacity:.1"/><path class="cls-15" d="M302.12 424.5h-8.65l-3.47 6.62-3.65.58h-1.15v.73h5.35a2 2 0 0 0 1.77-1.05 11.24 11.24 0 0 1 9.82-5.79z"/><path class="cls-93" d="m333.11 345.43-12.17-9.38-14.39 3.35s-4.76 24.54-4.71 33.7a33.23 33.23 0 0 1-.26 4.11 9.68 9.68 0 0 0 .28 4c.46 1.64-4.55 32.77-6.79 38.36-.81 2-5.6 9.39-5.6 9.39l-2.69.47a1.2 1.2 0 0 0-1 1 1.15 1.15 0 0 0 1.14 1.27h2.72a3.17 3.17 0 0 0 2.47-1.18l1.89-2.32a10.38 10.38 0 0 1 7.14-3.8 2.47 2.47 0 0 0 1.22-2.14 4.73 4.73 0 0 0-.82-2.68 3.15 3.15 0 0 1-.23-.41 5.54 5.54 0 0 1 .22-5.11c2.42-4.43 7.79-14.63 9-20 .86-3.75-.19-8.1 1.22-13 1.07-4.78 4.71-15.34 6.15-25.12l1.84 16.63c.45 2.84.74 8.5 1.4 11.16s-.58 12.05.13 18.55c1 8.72 1.67 19.11 1.21 23-.23 2-.92 7.25-.92 7.25l.61 1.29h4.92l.6-.73a1.59 1.59 0 0 0 .35-1.27 38.67 38.67 0 0 1-1.14-6.89c-.15-10.68 3.5-23.54 3.72-28.42a59.17 59.17 0 0 0-.54-11.83 11.73 11.73 0 0 1 0-3.5c2.55-13.72 3.03-35.75 3.03-35.75z"/><path d="M311.42 382.48c-.88 4.34-.11 8.22-.89 11.61-1.23 5.34-6.6 15.54-9 20a5.94 5.94 0 0 0-.57 1.5c1.46-8.73 5.67-11.06 8.5-22.47.83-3.38.66-5.25.66-10.07 0-1.18 7.5-40 7.5-40s5.21 40.46 5.38 41.45c.25 1.36-1.21 8.89-.6 15.57 1.84 20.06-.05 26.58.1 25.27.46-3.89-.25-14.28-1.21-23-.71-6.5.54-15.89-.13-18.55s-.95-8.32-1.4-11.16L317.9 356c-1.44 9.78-5.08 20.34-6.15 25.12a11.23 11.23 0 0 0-.33 1.36z" style="fill:#d89c73;opacity:.5"/><path class="cls-15" d="M322.14 434.7h5.14a.87.87 0 0 0 .88-.87h-6.89a.87.87 0 0 0 .87.87z"/><path class="cls-25" d="m321.56 432.54.61 1.29h4.92l.22-.27a.77.77 0 0 0-.46-1.25l-2.85-.51a2.47 2.47 0 0 0-1.62.27z"/><path class="cls-15" d="M327.87 430.39a.29.29 0 0 1-.21-.09c-.68-.71-4.23-2.21-5.54-2.73a.28.28 0 0 1-.18-.3.29.29 0 0 1 .24-.26s3.39-.66 4.47-2.23a.3.3 0 0 1 .49.33c-.85 1.23-2.79 1.94-3.95 2.26 1.45.6 4.21 1.8 4.9 2.52a.31.31 0 0 1 0 .42.32.32 0 0 1-.22.08zM321.56 434.12a.29.29 0 0 1-.29-.29 3.7 3.7 0 0 1 1-2.49 3.34 3.34 0 0 1 2.61-.81 3.4 3.4 0 0 1 2.55 1.1 3.26 3.26 0 0 1 .69 2.23.3.3 0 0 1-.33.26.29.29 0 0 1-.26-.32 2.63 2.63 0 0 0-.53-1.8 2.87 2.87 0 0 0-2.13-.88 2.74 2.74 0 0 0-2.16.65 3.11 3.11 0 0 0-.86 2.06.29.29 0 0 1-.29.29z"/><path class="cls-93" d="m287.57 302.6 1-5.74-.6-6.12a2.11 2.11 0 0 0-1.61 1.81l-.29 2.48-1.93.28-8.12-6a.79.79 0 0 0-.81-.07.78.78 0 0 0-.13 1.31l3.84 3-1.08-.55a.89.89 0 0 0-1.28.66.91.91 0 0 0 .39.88l.85.56-.1.45a1.35 1.35 0 0 0 .62 1.46l.5.29a1.36 1.36 0 0 0 .54 1.65l.46.29a8.54 8.54 0 0 0 4.39 4.59l.66.3z"/><path class="cls-93" d="m293.21 310.29-5.56-8.67-4.55 1.37 5.75 10.74 4.36-3.44z"/><path class="cls-95" d="M311.74 289.26s-7.82-.26-9.85 7.3l-6.13 15.76-5.14-6.63-4.57 4.59 7.06 10.65c2.51 2.19 5.1 2.26 7.43-.11l4.12-7 1.19 2.27c.81 8.53.17 16.47-1.12 25.48L299.42 370a94.76 94.76 0 0 0 34.28.77c2.38-14.43-.36-34.92-2-39.27-.43-1.16-.89-2.29-1.31-3.42a19.94 19.94 0 0 1-.33-13l3.31-10.53 1.9-8.76a24.79 24.79 0 0 0-8-5c-4.89-1.79-15.53-1.53-15.53-1.53z"/><path class="cls-25" d="m332 304.13.93 26.21s-.51 1.75-3.17 2.81a3.91 3.91 0 0 1-5.29-3.7c.13-19.26 3.67-37.2 2.73-38.18s-.68 20.55-5.81 24.89c-.91 6.51-1.67 13.67-2 20.68-1.82 12.61-.38 19 .25 21.9a3.69 3.69 0 0 0 3.22 2.9c2.92.31 8.56.56 11.81-1.57 2.21-1.45 4.58-3 5.94-6.27 1-3.29-4.81-16.54-5-20.3-.86-13.76-.99-23.92-3.61-29.37z"/><path class="cls-15" d="m332 304.13 1 28.62s-3.2 8-9.27 6.57c-.48-20.87 4.47-47 3.46-48.05-1.37-1.44-5.48 23.22-6.66 45.91-3.37 23.36 1.53 23.46 1.53 23.46s13.92 4.1 18.51-6.84c1-3.29-4.81-16.54-5-20.3-.82-13.76-.95-23.92-3.57-29.37z"/><path class="cls-25" d="M340.09 349.22c-.84-3.38-2.4-7.73-3.45-11.16a4 4 0 0 0-3.18-.65q-2.61.48-4.5.75a6.14 6.14 0 0 1-5.23 1.16v-.62s-4.78 7.9-3.3 12.06c8.51 4.24 18.37-.49 19.66-1.54z"/><path class="cls-15" d="M323.73 337.33s-3.93 8.81-2.46 13a20.2 20.2 0 0 0 19-3.32s-.13-12.88-6.84-11.63-9.7 1.95-9.7 1.95z"/><path class="cls-93" d="m335.63 328.11-8.47 7.16c-1 .05-2.87-.34-3.46 0 0 1.2-.45 3.19-1.71 4.17l-2.25 1.26c-1.27.63-1.41.8-1.2 1.61l3.52-1.47 1.54-1.09-1.71 1.68-1.93 1.1a.76.76 0 0 0-.31 1l.23.49.5.28 3-.27 3.1-1.53s1.05-.36 3.46-4.24l8.71-6.5z"/><path class="cls-95" d="M338.62 303.48c.66 3.41 5.82 20.77 5.82 20.77a4.68 4.68 0 0 1-1.36 4.84l-5.25 4.36-3.65-4.57 3.95-3.75s-3.35-7.1-5.39-11.45c-3.19-6.82-6.05-12.48-5.53-17.91l3.18-1.82c4.37-.43 7.1 3.63 8.23 9.53z"/><path d="M316.58 260.41s-9-4.2-12.84 5.31c-3.25 8.12 3.07 25.11 10.93 24.07 12.13-1.6 1.91-29.38 1.91-29.38z" style="fill:#38281a"/><path class="cls-93" d="M313.76 282.48 314 289l-2.26.25a40.49 40.49 0 0 0-2.64 7.94c-.49 3.28 9.55 4.78 12.95-5.63s-3.23-13.21-3.23-13.21z"/><path class="cls-97" d="m318.82 278.36-5.06 4.12.21 5.77.14-.07 7.94-4.65-.12-1.74a12.29 12.29 0 0 0-3.11-3.43z"/><path class="cls-93" d="M306.76 271.06c.57 1.86-1.18 5-.64 6.74a37.64 37.64 0 0 0 3.74 7 3.77 3.77 0 0 0 2.68 1.84 3.68 3.68 0 0 0 2-.5l7.6-4.45-.9-13.09-12.14-4.6-1.48 1.61a4.68 4.68 0 0 0-1.14 4z"/><path d="M309.1 264s1.72 4.45 5.8 5.81c3.19 1.06 3.26 5.79 5.91 5.09 1.11 7.19-1.93 10-.07 16.7s.22 14.12.22 14.12 10.57-5.77 11-22.24c.29-11.46-1.59-15.76-5.15-20a12.61 12.61 0 0 0-12.81-3.83 8.61 8.61 0 0 0-4.9 4.35z" style="fill:#473522"/><path class="cls-93" d="M320.27 275.51a2 2 0 0 1 1.39-1.4 1.5 1.5 0 0 1 1 .1c1.15.53-.11 4.16-1.89 4.44-1.31.21-.84-1.97-.5-3.14z"/><path class="cls-15" d="M322.11 278.87a.87.87 0 1 1-.59-1.08.87.87 0 0 1 .59 1.08z"/><path class="cls-97" d="M308.35 273.33a1.19 1.19 0 0 1 .06.14 1.19 1.19 0 0 0-.06-.14z"/><path d="m278.24 288.05-.09.05h-.06a1.15 1.15 0 0 0-.37 1.37l3.4 10a2.2 2.2 0 0 0 2 1.44l3.68-.18a1.53 1.53 0 0 0 1.25-.63l-.79-1-3.26-9.74a2.22 2.22 0 0 0-2.05-1.44l-2.91.14-.3-.38v.06z" style="fill:#bd6a9e"/><path class="cls-24" d="m279.35 287.49 3.67-.17a2.2 2.2 0 0 1 2.05 1.44l3.39 10a1.12 1.12 0 0 1-1 1.59l-3.67.17a2.18 2.18 0 0 1-2-1.44l-3.4-10a1.12 1.12 0 0 1 .96-1.59z"/><path class="cls-15" d="m282.21 298.84 5.81-.26-3.29-9.58-5.64.25 3.12 9.59z"/><path class="cls-93" d="m278.9 293.55 1.22.77a2 2 0 0 1 .91 2v.05l.56.31a.73.73 0 0 1 .39.75.75.75 0 0 1-1 .62l-2.17-.77z"/><path class="cls-25" d="m302.87 316.86 1.79-3a14.4 14.4 0 0 1-.93-9.37l.93-3.91-1.46 3.16a16.59 16.59 0 0 0-.33 13.12z"/><path class="cls-15" d="M299.4 432.43h1v-3.19a4.56 4.56 0 0 1 1.35-3.25l.39-.4-1.43-.56-3 .56.43.44a4.58 4.58 0 0 1 1.32 3.22zM290.85 432a.3.3 0 0 1-.26-.15l-1.74-3.24a.28.28 0 0 1 0-.29.28.28 0 0 1 .26-.14l4.1.12-1.55-4.05a.28.28 0 0 1 .07-.32.31.31 0 0 1 .33-.05l4.44 2.12.57-4.32a.31.31 0 0 1 .11-.2l4-2.95a.3.3 0 0 1 .41.07.29.29 0 0 1-.06.41l-3.86 2.87-.6 4.6a.31.31 0 0 1-.43.23l-4.12-2 1.44 3.77a.29.29 0 0 1 0 .27.29.29 0 0 1-.25.13l-4-.13 1.5 2.79a.29.29 0 0 1-.12.4.32.32 0 0 1-.24.06z"/><path class="cls-15" d="M301.32 425a.27.27 0 0 1-.17-.06l-3.92-2.94-3.23-.7a.3.3 0 1 1 .13-.58l3.3.73a.31.31 0 0 1 .12.05l4 2.94a.3.3 0 0 1 .06.42.3.3 0 0 1-.29.14z"/><path class="cls-25" d="M321.21 316.63s-5.81-1-8.38-1.27-5.12.61-4.92.84a32.22 32.22 0 0 0 13.3.43z"/></g></g></g></svg>