<svg xmlns="http://www.w3.org/2000/svg" xml:space="preserve" width="1968" height="1284" style="shape-rendering:geometricPrecision;text-rendering:geometricPrecision;image-rendering:optimizeQuality;fill-rule:evenodd;clip-rule:evenodd"><defs><style>.fil4{fill:#000}.fil1{fill:#002a38}.fil2{fill:#184899}.fil5{fill:gray}.fil3{fill:#f29120}.fil0{fill:#ffce05}</style></defs><g id="Layer_x0020_1"><g id="Layer_1-2" data-name="Layer 1"><path class="fil0" d="m1967.71 552.36-102.1 176.28V453.13l24.57-42.41h77.53z"/><path class="fil1" d="M1832.54 486.72h-27.26l44-76h27.23z"/><path class="fil2" d="m1732.78 410.72-21.47 37.12h-27.25l21.48-37.12h5.77z"/><path class="fil3" d="m1797.54 410.72-82.61 145.87h-53.08l84.48-145.87h1.48z"/><path class="fil2" d="m1832.48 410.72-141.2 248.63v-60.99l23.65-41.77 82.61-145.87z"/><path class="fil3" d="M1967.71 729h-181.09l181.09-312.67z"/><path class="fil4" d="M1809.7 612.71c-.21.39-.61.64-1.05.64-.25 0-.5-.09-.71-.24a1.47 1.47 0 0 1-.53-.9c-.02-.11-.03-.21-.03-.32 0-.27.07-.53.22-.76l117.88-200.41h3.04L1809.7 612.71zM1808.35 551.14l3.89-6.47-34.17 7.29-3.9 6.47 34.18-7.29zm-28.38 47.07 3.89-6.47-34.17 7.3-3.9 6.46 34.18-7.29zm47.28-78.44 3.9-6.47-34.18 7.29-3.89 6.47 34.17-7.29zm-56.74 94.14 3.89-6.46-34.17 7.29-3.9 6.45 34.18-7.28zm18.9-31.37 3.9-6.47-34.17 7.3-3.9 6.45 34.17-7.28zm28.38-47.07 3.9-6.47-34.17 7.3-3.9 6.46 34.17-7.29zm-18.9 31.37 3.89-6.47-34.17 7.3-3.9 6.46 34.18-7.29z"/><path class="fil5" d="m1814.41 851.33-26.35 28.76 1.44 1.68 24.91-27.2 25.64 27.97 25.62-27.97 25.64 27.97 25.64-27.97 25.63 27.97 25.13-27.42v-3.24l-25.13 27.43-25.63-27.98-25.64 27.98-25.64-27.98-25.62 27.98z"/><path class="fil5" d="m1814.41 828.01-26.35 28.76 1.44 1.68 24.91-27.2 25.64 27.98 25.62-27.98 25.64 27.98 25.64-27.98 25.63 27.98 25.13-27.43v-3.24l-25.13 27.43-25.63-27.98-25.64 27.98-25.64-27.98-25.62 27.98z"/><path class="fil5" d="m1814.41 804.7-26.35 28.75 1.44 1.68 24.91-27.2 25.64 27.98 25.62-27.98 25.64 27.98 25.64-27.98 25.63 27.98 25.13-27.43v-3.24l-25.13 27.43-25.63-27.97-25.64 27.97-25.64-27.97-25.62 27.97zM1885.28 1078.67h38.19l-19.1 29.87zM1885.28 1113.76h38.19l-19.1 29.88zM1885.28 1148.85h38.19l-19.1 29.88zM1885.28 1183.93h38.19l-19.1 29.89zM1885.28 1219.03h38.19l-19.1 29.88zM1885.28 1254.12h38.19l-19.1 29.89z"/><path class="fil4" d="M1950.88 657.12h13.97v15.83h-13.97zM1950.88 618.88h13.97v15.83h-13.97zM1950.88 580.64h13.97v15.83h-13.97zM1950.88 542.41h13.97v15.83h-13.97z"/><path class="fil5" d="m1747.89 662.3-4.27 4.83-7.47-8.47-7.48 8.47-4.28-4.83 7.49-8.49-7.49-8.48 4.28-4.84 7.48 8.48 7.47-8.48 4.27 4.84-7.47 8.48z"/><path class="fil0" d="m1967.71 291.14-102.1-155.57v243.12l24.57 37.44h77.53z"/><path class="fil1" d="M1832.54 349.06h-27.26l44 67.07h27.23z"/><path class="fil2" d="m1732.78 416.13-21.47-32.77h-27.25l21.48 32.77h5.77z"/><path class="fil3" d="m1797.54 416.13-82.61-128.73h-53.08l84.48 128.73h1.48z"/><path class="fil2" d="m1832.48 416.13-141.2-219.4v53.81l23.65 36.86 82.61 128.73z"/><path class="fil3" d="M1967.71 135.27h-181.09l181.09 275.91z"/><path class="fil4" d="M1809.7 237.87a1.29 1.29 0 0 0-1.76-.34c-.28.18-.47.47-.53.8a1.197 1.197 0 0 0 .19.95l117.88 176.83h3.04L1809.7 237.87zM1774.13 285.79l3.9 5.75 34.17 6.44-3.9-5.75-34.17-6.44zm-28.38-41.55 3.9 5.75 34.17 6.43-3.9-5.75-34.17-6.43zm47.29 69.22 3.89 5.76 34.18 6.42-3.9-5.75-34.17-6.43zm-56.75-83.08 3.9 5.75 34.17 6.45-3.89-5.76-34.18-6.44zm18.86 27.69 3.9 5.75 34.17 6.43-3.89-5.75-34.18-6.43zm28.38 41.54 3.9 5.75 34.17 6.44-3.89-5.75-34.18-6.44zm-18.9-27.68 3.89 5.75 34.18 6.44-3.9-5.75-34.17-6.44z"/><path class="fil5" d="m1814.41 27.32-26.35-25.38 1.44-1.48 24.91 23.99 25.64-24.68 25.62 24.68 25.64-24.68 25.64 24.68 25.63-24.68 25.13 24.2v2.86l-25.13-24.21-25.63 24.7-25.64-24.7-25.64 24.7-25.62-24.7z"/><path class="fil5" d="m1814.41 47.89-26.35-25.38 1.44-1.48 24.91 24 25.64-24.69 25.62 24.69 25.64-24.69 25.64 24.69 25.63-24.69 25.13 24.2v2.86l-25.13-24.2-25.63 24.69-25.64-24.69-25.64 24.69-25.62-24.69z"/><path class="fil5" d="m1814.41 68.46-26.35-25.37 1.44-1.48 24.91 23.99 25.64-24.68 25.62 24.68 25.64-24.68 25.64 24.68 25.63-24.68 25.13 24.2v2.86l-25.13-24.2-25.63 24.68-25.64-24.68-25.64 24.68-25.62-24.68z"/><path class="fil4" d="M1950.88 184.71h13.97v13.97h-13.97zM1950.88 218.47h13.97v13.97h-13.97zM1950.88 252.21h13.97v13.97h-13.97zM1950.88 285.95h13.97v13.97h-13.97z"/><path class="fil5" d="m1747.89 194.13-4.27-4.27-7.47 7.47-7.48-7.47-4.28 4.27 7.49 7.47-7.49 7.49 4.28 4.27 7.48-7.47 7.47 7.47 4.27-4.27-7.47-7.49z"/><path class="fil0" d="M0 156.82v87.01l75.3-43.51v-.03z"/><path class="fil3" d="m.07 156.85 75.23 43.44v-86.83l-.05-.03zM144.2 287.3l35.13 20.29v-40.56l-.03-.02z"/><path class="fil2" d="m257.04 363.84 35.13 20.29v-40.55l-.03-.01z"/><path class="fil3" d="m127.26 33.1 24 13.85v-27.7l-.02-.01zM0 69.86v.13l75.25 43.44.05-.04V26.38z"/><path class="fil4" d="M75.3 287.24v87.01l75.31-43.49v-.04z"/><path class="fil2" d="m.07 417.71.03.03h75.2v-43.42l-.05-.03zM150.61 417.71l.04.03h75.19v-43.42l-.04-.03z"/><path class="fil3" d="M0 330.85v86.82l.07.04 75.18-43.42z"/><path class="fil0" d="M0 243.88v86.84l75.2-43.42z"/><path class="fil5" d="m268.8 35.24-4.29-4.27-7.47 7.47-7.48-7.47-4.28 4.27 7.49 7.49-7.49 7.47 4.28 4.27 7.48-7.47 7.47 7.47 4.29-4.27-7.49-7.47z"/><path class="fil0" d="M0 713.15v-98.61l75.3 49.29v.05z"/><path class="fil3" d="m.07 713.1 75.23-49.22v98.39l-.05.03zM144.2 565.27l35.13-22.99v45.96l-.03.02z"/><path class="fil2" d="m257.04 478.54 35.13-23.01v45.97l-.03.01z"/><path class="fil3" d="m127.26 853.35 24-15.7v31.38l-.02.01zM0 811.68v-.16l75.25-49.22.05.04v98.61z"/><path class="fil4" d="M75.3 565.34v-98.61l75.31 49.3v.04z"/><path class="fil2" d="m.07 417.49.03-.03h75.2v49.2l-.05.03zM150.61 417.49l.04-.03h75.19v49.2l-.04.03z"/><path class="fil3" d="M0 515.92v-98.38l.07-.05 75.18 49.2z"/><path class="fil0" d="M0 614.47v-98.4l75.2 49.2z"/><path class="fil5" d="m57.45 1141.52-1.28 1.45 14.56 16.51 1.28-1.45z"/><path class="fil5" d="m70.73 1141.52-14.56 16.51 1.28 1.45 14.56-16.51zM93.61 1141.52l-1.28 1.45 14.56 16.51 1.28-1.45z"/><path class="fil5" d="m106.89 1141.52-14.56 16.51 1.28 1.45 14.56-16.51zM129.78 1141.52l-1.28 1.45 14.56 16.51 1.28-1.45z"/><path class="fil5" d="m143.06 1141.52-14.56 16.51 1.28 1.45 14.56-16.51zM165.93 1141.52l-1.28 1.45 14.57 16.51 1.28-1.45z"/><path class="fil5" d="m179.22 1141.52-14.57 16.51 1.28 1.45 14.57-16.51zM21.28 1141.52l-1.28 1.45 14.56 16.51 1.29-1.45z"/><path class="fil5" d="M34.56 1141.52 20 1158.03l1.28 1.45 14.57-16.51zM57.45 1100.53l-1.28 1.46 14.56 16.5 1.28-1.44z"/><path class="fil5" d="m70.73 1100.53-14.56 16.52 1.28 1.44 14.56-16.5zM93.61 1100.53l-1.28 1.46 14.56 16.5 1.28-1.44z"/><path class="fil5" d="m106.89 1100.53-14.56 16.52 1.28 1.44 14.56-16.5zM129.78 1100.53l-1.28 1.46 14.56 16.5 1.28-1.44z"/><path class="fil5" d="m143.06 1100.53-14.56 16.52 1.28 1.44 14.56-16.5zM165.93 1100.53l-1.28 1.46 14.57 16.5 1.28-1.44z"/><path class="fil5" d="m179.22 1100.53-14.57 16.52 1.28 1.44 14.57-16.5zM21.28 1100.53l-1.28 1.46 14.56 16.5 1.29-1.44z"/><path class="fil5" d="M34.56 1100.53 20 1117.05l1.28 1.44 14.57-16.5zM57.45 1059.56l-1.28 1.45 14.56 16.51 1.28-1.45z"/><path class="fil5" d="m70.73 1059.56-14.56 16.51 1.28 1.45 14.56-16.51zM93.61 1059.56l-1.28 1.45 14.56 16.51 1.28-1.45z"/><path class="fil5" d="m106.89 1059.56-14.56 16.51 1.28 1.45 14.56-16.51zM129.78 1059.56l-1.28 1.45 14.56 16.51 1.28-1.45z"/><path class="fil5" d="m143.06 1059.56-14.56 16.51 1.28 1.45 14.56-16.51zM165.93 1059.56l-1.28 1.45 14.57 16.51 1.28-1.45z"/><path class="fil5" d="m179.22 1059.56-14.57 16.51 1.28 1.45 14.57-16.51zM21.28 1059.56l-1.28 1.45 14.56 16.51 1.29-1.45z"/><path class="fil5" d="M34.56 1059.56 20 1076.07l1.28 1.45 14.57-16.51zM57.45 1018.57l-1.28 1.46 14.56 16.5 1.28-1.44z"/><path class="fil5" d="m70.73 1018.57-14.56 16.52 1.28 1.44 14.56-16.5zM93.61 1018.57l-1.28 1.46 14.56 16.5 1.28-1.44z"/><path class="fil5" d="m106.89 1018.57-14.56 16.52 1.28 1.44 14.56-16.5zM129.78 1018.57l-1.28 1.46 14.56 16.5 1.28-1.44z"/><path class="fil5" d="m143.06 1018.57-14.56 16.52 1.28 1.44 14.56-16.5zM165.93 1018.57l-1.28 1.46 14.57 16.5 1.28-1.44z"/><path class="fil5" d="m179.22 1018.57-14.57 16.52 1.28 1.44 14.57-16.5zM21.28 1018.57l-1.28 1.46 14.56 16.5 1.29-1.44z"/><path class="fil5" d="M34.56 1018.57 20 1035.09l1.28 1.44 14.57-16.5zM268.8 871.91l-4.29 4.84-7.47-8.47-7.48 8.47-4.28-4.84 7.49-8.47-7.49-8.48 4.28-4.85 7.48 8.48 7.47-8.48 4.29 4.85-7.49 8.48zM214.45 969.64c-3.57 0-6.99 1.49-9.42 4.11-1.87 1.66-3.35 2.97-6.53 2.97s-4.66-1.31-6.53-2.97a12.83 12.83 0 0 0-9.42-4.12c-3.58 0-7 1.49-9.43 4.12-1.86 1.66-3.35 2.97-6.51 2.97-3.16 0-4.66-1.31-6.53-2.97a12.83 12.83 0 0 0-9.41-4.12c-3.58 0-6.99 1.5-9.42 4.12-1.88 1.66-3.35 2.97-6.53 2.97-3.17 0-4.64-1.31-6.51-2.97a12.83 12.83 0 0 0-9.42-4.12c-3.58 0-6.99 1.49-9.43 4.12-1.86 1.66-3.35 2.97-6.52 2.97-3.18 0-4.65-1.31-6.52-2.97a12.814 12.814 0 0 0-9.42-4.12c-3.58 0-6.99 1.49-9.42 4.12-1.87 1.66-3.34 2.97-6.52 2.97-3.17 0-4.65-1.31-6.52-2.97a12.852 12.852 0 0 0-9.42-4.12c-3.57 0-6.99 1.5-9.42 4.12-1.86 1.66-3.34 2.97-6.52 2.97-3.18 0-4.65-1.31-6.51-2.97a12.852 12.852 0 0 0-9.43-4.12c-3.58 0-6.99 1.49-9.42 4.12-1.87 1.66-3.35 2.97-6.52 2.97-3.16 0-4.65-1.31-6.52-2.97-.22-.24-.45-.46-.68-.68v6.77a12.859 12.859 0 0 0 16.62-1.91c1.87-1.67 3.35-2.98 6.53-2.98s4.64 1.31 6.51 2.98a12.842 12.842 0 0 0 18.83 0c1.87-1.67 3.35-2.98 6.53-2.98s4.65 1.31 6.51 2.98a12.859 12.859 0 0 0 18.85 0c1.87-1.67 3.35-2.98 6.53-2.98s4.64 1.31 6.51 2.98a12.859 12.859 0 0 0 18.85 0c1.87-1.67 3.35-2.98 6.51-2.98 3.16 0 4.66 1.31 6.53 2.98a12.837 12.837 0 0 0 18.83 0c1.87-1.67 3.35-2.98 6.53-2.98s4.64 1.31 6.51 2.98a12.859 12.859 0 0 0 18.85 0c1.87-1.67 3.35-2.98 6.52-2.98 3.18 0 4.65 1.31 6.53 2.98a12.864 12.864 0 0 0 18.85 0c1.87-1.67 3.35-2.98 6.53-2.98 3.17 0 4.64 1.31 6.52 2.98 2.44 2.6 5.85 4.09 9.42 4.11v-5.32c-3.18 0-4.66-1.31-6.53-2.97a12.922 12.922 0 0 0-9.41-4.12l-.01.01z"/></g></g></svg>