<svg xmlns="http://www.w3.org/2000/svg" xml:space="preserve" width="1968" height="853" style="shape-rendering:geometricPrecision;text-rendering:geometricPrecision;image-rendering:optimizeQuality;fill-rule:evenodd;clip-rule:evenodd"><defs><style>.fil3{fill:#000}.fil2{fill:#184899}.fil4{fill:gray}.fil1{fill:#f29120}.fil0{fill:#ffce05}</style></defs><g id="Layer_x0020_1"><g id="Layer_1-2" data-name="Layer 1"><path class="fil0" d="M1967.71 528.98v98.61l-75.3-49.3v-.04z"/><path class="fil1" d="m1967.64 529.02-75.23 49.23v-98.4l.05-.04zM1823.51 676.85l-35.13 22.99v-45.96l.03-.01z"/><path class="fil2" d="m1710.67 763.59-35.13 22.98v-45.94l.03-.02z"/><path class="fil1" d="m1840.45 388.78-24 15.7v-31.39l.02-.01zM1967.71 430.44v.14l-75.25 49.23-.05-.04v-98.6z"/><path class="fil3" d="M1892.41 676.78v98.61l-75.31-49.3v-.04zM1967.64 824.63l-.03.03h-75.2v-49.2l.05-.04zM1817.1 824.63l-.04.03h-75.19v-49.2l.06-.04z"/><path class="fil1" d="M1967.71 726.19v98.4l-.07.04-75.18-49.21z"/><path class="fil0" d="M1967.71 627.66v98.39l-75.2-49.2z"/><path class="fil4" d="m1652.84 843.72-8.44 9.56-14.77-16.73-14.76 16.73-8.44-9.56 14.78-16.73-14.78-16.74 8.44-9.56 14.76 16.74 14.77-16.74 8.44 9.56-14.77 16.74zM1739.17 707.88c-5.54 0-8.49 2.61-10.86 4.73-2.15 1.92-3.86 3.43-7.52 3.43-3.65 0-5.36-1.51-7.52-3.43-2.15-1.93-5.31-4.73-10.85-4.73-5.53 0-8.47 2.61-10.84 4.73-2.16 1.92-3.87 3.43-7.52 3.43-3.65 0-5.36-1.51-7.52-3.43-2.15-1.93-5.32-4.73-10.84-4.73s-8.48 2.61-10.85 4.73c-2.16 1.92-3.85 3.43-7.51 3.43-3.65 0-5.36-1.51-7.5-3.43-2.37-2.11-5.34-4.73-10.86-4.73s-8.48 2.61-10.85 4.73c-2.37 2.11-3.85 3.43-7.5 3.43-3.66 0-5.37-1.51-7.52-3.43-2.38-2.11-5.32-4.73-10.84-4.73s-8.49 2.61-10.86 4.73c-2.37 2.11-3.85 3.43-7.52 3.43-3.66 0-5.35-1.51-7.5-3.43-2.37-2.11-5.32-4.73-10.86-4.73-5.53 0-8.46 2.61-10.84 4.73-2.15 1.92-3.85 3.43-7.52 3.43-3.66 0-5.34-1.51-7.5-3.43-2.37-2.11-5.32-4.73-10.85-4.73-5.54 0-8.47 2.61-10.84 4.73-2.16 1.92-3.87 3.43-7.52 3.43-3.66 0-5.35-1.51-7.51-3.43-2.15-1.93-5.32-4.73-10.85-4.73-5.54 0-8.47 2.61-10.84 4.73-2.16 1.92-3.86 3.43-7.51 3.43v6.13c5.52 0 8.47-2.63 10.84-4.75 2.38-2.11 3.86-3.42 7.51-3.42s5.36 1.51 7.5 3.42c2.39 2.12 5.34 4.75 10.86 4.75s8.48-2.63 10.85-4.75c2.16-1.91 3.85-3.42 7.51-3.42 3.65 0 5.36 1.51 7.51 3.42 2.38 2.12 5.32 4.75 10.84 4.75 5.53 0 8.49-2.63 10.86-4.75 2.16-1.91 3.85-3.42 7.5-3.42 3.66 0 5.37 1.51 7.52 3.42 2.16 1.92 5.32 4.75 10.84 4.75s8.49-2.63 10.86-4.75c2.15-1.91 3.85-3.42 7.52-3.42 3.66 0 5.34 1.51 7.5 3.42 2.16 1.92 5.32 4.75 10.86 4.75 5.53 0 8.46-2.63 10.84-4.75 2.15-1.91 3.86-3.42 7.51-3.42 3.66 0 5.35 1.51 7.51 3.42 2.16 1.92 5.33 4.75 10.85 4.75s8.47-2.63 10.86-4.75c2.14-1.91 3.85-3.42 7.5-3.42s5.35 1.51 7.51 3.42c2.37 2.12 5.33 4.75 10.85 4.75s8.48-2.63 10.86-4.75c2.37-2.11 3.85-3.42 7.5-3.42s5.36 1.51 7.52 3.42c2.37 2.12 5.33 4.75 10.85 4.75s8.49-2.63 10.86-4.75c2.15-1.91 3.87-3.42 7.52-3.42 3.65 0 5.36 1.51 7.52 3.42 2.37 2.12 5.33 4.75 10.85 4.75v-6.13c-3.67 0-5.36-1.51-7.52-3.43-2.37-2.11-5.32-4.73-10.85-4.73zM1940.09 328.43l-1.29 1.46 14.74 16.71 1.29-1.47z"/><path class="fil4" d="m1953.54 328.43-14.74 16.7 1.29 1.47 14.74-16.71zM1866.9 328.43l-1.29 1.46 14.75 16.71 1.28-1.47z"/><path class="fil4" d="m1880.36 328.43-14.75 16.7 1.29 1.47 14.74-16.71zM1903.49 328.43l-1.28 1.46 14.74 16.71 1.29-1.47z"/><path class="fil4" d="m1916.95 328.43-14.74 16.7 1.28 1.47 14.75-16.71zM1940.09 286.95l-1.29 1.47 14.74 16.7 1.29-1.47z"/><path class="fil4" d="m1953.54 286.95-14.74 16.7 1.29 1.47 14.74-16.7zM1866.9 286.95l-1.29 1.47 14.75 16.7 1.28-1.47z"/><path class="fil4" d="m1880.36 286.95-14.75 16.7 1.29 1.47 14.74-16.7zM1903.49 286.95l-1.28 1.47 14.74 16.7 1.29-1.47z"/><path class="fil4" d="m1916.95 286.95-14.74 16.7 1.28 1.47 14.75-16.7zM1940.09 245.49l-1.29 1.46 14.74 16.71 1.29-1.47z"/><path class="fil4" d="m1953.54 245.49-14.74 16.7 1.29 1.47 14.74-16.71zM1866.9 245.49l-1.29 1.46 14.75 16.71 1.28-1.47z"/><path class="fil4" d="m1880.36 245.49-14.75 16.7 1.29 1.47 14.74-16.71zM1903.49 245.49l-1.28 1.46 14.74 16.71 1.29-1.47z"/><path class="fil4" d="m1916.95 245.49-14.74 16.7 1.28 1.47 14.75-16.71zM1940.09 204.03l-1.29 1.46 14.74 16.71 1.29-1.47z"/><path class="fil4" d="m1953.54 204.03-14.74 16.7 1.29 1.47 14.74-16.71zM1866.9 204.03l-1.29 1.46 14.75 16.71 1.28-1.47z"/><path class="fil4" d="m1880.36 204.03-14.75 16.7 1.29 1.47 14.74-16.71zM1903.49 204.03l-1.28 1.46 14.74 16.71 1.29-1.47z"/><path class="fil4" d="m1916.95 204.03-14.74 16.7 1.28 1.47 14.75-16.71zM1967.71 125.89a12.035 12.035 0 0 0-6.59-1.96c-3.36 0-6.57 1.4-8.85 3.85-1.76 1.57-3.15 2.88-6.13 2.88-2.97 0-4.31-1.24-6.12-2.88a12.115 12.115 0 0 0-8.85-3.85c-3.35 0-6.56 1.4-8.85 3.85-1.75 1.57-3.13 2.88-6.11 2.88-2.97 0-4.31-1.24-6.12-2.88-2.29-2.45-5.5-3.85-8.85-3.85-3.36 0-6.56 1.4-8.85 3.85-1.75 1.57-3.15 2.88-6.12 2.88-2.98 0-4.32-1.24-6.13-2.88a12.076 12.076 0 0 0-17.68 0c-1.75 1.56-3.15 2.79-6.12 2.79v5.01c3.35-.02 6.55-1.42 8.84-3.87 1.75-1.57 3.14-2.88 6.12-2.88 2.97 0 4.31 1.24 6.12 2.88 2.29 2.46 5.49 3.86 8.85 3.86 3.36 0 6.57-1.4 8.85-3.86 1.76-1.57 3.14-2.88 6.13-2.88 2.99 0 4.31 1.24 6.11 2.88a12.064 12.064 0 0 0 17.69 0c1.76-1.57 3.14-2.88 6.13-2.88 2.99 0 4.31 1.24 6.12 2.88 2.28 2.46 5.49 3.86 8.84 3.86 3.36 0 6.56-1.4 8.84-3.86 1.76-1.57 3.15-2.88 6.13-2.88 2.97 0 4.31 1.24 6.12 2.88.16.17.32.33.48.49v-6.31z"/><path class="fil0" d="m0 817.42 162.86-281.2v275.51l-24.06 41.55H0z"/><path style="fill:#002a38" d="M195.94 778.17h27.24l-43.48 75.11h-27.23z"/><path class="fil2" d="m296.19 853.28 20.97-36.24h27.24l-20.97 36.24z"/><path class="fil1" d="m231.43 853.28 82.11-144.99h53.07l-83.96 144.99z"/><path class="fil2" d="M196.48 853.28 337.2 605.53v60.99l-23.66 41.77-82.11 144.99z"/><path style="fill:#f64523" d="m0 741.79 25.43-43.92v155.41H0z"/><path class="fil0" d="M52.19 339.6v210.14L0 639.85V429.71z"/><path class="fil1" d="M0 535.88h241.84L58.01 853.28H0z"/><path class="fil4" d="M53.38 210.26c-.05-.35-.24-.68-.53-.9-.2-.16-.46-.25-.72-.25-.43 0-.83.25-1.03.64L0 296.63v5.16l53.19-90.45c.15-.23.23-.5.23-.77 0-.1-.02-.21-.04-.31z"/><path class="fil3" d="M218.77 652.13c.2-.4.61-.64 1.05-.64.25 0 .5.08.7.23.29.23.48.55.54.91a1.495 1.495 0 0 1-.19 1.08l-117.4 199.57h-3.03l118.33-201.15zM220.16 713.74l-3.9 6.47 34.18-7.3 3.89-6.45-34.17 7.28zm28.34-47.06-3.9 6.45 34.17-7.29 3.9-6.45-34.17 7.29zm-47.29 78.43-3.89 6.47 34.17-7.3 3.9-6.46-34.18 7.29zm56.75-94.13-3.9 6.45 34.17-7.29 3.9-6.47-34.17 7.31zm-18.86 31.34-3.9 6.45 34.17-7.29 3.9-6.45-34.17 7.29zm-28.38 47.07-3.9 6.46 34.17-7.3 3.9-6.45-34.17 7.29zm18.9-31.37-3.88 6.46 34.17-7.3 3.9-6.45-34.19 7.29z"/><path class="fil4" d="M68.55 167.94H37.44l15.55-24.32zM68.55 139.36H37.44l15.55-24.33zM68.55 110.78H37.44l15.55-24.33zM68.55 82.21H37.44l15.55-24.34zM68.55 53.63H37.44l15.55-24.34zM68.55 25.05H37.44L52.99.71z"/><path class="fil3" d="M12.94 776.24h10.45v11.83H12.94zM38.17 776.24h10.45v11.83H38.17zM63.39 776.24h10.45v11.83H63.39zM88.6 776.24h10.45v11.83H88.6zM113.82 776.24h10.45v11.83h-10.45zM139.05 776.24h10.45v11.83h-10.45zM12.94 747.66h10.45v11.83H12.94zM38.17 747.66h10.45v11.83H38.17zM63.39 747.66h10.45v11.83H63.39zM88.6 747.66h10.45v11.83H88.6zM113.82 747.66h10.45v11.83h-10.45zM139.05 747.66h10.45v11.83h-10.45zM12.94 719.08h10.45v11.83H12.94zM38.17 719.08h10.45v11.83H38.17zM63.39 719.08h10.45v11.83H63.39zM88.6 719.08h10.45v11.83H88.6zM113.82 719.08h10.45v11.83h-10.45zM139.05 719.08h10.45v11.83h-10.45zM12.94 690.5h10.45v11.83H12.94zM38.17 690.5h10.45v11.83H38.17zM63.39 690.5h10.45v11.83H63.39zM88.6 690.5h10.45v11.83H88.6zM113.82 690.5h10.45v11.83h-10.45zM139.05 690.5h10.45v11.83h-10.45z"/></g></g></svg>