<svg xmlns="http://www.w3.org/2000/svg" xml:space="preserve" width="956" height="4013" style="shape-rendering:geometricPrecision;text-rendering:geometricPrecision;image-rendering:optimizeQuality;fill-rule:evenodd;clip-rule:evenodd" viewBox="0 0 956 4013.01"><defs><style>.fil4{fill:#000}.fil1{fill:#002a38}.fil2{fill:#184899}.fil5{fill:gray}.fil3{fill:#f29120}.fil0{fill:#ffce05}</style></defs><g id="Layer_x0020_1"><g id="Layer_1-2" data-name="Layer 1"><path class="fil0" d="m955.81 1727.34-318.89 550.58v-860.97l76.78-132.53h242.11z"/><path class="fil1" d="M533.57 1521.92h-85.19l137.51-237.5h85.09z"/><path class="fil2" d="m221.82 1284.42-67.09 116H69.57l67.13-116h18.03z"/><path class="fil3" d="m424.2 1284.42-258.16 455.84H.17l264-455.84h4.62z"/><path class="fil2" d="M533.39 1284.42 92.13 2061.38v-190.59l73.91-130.53 258.16-455.84z"/><path class="fil3" d="M955.81 2279.04H390.07l565.74-976.79z"/><path class="fil4" d="M462.2 1915.64c-.66 1.22-1.91 2-3.28 2-.78 0-1.57-.28-2.22-.75-.88-.69-1.47-1.72-1.66-2.82-.06-.34-.09-.65-.09-1 0-.84.22-1.65.69-2.37l368.37-626.28h9.5L462.2 1915.64zM457.98 1723.23l12.16-20.22-106.79 22.78-12.18 20.22 106.81-22.78zm-88.69 147.09 12.16-20.22-106.78 22.82-12.19 20.18 106.81-22.78zm147.75-245.12 12.19-20.22-106.81 22.78-12.16 20.22 106.78-22.78zm-177.31 294.19 12.15-20.19-106.78 22.78-12.19 20.16 106.82-22.75zm59.06-98.04 12.19-20.21-106.78 22.81-12.19 20.16 106.78-22.76zm88.69-147.09 12.19-20.22-106.79 22.81-12.18 20.19 106.78-22.78zm-59.06 98.03 12.15-20.22-106.78 22.82-12.19 20.18 106.82-22.78z"/><path class="fil5" d="m476.92 2661.32-82.35 89.88 4.5 5.25 77.85-85 80.12 87.41 80.06-87.41 80.13 87.41 80.12-87.41 80.1 87.41 78.36-85.5v-10.13l-78.36 85.53-80.1-87.44-80.12 87.44-80.13-87.44-80.06 87.44z"/><path class="fil5" d="m476.92 2588.45-82.35 89.87 4.5 5.25 77.85-85 80.12 87.44 80.06-87.44 80.13 87.44 80.12-87.44 80.1 87.44 78.36-85.53v-10.12l-78.36 85.53-80.1-87.44-80.12 87.44-80.13-87.44-80.06 87.44z"/><path class="fil5" d="m476.92 2515.6-82.35 89.85 4.5 5.25 77.85-85 80.12 87.44 80.06-87.44 80.13 87.44 80.12-87.44 80.1 87.44 78.36-85.54v-10.12l-78.36 85.53-80.1-87.41-80.12 87.41-80.13-87.41-80.06 87.41zM698.39 3371.76h119.34l-59.69 93.35zM698.39 3481.42h119.34l-59.69 93.37zM698.39 3591.08h119.34l-59.69 93.37zM698.39 3700.7h119.34l-59.69 93.41zM698.39 3810.39h119.34l-59.69 93.37zM698.39 3920.04h119.34l-59.69 93.41z"/><path class="fil4" d="M903.38 2054.42h43.66v49.47h-43.66zM903.38 1934.92h43.66v49.47h-43.66zM903.38 1815.42h43.66v49.47h-43.66zM903.38 1695.95h43.66v49.47h-43.66z"/><path class="fil5" d="m269.04 2070.6-13.34 15.1-23.35-26.47-23.37 26.47-13.38-15.1 23.41-26.53-23.41-26.5 13.38-15.12 23.37 26.5 23.35-26.5 13.34 15.12-23.34 26.5z"/><path class="fil0" d="m955.81 910.47-318.89-485.9v759.75l76.78 117h242.11z"/><path class="fil1" d="M533.57 1091.73h-85.19l137.51 209.59h85.09z"/><path class="fil2" d="m221.82 1301.32-67.09-102.4H69.57l67.13 102.4h18.03z"/><path class="fil3" d="M424.2 1301.32 166.04 899.04H.17l264 402.28h4.62z"/><path class="fil2" d="M533.39 1301.32 92.13 615.7v168.15l73.91 115.19 258.16 402.28z"/><path class="fil3" d="M955.81 423.63H390.07l565.74 861.96z"/><path class="fil4" d="M462.2 744.26a4.039 4.039 0 0 0-3.28-1.72c-.78 0-1.57.22-2.22.66-.88.56-1.47 1.47-1.66 2.5-.06.28-.09.56-.09.84 0 .75.25 1.5.69 2.13l368.37 552.59h9.5l-371.31-557zM351.04 894.01l12.19 17.97 106.78 20.12-12.19-17.97-106.78-20.12zm-88.69-129.84 12.19 17.96 106.78 20.1-12.18-17.97-106.79-20.09zm147.78 216.31 12.16 18 106.81 20.06-12.18-17.97-106.79-20.09zM232.79 720.85l12.19 17.97 106.78 20.16-12.16-18-106.81-20.13zm58.94 86.53 12.19 17.97 106.78 20.1-12.16-17.97-106.81-20.1zm88.69 129.82 12.18 17.97 106.79 20.12-12.16-17.97-106.81-20.12zm-59.07-86.5 12.16 17.97 106.81 20.12-12.19-17.97-106.78-20.12z"/><path class="fil5" d="M476.92 86.29 394.57 6.98l4.5-4.63 77.85 74.97L556.67.56h.75l79.68 76.76L716.85.56h.75l79.75 76.76L877.07.56h.75l77.99 75.09v8.94L877.45 9.1l-80.1 77.19L717.23 9.1 637.1 86.29 557.04 9.1z"/><path class="fil5" d="m476.92 150.57-82.35-79.31 4.5-4.63 77.85 75 80.12-77.15 80.06 77.15 80.13-77.15 80.12 77.15 80.1-77.15 78.36 75.45v8.94l-78.36-75.46-80.1 77.16-80.12-77.16-80.13 77.16-80.06-77.16z"/><path class="fil5" d="m476.92 214.85-82.35-79.28 4.5-4.62 77.85 74.96 80.12-77.12 80.06 77.12 80.13-77.12 80.12 77.12 80.1-77.12 78.36 75.46v8.94l-78.36-75.46-80.1 77.12-80.12-77.12-80.13 77.12-80.06-77.12z"/><path class="fil4" d="M903.38 578.13h43.66v43.66h-43.66zM903.38 683.63h43.66v43.66h-43.66zM903.38 789.07h43.66v43.66h-43.66zM903.38 894.51h43.66v43.66h-43.66z"/><path class="fil5" d="m269.04 607.57-13.34-13.34-23.35 23.34-23.37-23.34-13.38 13.34 23.41 23.35-23.41 23.4 13.38 13.35 23.37-23.35 23.35 23.35 13.34-13.35-23.34-23.4z"/></g></g></svg>