<svg xmlns="http://www.w3.org/2000/svg" xml:space="preserve" width="682" height="422" style="shape-rendering:geometricPrecision;text-rendering:geometricPrecision;image-rendering:optimizeQuality;fill-rule:evenodd;clip-rule:evenodd"><defs><linearGradient id="b" gradientUnits="userSpaceOnUse" x1="337.75" y1="-28.35" x2="337.75" y2="450.21"><stop offset="0" style="stop-opacity:1;stop-color:#f29120"/><stop offset="1" style="stop-opacity:1;stop-color:#ec2224"/></linearGradient><clipPath id="a"><path d="M68.92 140.55c0-1.54 2.95-2.46 4.57-5.91 1-2.15 1.52-4.5 1.52-6.87 0-.62-.04-1.24-.11-1.85-1.33 0-1.48.49-1.97 1.55-1.97 4.08-.63 2.32-4.43 5.98-3.8 3.66-1.83 3.59-4.79 9.22-2.35-.27-4.73-.68-7.03-1.2-1.2 0-2.47-.35-3.59-.63-1.13-.28-.92-1.2-2.89-1.34 0 1.27 0 .71.77 1.34 2.99 2.08 6.45 3.42 10.07 3.87-.35 1.55-1.2 1.55-1.41 3.52 2.88-1.48 2.25 0 4.93 0 2.67 0 2.6-1.48 3.58-2.32.99-.85 2.33-.85 2.33-3.59-1.2-.36-1.41-.5-1.41-1.76l-.14-.01zm52.92-57.98c2.6 0 2.46-.78 3.87-1.69l4.01 1.69c1.49.6 3.09.91 4.69.91h.17c0-.91 0-.7-.77-1.12l-1.34-.64c-5.21-2.46-9.5-4.99-14.07-2.25-1.67.73-3.27 1.6-4.79 2.6h1.9c0 1.06-.78.85-1.2 1.97-.42 1.13 0 3.59-.92 5.35-.91 1.76-.7 1.06-.77 2.04-.07.99.42 0 .99 0 2.39 0 6.4-5.63 6.47-9.36l1.76.5zm220.7 18.86c3.94-33.36 9.64-80.58 10.76-95.36h39.2c7.88-.85 18.72 0 21.12 0h37.86c2.39 0 5.77-.43 8.3-.5 2.54-.06 5.49 0 8.59 0h55.81c2.95 0 7.03.5 9.99.5h16.12a22.986 22.986 0 0 1 7.03 0c2.44-.13 4.92-.21 7.36-.21 2.44 0 4.92.08 7.35.21a44.582 44.582 0 0 0 7.04-.35c6.05 0 10.35.7 15.27.7h53.06c-.02.15-.03.31-.03.46 0 .15.01.3.04.45v25.76c0 1.62.42 3.94.49 5.63s0 3.73 0 5.84v66.3h-.43v1.69c-.13.72-.19 1.45-.19 2.18 0 .73.06 1.46.2 2.18h-65.1c-5.14 2.46-12.67 0-21.12 0-1.47.21-2.97.32-4.46.32-1.5 0-2.99-.11-4.47-.32a50.917 50.917 0 0 0-8.66.49c-11.82.99-57.7.49-71.5 0-1.76 0-3.09-.42-4.92-.49-1.32-.1-2.66-.16-3.98-.16-1.32 0-2.66.06-3.98.16h-1.9c0 17.59-5.91 39.2-6.33 56.3 84.45 0 120.27 17.1 168.9 55.17 26.03 20.41 52 71.93 58.83 119.64 2.34 10.92 3.54 22.08 3.54 33.25 0 12.14-1.41 24.26-4.17 36.07h-65.1A66.45 66.45 0 0 1 570.84 383c-19.71-38.5 2.95-60.95 5.84-71.78-16.19 1.33-37.09 15.41-70.87-10.49a67.126 67.126 0 0 1-23.93-45.95 80.04 80.04 0 0 1-.12-4.38c0-5.63.63-11.26 1.88-16.74-7.04 4.64-30.26 38.07-72.07 25.54-23.92-7.03-46.73-30.12-47.99-52.64 0-3.02-1.9-3.02-2.12 0v1.69a52.715 52.715 0 0 1-9.84 22.6c-19 25.89-52.22 36.17-79.04 23.78a78.838 78.838 0 0 1-16.04-9.08 42.671 42.671 0 0 1-6.55-5.13c-4.99-5 0-2.54-6.47-7.04 2.39 28.15 5.56 42.58-20.76 68.41-24.56 23.99-50.81 16.04-72.28 11.05 2.18 5.35 4.8 10.55 7.81 15.48a66.048 66.048 0 0 1 5.12 25.5c0 13.94-4.41 27.53-12.58 38.82-1.47 1.97-3.37 4.78-4.99 7.03a77.559 77.559 0 0 1-27.59 17.74h-4.29v4.65H-.05v-46.45c54.4-43.07 100.71-77.06 131.81-104.86 61.23-54.75 89.03-84.45 89.03-107.39 0-27.03-17.74-45.18-43.42-45.18h-.27c-3.59 0-7.19.36-10.71 1.05a12.88 12.88 0 0 0 3.38-2.11c2.5-2.4 4.51-5.27 5.91-8.44 0-1.13-2.89.42-3.24.56-3.31 1.41-1.12-1.2-9.99 4.22-4.15 2.46-7.39 4.72-11.68 7.04 0-1.48-1.13-1.9-2.68-1.9-1.55 0-2.95 1.69-4.78 1.69s-3.95-1.97-5.21-2.96a45.693 45.693 0 0 0-5.28-2.88 17.916 17.916 0 0 1-7.53-9.08h-.92v1.19c.13 4.37 2.17 8.46 5.57 11.19 2.3 1.9 4.78 3.61 7.38 5.07 2.26 1.62 2.19 4.01-2.18 4.65l-3.87.42c-.7 0-.42 0-.7.49-.28.49-.42-.42 0 .63.42 1.06 0 .36.49.43l1.41.35c3.87.84 7.04 3.1 11.47 1.83a51.973 51.973 0 0 0-11.68 35.19v9.57H-.05v-8.87C-.05 66.66 66.24-.2 175.89-.2c83.81 0 147.79 41.1 169.95 104.93l-3.3-3.3zm62.49-7.96c-1.62.18-3.26.27-4.89.27-3.54 0-7.08-.42-10.52-1.25-4.22-3.31 2.53-13.65-4.22-16.54-6.76-2.88-7.04 17.67-7.04 19.99-.99 5.7-5.7 18.93 4.71 22.17 6.62-4.16 1.06-13.24 6.41-16.33.84-.42 13.09-2.46 14.85 0 1.62 5.35-1.83 14.64 2.04 21.74 6.47 1.76 6.12-9.57 6.47-14.42.43-6.69.5-12.04.57-18.86 0-3.8 1.76-17.95-5.7-15.35-3.1 1.27-2.26 15.35-2.68 18.58zm136.81-43.84c-1.9 7.95 5.42 6.33 10.06 7.6 2.75 12.18-7.03 32.37 4.65 33.43 7.04-6.55.42-5.28 2.96-20.76.84-5.14.84-10.07 1.76-14.71 3.87-.7 6.4 1.62 9.92-1.9.56-12.88-28.01-4.22-29.35-3.66zM177.93 70.18c-.92-1.13-.99-.63-1.06-2.04 5.16-.57 10.23-1.9 15-3.94 1.97-.85 11.68-5.35 11.68-7.04 0-.56 0-1.48-.99-1.48-.98 0-2.53 2.75-6.19 3.66l-16.82 2.61-4.08.7c-4.86 1.06-6.12.84-8.02-3.94-.43-1.13-.78-2.04-1.13-3.24l-.77-2.11c-.34-2.32-1.29-4.5-2.75-6.33a63.32 63.32 0 0 0-8.02-8.59 17.021 17.021 0 0 1-4.16-4.22c-2.18-3.59-3.65-9.57-7.03-10a12.933 12.933 0 0 0-1.2 7.04c.29 6.45 2.56 12.68 6.48 17.81 1.08 1.51 2.39 2.87 3.87 4.01 1.48 1.48 4.5 3.17 4.5 5.84 0 2.68-.98 3.45-3.59 4.08-1.12 4.72 3.24 5.07 6.12 8.24 1.01 1.24 2.2 2.34 3.52 3.23 5.21 3.59 8.31.5 12.67.5 4.36 0 5.84 3.44 4.01-.92l-2.04-3.87z"/></clipPath></defs><g data-name="Layer 1"><g style="clip-path:url(#a)"><path style="fill:url(#b)" d="M-.05-.2h684.19v422.54H-.05z"/></g><path d="M68.92 140.55c0-1.54 2.95-2.46 4.57-5.91 1-2.15 1.52-4.5 1.52-6.87 0-.62-.04-1.24-.11-1.85-1.33 0-1.48.49-1.97 1.55-1.97 4.08-.63 2.32-4.43 5.98-3.8 3.66-1.83 3.59-4.79 9.22-2.35-.27-4.73-.68-7.03-1.2-1.2 0-2.47-.35-3.59-.63-1.13-.28-.92-1.2-2.89-1.34 0 1.27 0 .71.77 1.34 2.99 2.08 6.45 3.42 10.07 3.87-.35 1.55-1.2 1.55-1.41 3.52 2.88-1.48 2.25 0 4.93 0 2.67 0 2.6-1.48 3.58-2.32.99-.85 2.33-.85 2.33-3.59-1.2-.36-1.41-.5-1.41-1.76m52.78-57.99c2.6 0 2.46-.78 3.87-1.69l4.01 1.69c1.49.6 3.09.91 4.69.91h.17c0-.91 0-.7-.77-1.12l-1.34-.64c-5.21-2.46-9.5-4.99-14.07-2.25-1.67.73-3.27 1.6-4.79 2.6h1.9c0 1.06-.78.85-1.2 1.97-.42 1.13 0 3.59-.92 5.35-.91 1.76-.7 1.06-.77 2.04-.07.99.42 0 .99 0 2.39 0 6.4-5.63 6.47-9.36l1.76.5zm220.7 18.86c3.94-33.36 9.64-80.58 10.76-95.36h39.2c7.88-.85 18.72 0 21.12 0h37.86c2.39 0 5.77-.43 8.3-.5 2.54-.06 5.49 0 8.59 0h55.81c2.95 0 7.03.5 9.99.5h16.12a22.986 22.986 0 0 1 7.03 0c2.44-.13 4.92-.21 7.36-.21 2.44 0 4.92.08 7.35.21a44.582 44.582 0 0 0 7.04-.35c6.05 0 10.35.7 15.27.7h53.06c-.02.15-.03.31-.03.46 0 .15.01.3.04.45v25.76c0 1.62.42 3.94.49 5.63s0 3.73 0 5.84v66.3h-.43v1.69c-.13.72-.19 1.45-.19 2.18 0 .73.06 1.46.2 2.18h-65.1c-5.14 2.46-12.67 0-21.12 0-1.47.21-2.97.32-4.46.32-1.5 0-2.99-.11-4.47-.32a50.917 50.917 0 0 0-8.66.49c-11.82.99-57.7.49-71.5 0-1.76 0-3.09-.42-4.92-.49-1.32-.1-2.66-.16-3.98-.16-1.32 0-2.66.06-3.98.16h-1.9c0 17.59-5.91 39.2-6.33 56.3 84.45 0 120.27 17.1 168.9 55.17 26.03 20.41 52 71.93 58.83 119.64 2.34 10.92 3.54 22.08 3.54 33.25 0 12.14-1.41 24.26-4.17 36.07h-65.1A66.45 66.45 0 0 1 570.84 383c-19.71-38.5 2.95-60.95 5.84-71.78-16.19 1.33-37.09 15.41-70.87-10.49a67.126 67.126 0 0 1-23.93-45.95 80.04 80.04 0 0 1-.12-4.38c0-5.63.63-11.26 1.88-16.74-7.04 4.64-30.26 38.07-72.07 25.54-23.92-7.03-46.73-30.12-47.99-52.64 0-3.02-1.9-3.02-2.12 0v1.69a52.715 52.715 0 0 1-9.84 22.6c-19 25.89-52.22 36.17-79.04 23.78a78.838 78.838 0 0 1-16.04-9.08 42.671 42.671 0 0 1-6.55-5.13c-4.99-5 0-2.54-6.47-7.04 2.39 28.15 5.56 42.58-20.76 68.41-24.56 23.99-50.81 16.04-72.28 11.05 2.18 5.35 4.8 10.55 7.81 15.48a66.048 66.048 0 0 1 5.12 25.5c0 13.94-4.41 27.53-12.58 38.82-1.47 1.97-3.37 4.78-4.99 7.03a77.559 77.559 0 0 1-27.59 17.74h-4.29v4.65H-.05v-46.45c54.4-43.07 100.71-77.06 131.81-104.86 61.23-54.75 89.03-84.45 89.03-107.39 0-27.03-17.74-45.18-43.42-45.18h-.27c-3.59 0-7.19.36-10.71 1.05a12.88 12.88 0 0 0 3.38-2.11c2.5-2.4 4.51-5.27 5.91-8.44 0-1.13-2.89.42-3.24.56-3.31 1.41-1.12-1.2-9.99 4.22-4.15 2.46-7.39 4.72-11.68 7.04 0-1.48-1.13-1.9-2.68-1.9-1.55 0-2.95 1.69-4.78 1.69s-3.95-1.97-5.21-2.96a45.693 45.693 0 0 0-5.28-2.88 17.916 17.916 0 0 1-7.53-9.08h-.92v1.19c.13 4.37 2.17 8.46 5.57 11.19 2.3 1.9 4.78 3.61 7.38 5.07 2.26 1.62 2.19 4.01-2.18 4.65l-3.87.42c-.7 0-.42 0-.7.49-.28.49-.42-.42 0 .63.42 1.06 0 .36.49.43l1.41.35c3.87.84 7.04 3.1 11.47 1.83a51.973 51.973 0 0 0-11.68 35.19v9.57H-.05v-8.87C-.05 66.66 66.24-.2 175.89-.2c83.81 0 147.79 41.1 169.95 104.93l-3.3-3.3zm62.49-7.96c-1.62.18-3.26.27-4.89.27-3.54 0-7.08-.42-10.52-1.25-4.22-3.31 2.53-13.65-4.22-16.54-6.76-2.88-7.04 17.67-7.04 19.99-.99 5.7-5.7 18.93 4.71 22.17 6.62-4.16 1.06-13.24 6.41-16.33.84-.42 13.09-2.46 14.85 0 1.62 5.35-1.83 14.64 2.04 21.74 6.47 1.76 6.12-9.57 6.47-14.42.43-6.69.5-12.04.57-18.86 0-3.8 1.76-17.95-5.7-15.35-3.1 1.27-2.26 15.35-2.68 18.58zm136.81-43.84c-1.9 7.95 5.42 6.33 10.06 7.6 2.75 12.18-7.03 32.37 4.65 33.43 7.04-6.55.42-5.28 2.96-20.76.84-5.14.84-10.07 1.76-14.71 3.87-.7 6.4 1.62 9.92-1.9.56-12.88-28.01-4.22-29.35-3.66zM177.93 70.18c-.92-1.13-.99-.63-1.06-2.04 5.16-.57 10.23-1.9 15-3.94 1.97-.85 11.68-5.35 11.68-7.04 0-.56 0-1.48-.99-1.48-.98 0-2.53 2.75-6.19 3.66l-16.82 2.61-4.08.7c-4.86 1.06-6.12.84-8.02-3.94-.43-1.13-.78-2.04-1.13-3.24l-.77-2.11c-.34-2.32-1.29-4.5-2.75-6.33a63.32 63.32 0 0 0-8.02-8.59 17.021 17.021 0 0 1-4.16-4.22c-2.18-3.59-3.65-9.57-7.03-10a12.933 12.933 0 0 0-1.2 7.04c.29 6.45 2.56 12.68 6.48 17.81 1.08 1.51 2.39 2.87 3.87 4.01 1.48 1.48 4.5 3.17 4.5 5.84 0 2.68-.98 3.45-3.59 4.08-1.12 4.72 3.24 5.07 6.12 8.24 1.01 1.24 2.2 2.34 3.52 3.23 5.21 3.59 8.31.5 12.67.5 4.36 0 5.84 3.44 4.01-.92l-2.04-3.87z" style="fill:none"/></g></svg>