<svg xmlns="http://www.w3.org/2000/svg" viewBox="0 0 352.44 60.04"><defs><linearGradient id="linear-gradient" x1="48.61" y1="-4.15" x2="48.61" y2="64.19" gradientUnits="userSpaceOnUse"><stop offset="0" stop-color="#f29120"/><stop offset="1" stop-color="#ec2224"/></linearGradient><clipPath id="clip-path"><path d="M9.8 20c0-.22.42-.35.65-.84a2.33 2.33 0 0 0 .2-1.24c-.19 0-.21.07-.28.22-.28.58-.09.33-.63.85s-.26.51-.68 1.31a9.43 9.43 0 0 1-1-.17c-.17 0-.35-.05-.51-.09s-.13-.17-.41-.19c0 .18 0 .1.11.19a3.2 3.2 0 0 0 1.43.55c-.05.22-.17.22-.2.5.41-.21.32 0 .7 0s.37-.21.51-.33.33-.12.33-.51c-.17-.05-.2-.07-.2-.25m7.5-8.24c.37 0 .35-.11.55-.24l.57.24a1.77 1.77 0 0 0 .69.13c0-.13 0-.1-.11-.16l-.19-.09c-.74-.35-1.35-.71-2-.32a4.6 4.6 0 0 0-.68.37h.27c0 .15-.11.12-.17.28s0 .51-.13.76-.1.15-.11.29.06 0 .14 0c.34 0 .91-.8.92-1.33zm31.85 3.12c.56-4.74 1.37-11.45 1.53-13.55h5.57c1.12-.12 2.66 0 3 0h5.38c.34 0 .82-.06 1.18-.07s.78 0 1.22 0H74.49c.42 0 1 .07 1.42.07h2.29a3.27 3.27 0 0 1 1 0 18.71 18.71 0 0 1 2.09 0 6.13 6.13 0 0 0 1-.05c.86 0 1.47.1 2.17.1H92a.45.45 0 0 0 0 .13v3.66c0 .23.06.56.07.8s0 .53 0 .83v9.42h-.06v.24a1.71 1.71 0 0 0 0 .62h-9.25c-.73.35-1.8 0-3 0a4.49 4.49 0 0 1-1.27 0 7.19 7.19 0 0 0-1.23.07c-1.68.14-8.2.07-10.16 0-.25 0-.44-.06-.7-.07a7 7 0 0 0-1.13 0H65c0 2.5-.84 5.57-.9 8 12 0 17.09 2.43 24 7.84 3.7 2.9 7.39 10.22 8.36 17a22.46 22.46 0 0 1-.09 9.85h-9.25a9.44 9.44 0 0 1-6-4.88c-2.8-5.47.42-8.66.83-10.2-2.3.19-5.27 2.19-10.07-1.49a9.54 9.54 0 0 1-3.4-6.53 10.69 10.69 0 0 1 .25-3c-1 .66-4.3 5.41-10.24 3.63-3.4-1-6.64-4.28-6.82-7.48 0-.43-.27-.43-.3 0v.24a7.5 7.5 0 0 1-1.4 3.21c-2.7 3.68-7.42 5.14-11.23 3.38a11.21 11.21 0 0 1-2.28-1.29 6 6 0 0 1-.93-.73c-.71-.71 0-.36-.92-1 .34 4 .79 6.05-2.95 9.72-3.49 3.41-7.22 2.28-10.27 1.57a15.11 15.11 0 0 0 1.11 2.2 9.41 9.41 0 0 1-1.06 9.14c-.21.28-.48.68-.71 1a11 11 0 0 1-3.92 2.52h-.61V60H0v-6.6c7.73-6.12 14.31-10.95 18.73-14.9 8.7-7.78 12.65-12 12.65-15.26 0-3.84-2.52-6.42-6.17-6.42a7.79 7.79 0 0 0-1.56.15 1.84 1.84 0 0 0 .48-.3 3.78 3.78 0 0 0 .84-1.2c0-.16-.41.06-.46.08-.47.2-.16-.17-1.42.6-.59.35-1.05.67-1.66 1 0-.21-.16-.27-.38-.27s-.42.24-.68.24-.56-.28-.74-.42a6.79 6.79 0 0 0-.75-.41A2.54 2.54 0 0 1 17.81 15h-.13v.17a2.12 2.12 0 0 0 .79 1.59 7.09 7.09 0 0 0 1.05.72c.32.23.31.57-.31.66l-.55.06c-.1 0-.06 0-.1.07s-.06-.06 0 .09 0 .05.07.06l.2.05c.55.12 1 .44 1.63.26a7.38 7.38 0 0 0-1.66 5v1.36H0v-1.26C0 9.5 9.42 0 25 0c11.91 0 21 5.84 24.15 14.91zm37.1-5.42a6.37 6.37 0 0 1-2.19-.14c-.6-.47.36-1.94-.6-2.35s-1 2.51-1 2.84c-.14.81-.81 2.69.67 3.15.94-.59.15-1.88.91-2.32.12-.06 1.86-.35 2.11 0 .23.76-.26 2.08.29 3.09.92.25.87-1.36.92-2.05.06-.95.07-1.71.08-2.68 0-.54.25-2.55-.81-2.18-.44.18-.32 2.18-.38 2.64zM77 7.08c-.27 1.13.77.9 1.43 1.08.39 1.73-1 4.6.66 4.75 1-.93.06-.75.42-2.95.12-.73.12-1.43.25-2.09.55-.1.91.23 1.41-.27.08-1.83-3.98-.6-4.17-.52zM25.29 10c-.13-.16-.14-.09-.15-.29a7.53 7.53 0 0 0 2.13-.56c.28-.12 1.66-.76 1.66-1 0-.08 0-.21-.14-.21s-.36.39-.88.52l-2.39.37-.58.1c-.69.15-.87.12-1.14-.56-.06-.16-.11-.29-.16-.46l-.11-.3a1.87 1.87 0 0 0-.39-.9A9 9 0 0 0 22 5.49a2.4 2.4 0 0 1-.59-.6c-.31-.51-.52-1.36-1-1.42a1.83 1.83 0 0 0-.17 1A4.5 4.5 0 0 0 21.16 7a2.74 2.74 0 0 0 .55.57c.21.21.64.45.64.83s-.14.49-.51.58c-.16.67.46.72.87 1.17a2.28 2.28 0 0 0 .5.46c.74.51 1.18.07 1.8.07s.83.49.57-.13z" style="fill:none;clip-rule:evenodd"/></clipPath><style>.cls-4,.cls-5{fill:#f29120;fill-rule:evenodd}.cls-5{fill:#184899}</style></defs><g id="Layer_2" data-name="Layer 2"><g id="Layer_1-2" data-name="Layer 1"><g style="clip-path:url(#clip-path)"><path style="fill:url(#linear-gradient)" d="M0 0h97.22v60.04H0z"/></g><path class="cls-4" d="M118.21 18.15c1.39-4.41 12.09-5.36 9.69-9.37-1.7-1.59-11.19 4.09-13 5.27-1.37-4 1.74-7.62-3.48-7.4-2.82 3.22-1.82 8.36-1.77 12.71.12 10.1-.49 11.25 4.62 10.07l-.19-7c6 .27 8.1 10 13.82 6.28-.46-2.4-7.35-8.81-9.67-10.57M144.13 6c-1.28.7-3.85 3.34-5.19 4.56a17.34 17.34 0 0 0-4.17 6c-5.17 10.59 4.62 17.2 11.4 10 2.93-3.14 1.82-3.84 2.81-7.27.72-2.5 1.36-6.66-.11-8.84-1.58-2.34-1.57-6.15-4.74-4.4M139 24.58c-.95-2.83-.82-5.47 1.48-7.44 3.35-2.87 1.79-4.82 4.67-4.36.45 2.4-.6 5.52-1.22 7.88-.8 2.94-1.57 4.62-4.93 3.92zM160.3 7a12.37 12.37 0 0 0-1.3 5.46c-.12 1.86-3.1 8.21.17 17.49l3.64-.3c.57-2.32-.48-9.3.94-11.21l2.41 2.71c6.29.65 6.16-6 9.53-7.33 1.7 1.94.28 6.32.77 9 .63 3.51 1 4.16 4.44 3.93.12-2.73-.18-3.91-.24-6.29 0-.72.55-3.49.68-4.81.21-2.29.65-8.27-.86-10.1-5.58-4.42-9 6.69-12 9.15-3.69-1.37-3.42-4.06-4.42-7.39-1.82-.4-1.9-.65-3.79-.27M198.28 20.85c2.83-1.72 10.58-2.89 11.91-9 .5-2.28 1-3.49-.15-5.65-4.56-8.46-13.14-3.58-14.32-3.35-1.6.31-2.84-.12-3.56 1.77-.62 1.62.11 10 .71 12.26 1.34 5.11 1.15 6.42.52 11.43-.83 6.53 4.2 8.39 4.66 3.71.32-3.29-.16-8.39.23-11.22m-.69-5.13c-3-7.93 1.47-14 7.21-9.21 3.5 2.9 1.86 3.93.41 6.84-1.32 2.7-4.76 3.47-7.62 2.42zM215.25 29.15c4.82.4 2.6-4.38 5.87-5.53l6.18-.62c.5 1.76.33 3.2 1.38 4.48 5.61.12 3.21-7.49 2.91-11.16-.35-4.26-2.68-9.08-7.15-10a39.8 39.8 0 0 0-4.65 3.89c-.81 1.71 0 1.42-1 3.46-2.23 4.29-6.81 11-3.52 15.49m6.93-10c-.46-2.28 1-5.35 3.25-6.07a3.72 3.72 0 0 1 1.12 4.27 3.27 3.27 0 0 1-4.39 1.75zM253.63 9.2c0-3.63-1.25-4.83-5-3.67-2.42.73-5.45 1.41-6.21 3.88-2 6.48 2.85 9.18 7.15 12.08l.31 3.2a17 17 0 0 1-3.91 2c-1.86.41-3.32 0-4.91 1 1.05 5.41 16.43 1.81 12.2-7.68-1.76-3.93-4.88-1.77-6.35-6.48-.6-1.91 0-3 1.65-4 3-1.82 2.45-.11 5.12-.35M288.8 26.07c-5.81-.71-15.13.38-12-8.61 4-11.4 11-4.79 10.27-11.19-3.49-2.72-8.76-1.08-11 2.55-1.44 2.37-3.93 8.79-4.06 11.68-.52 10.7 19.18 13 16.78 5.57M302.79 5.47c-1.78 1.3-1.27.42-2.62 2.41-.72 1-1.73 1.94-2.41 3-5.66 8.29-6.1 19.38 3.89 17.9 6.73-1 8.63-5.14 9-11.54.45-8-2.35-7.29-4.68-10.74-1-1.56-1.5-2.2-3.17-1m3 6.09c1.37 2.59.67 6.45-.26 9.12-.42 1.19-.91 2.74-1.91 3.44s-3.86 1.13-4.94.35c-1.47-1.07.19-7.1.73-8.29.71-1.56 5.22-4.66 6.39-4.65zM352.41 26.23c.2-2.68-.79-2.28-1.13-5.07-.42-3.47 1.05-12.49-1.51-14.57-5.37-4.33-9.86 7.92-12.41 10.25-3.12-2.15-3.05-4.31-4.72-7.32-1.53-2.74-2.77-2.61-7.63-4.1-3.12 2-1.87 3.46-1.95 6.67-1.92 1.32-2.2 1.27-2.39 3.76-.34 4.28-1.78 13.73 1.59 14.66 4.63 0 4-4.48 4.78-8.16.85-3.89.41-5.08 1.64-8.85 2 2.63 4.89 8.82 9.16 8.71 4.08-.1 3.63-8.53 7.33-10.52 2.39 3.67-2.11 19.68 7.24 14.54M261.66 29.91c3.62-.27 3-.43 3.73-3.12 1.89-5.64-9.26-4.31-3.73 3.12"/><path class="cls-5" d="M147.65 49.81c.11-1.4-.41-1.19-.58-2.65-.22-1.81.54-6.53-.8-7.61-2.8-2.27-5.15 4.13-6.48 5.35-1.63-1.12-1.6-2.25-2.47-3.82s-1.45-1.37-4-2.15c-1.63 1.06-1 1.81-1 3.49-1 .69-1.15.66-1.25 2-.18 2.24-.93 7.18.83 7.67 2.42 0 2.08-2.34 2.5-4.27s.21-2.65.85-4.62c1 1.37 2.56 4.61 4.79 4.55s1.9-4.46 3.83-5.5c1.25 1.92-1.1 10.29 3.78 7.6M156.39 40.32c1.54-.81 4.75-1.13 5.63-2.68-1-1.49-2.77-1.15-4.26-.71-5.88 1.75-4.19 1-4.28 4.79 0 1.18-.2 2-.26 3.11-.09 1.6.5 1.9.37 3s-.64 1.72-.69 2.81c1.75.56 5.76 1.28 7.21-.09-.3-2.11-2.2-1.67-3.66-1.8-.2-3.39 4.38-1 3.57-3.78-1-1-2.27-.32-3.32-.85-.35-1.53.38-1.94-.31-3.82M166.85 38.59a43 43 0 0 0-.27 5.17c0 1.14-.38 1.78 0 2.67a6.05 6.05 0 0 1 .62 2.57c1.31.8 7.15 2.89 7.12-.21-2-1-5 .1-5.29-2.83-.15-1.48 0-5.28-.39-7.28-.3-1.38-1.62-1.24-1.79 0M178.44 50.74a1.11 1.11 0 0 0 2.09.51c.65-1 .28-6.33.28-7.93 0-6.34-2.69-4.41-2.78-3.49l.51 7.37a17.52 17.52 0 0 1-.1 3.54M195.3 43.91c-1 0-4.15.17-4.72-.28-1.28-1 .79-4-1.3-4.81-2.34-.7-2.06 5.14-2.17 5.81-.3 1.65-1.75 4.72 1.45 5.67 2-1.21.31-3.08 2-4 .25-.13 4-.71 4.55 0 .5 1.56-.57 5.25.61 7.29 2 .53 1.9-2.77 2-4.17.13-1.94.15-4.48.17-6.47 0-1.1.53-5.22-1.75-4.45-.93.31-.66 4.37-.8 5.41M204.61 51.94c.37-1.43 1.13-2.95 1.65-4.35.81-2.18 3.7-1.93 3.92-1.76.7 1.12.42 1.35.39 2.74 0 2.61-.24.91-.67 2.39 3.36 3.59 2.75-4.52 2.86-6s.71-1 .36-2.21c-.2-.68-.51-1.14-.78-2.19-.75-2.88-2.22-4-4.78-2-.68.55-2.57 5-3 5.9a43.38 43.38 0 0 0-1.33 4.42c-.76 2.18-1.37 3.44 1.35 3m3.7-9.19c.11-.21.3-.67.4-.83.53-.86-.1-.24.68-.61 1.64 1.1.05 2.75-1.05 1.5zM218 39.88c-.6 2.32 1.65 1.84 3.06 2.21.84 3.54-2.25 9 1.38 9.33 2.1-1.92.19-1.17 1-5.66.26-1.5.25-2.92.53-4.27 1.2-.19 2 .47 3.05-.55.09-3.73-8.67-1.23-9-1.06M243.27 38.5c.52 1.55.23 2.66.16 4.32-1.43.4-1.87 1-3.53.4-.24-1.2 2-7.14-3.76-6.59a36.8 36.8 0 0 0-.65 7.95c.1.72.39 1 .52 1.63.06.27 0 1.23.05 1.57.12.81.37.73.54 1.56s0 1.2.26 2c1.59.48 2.46.18 2.55-1.6.11-2-.42-4.61 4-3.74.67 1.31-.62 4.32.74 4.91 2.3 1 2.36-2.58 2.47-4a63.75 63.75 0 0 0-.16-6.76c0-.89.16-2-.87-2.4s-1.37.17-2.28.71M260.54 45.18c1.52 3.31-1.33 5.27 1.67 5.13 2.4-.11 1.71-3.49 1.55-5-.37-3.56.12-2.76-1.21-5.78-1.13-2.57-1.07-3.19-4.11-2.7-2.7.44-2.7 1.41-3.73 3.84-.29.69-.35.68-.65 1.44-.74 1.84-3.09 10.16.69 8.48 1.53-.68 1-4 2.22-5.43zm-2.47-2.66a2 2 0 0 1 1.25-3.15 3 3 0 0 1 .5 2.8zM280 45c-1.39-2.53-.73-1.49-.59-4.47a2.59 2.59 0 0 0-2.6-2.93 28.45 28.45 0 0 0-4.81.4c-.22.75-.72 8.85.68 11.84.78 1.68.91 2.25 2.51.81-.09-1.29-.23-2.6-.27-3.92a3.73 3.73 0 0 1 2.47-.57c1.48.91 1.15 4.8 3.92 3.23.22-1.34-.77-3.31-1.34-4.39m-4.58-.62c-1.22-.6-1.09-1.37-1-3s.8-1.68 2.16-1.58a3.62 3.62 0 0 1-1.18 4.57zM305.62 44.91c1.48-.9 5.53-1.5 6.22-4.67.26-1.19.53-1.83-.08-3-2.38-4.43-6.86-1.87-7.48-1.76-.84.17-1.48-.06-1.86.93-.32.84.06 5.21.37 6.4a11.83 11.83 0 0 1 .27 6c-.43 3.41 2.2 4.38 2.44 1.94.16-1.72-.09-4.39.12-5.87m-.36-2.68c-1.57-4.14.77-7.3 3.77-4.81 1.82 1.52 1 2 .21 3.58a3.16 3.16 0 0 1-3.98 1.26zM291.26 37.82c-.51.76-1.17 1.74-1.73 2.7-1 1.79-.3 0-1.48 2.68a26.92 26.92 0 0 0-1.35 2.8c-.48 1.57.17 1.61-.35 3.25-.46 1.45 0 3 1.56 1.86.64-.48.94-2.11 1.36-2.83s4.46-2.51 5.43-2.37l1 4.13 1.64-.38c.59-1.38-.61-10.92-2.45-11.74zm3.31 5.69c-.3.16-1.86.72-2.28.84-1 .3-1.19-.08-.9-1.12a11.89 11.89 0 0 1 2-3.74 6.63 6.63 0 0 1 1.18 4.02zM339.44 50.49a12 12 0 0 0 1.18-6.16c-.3-2.62 1-4.42.67-5.86-4.33-1.7-2.16 7-3.45 8.66-1.48-.26-2.52-3.7-3.45-4.86-.76-1-1.64-1.21-2.28-1.91-.84-.93-.48-2-2.38-1.78a24.36 24.36 0 0 0-1.81 5.65c-.34 1.52-.06 1.11-.13 2.62a5.42 5.42 0 0 0 .37 2.66c3.81.17 1.84-4.36 3-6.69 2.33 0 3.83 7.11 6.64 8zM315 49.92c2.52.21 1.36-2.28 3.07-2.89l3.22-.33c.27.92.18 1.67.72 2.35 2.94.06 1.68-3.92 1.53-5.84-.19-2.23-1.4-4.74-3.74-5.22a21.4 21.4 0 0 0-2.43 2c-.42.89 0 .74-.54 1.8-1.16 2.25-3.55 5.76-1.83 8.09m3.62-5.24a2.93 2.93 0 0 1 1.7-3.17 1.94 1.94 0 0 1 .58 2.23 1.7 1.7 0 0 1-2.25.98zM117 44.11c0-.82 0-.61 1-.6h1c1.86.07 1.58-.22 1.51 1.54 0 1.24 0 .89-1.3.86-2.35 0-2.12.42-2.19-1.83m-2.39 6.33a1.11 1.11 0 0 0 2.09.51 7.84 7.84 0 0 0 .38-3c5.29 0 2.49.28 3.71 3.59 1.42 1.2 1.85.14 2-1.4 0-.47.11-1.13.19-1.9 4.37.24 3.85-2.19.76-2.28-.73 0-.73-2.18-.07-2.14 4.37.24 3.59-2.23.59-2.32-1.83-.05-.27-1.47-1.45-3.24-.82-1.22-1.94-.19-2 1-.11 1.6.61 2.26-.92 2.22h-2.87c-.37-3-2.16-2.94-2.64-1.55 0 1.3.41 1.58-.68 1.85-2.63.67-1.51 2.18.72 1.92.24 0 .45 2.27 0 2.29-4.24.43-3.14 2.44-.6 2.14 1.65-.22.49.9.72 2.34zM188.63 60h6.92c1.29-.86 8.86-.43 10.87-.32 3.9.23 8.16.23 12.1.23 4.79 0 7.24-.22 11.58-.5 1.15-.08 1.93-.12 2.48-.13a5.06 5.06 0 0 0 .55 0h.31c.81.07.39.31 2 .41a3.29 3.29 0 0 0 1.13-.1 19.49 19.49 0 0 0 5.52 0 19.61 19.61 0 0 1 2.7.19c1.67 0 3.76-.38 5.46-.49 5.42-.34 2.52 0 5.32.12 2.15.08 4.18-.1 6.28-.1 1.9 0 4.07.35 6 .47l11.94-.48c5.27-.62 5.44.34 7.86-.1a6.07 6.07 0 0 1 2.58.09c1.53.35 4.34.23 5.57.69h6.92c1.28-.86 8.85-.43 10.86-.32 3.9.23 8.16.23 12.11.23 4.78 0 7.24-.22 11.58-.5 5.31-.36 2.81.14 5.29.3 1.15.07 1.34-.25 2.38-.52a5.44 5.44 0 0 1 2.38.07c.56-.75 1.17-1.34.33-2.17s-.88-.78-2.2-.55a108.13 108.13 0 0 1-11.81.84c-.95 0-1.78.28-2.75.37h-8.77c-2.09-.19-4 .08-6.05 0-3.16-.2-9.39-.72-12.32-.28s-.31.93-5.58.57c-1.82-.13-4.08-.35-5.87-.62-1-.14-1.75-.47-2.74-.54s-2 .13-3 .12c-2 0-4.07-.13-6.15-.13-7.78 0-8.77.81-17.63.07-1.87-.16-3.62.1-5.56 0a33.49 33.49 0 0 0-6.25-.16c-1.89.24-6.28.4-10.36.44l-.07-.08c-.92-.89-.89-.78-2.21-.55s-3.2.41-5 .52l-.64-.05a2 2 0 0 0-1.25.16c-1.73.09-3.43.15-4.92.21-.95 0-1.78.28-2.76.37H215c-2.09-.19-4 .08-6.05 0-3.16-.2-9.39-.72-12.32-.28s-.31.93-5.58.57c-1.82-.13-4.08-.35-5.88-.62-.95-.14-1.74-.47-2.73-.54s-2 .13-3 .12c-2 0-4.07-.13-6.15-.13-7.79 0-8.78.81-17.63.07-1.87-.16-3.63.1-5.56 0a33.49 33.49 0 0 0-6.25-.16 148.18 148.18 0 0 1-18.28.28c-.4 0-1.73-.24-1.52 1.14.15 1.05 1.14 1.16 2 1.15 3.31 0 3.81.88 8.92.31a19.61 19.61 0 0 1 2.7.19c1.66 0 3.75-.38 5.46-.49 5.41-.34 2.52 0 5.32.12 2.14.08 4.18-.1 6.28-.1 1.89 0 4.06.35 6 .47l11.93-.48c5.28-.62 5.44.34 7.87-.1a6.08 6.08 0 0 1 2.58.09c1.53.35 4.33.23 5.56.69"/></g></g></svg>