<svg xmlns="http://www.w3.org/2000/svg" viewBox="0 0 139.08 132.55"><defs><style>.cls-1{fill:#184899;stroke:#f29120;stroke-miterlimit:10;stroke-width:1.79px}.cls-2{fill:#f29120}.cls-3{font-size:20.41px;fill:#fff;font-family:Montserrat-Regular,Montserrat}</style></defs><g id="Layer_2" data-name="Layer 2"><g id="Layer_1-2" data-name="Layer 1"><rect class="cls-1" x="33.27" y="28.73" width="105.14" height="53.22" rx="6.07" transform="rotate(48.27 85.842 55.335)"/><circle class="cls-2" cx="85.84" cy="55.34" r="18.77" transform="rotate(-47.33 85.831 55.336)"/><text class="cls-3" transform="matrix(.67 .75 -.75 .67 71.52 48.39)">RP</text><rect class="cls-1" x="9.51" y="49.8" width="105.14" height="53.22" rx="6.32" transform="rotate(29.91 62.083 76.41)"/><path class="cls-2" d="M78.35 85.77a18.77 18.77 0 1 0-25.62 6.91 18.77 18.77 0 0 0 25.62-6.91z"/><text class="cls-3" transform="rotate(29.91 -116.086 123.92)">RP</text><rect class="cls-1" x=".89" y="78.44" width="105.14" height="53.22" rx="6.84"/><circle class="cls-2" cx="53.46" cy="105.05" r="18.77" transform="rotate(-45 53.461 105.046)"/><text class="cls-3" transform="translate(38.76 111.17)">RP</text></g></g></svg>